<?xml version="1.0" encoding="utf-8"?>
<!-- Generator: Adobe Illustrator 27.0.1, SVG Export Plug-In . SVG Version: 6.00 Build 0)  -->
<svg version="1.1" id="Layer_1" xmlns="http://www.w3.org/2000/svg" xmlns:xlink="http://www.w3.org/1999/xlink" x="0px" y="0px"
	 viewBox="0 0 316.1 255.1" enable-background="new 0 0 316.1 255.1" xml:space="preserve">
<g>
	<rect x="156.9" y="95.7" stroke="#000000" stroke-miterlimit="10" width="95.7" height="95.7"/>
	<rect x="60.9" stroke="#000000" stroke-miterlimit="10" width="95.7" height="95.7"/>
	<g>
		<path d="M110.1,110.2c0.7,0.2,1.4,0.2,2.1,0.5c1.1,0.4,2.2,0.8,3.2,1.3c7.1,4.1,14.3,8.2,21.4,12.3c1.8,1,3.3,2.4,4.4,4.2
			c-0.8,0.5-1.6,1-2.4,1.5c-8.8,5.5-17.6,11-26.3,16.6c-2,1.3-3.9,1.3-6,0c-9.7-6.1-19.4-12.2-29.1-18.3c-0.2-0.1-0.3-0.2-0.6-0.4
			c0.2-0.2,0.3-0.5,0.5-0.6c1.2-1,2.3-2.2,3.6-3c7.1-4.2,14.2-8.2,21.3-12.3c1.5-0.9,3.2-1.5,4.9-1.7c0.1,0,0.2-0.1,0.3-0.1
			C108.3,110.2,109.2,110.2,110.1,110.2z M113.8,127c0-2.8-2.2-5-5-5c-2.8,0-5,2.2-5,5c0,2.8,2.3,5.1,5,5.1
			C111.5,132,113.8,129.8,113.8,127z"/>
		<path d="M108.5,185.6c-2.3-0.1-4.3-0.7-6.2-1.8c-7.2-4.1-14.4-8.2-21.5-12.4c-4.1-2.4-6.4-6.1-6.4-10.9c-0.1-8.4,0-16.9,0-25.3
			c0-2,0.5-3.8,1.4-5.6c0.3,0.2,0.5,0.3,0.7,0.4c9.8,6.1,19.5,12.3,29.3,18.4c0.7,0.4,1.4,0.7,2.2,1c0.4,0.1,0.5,0.3,0.5,0.7
			c0,1.1,0,2.3,0,3.4c0,10.4,0,20.8,0,31.2C108.5,184.9,108.5,185.2,108.5,185.6z M86,164.9c-0.1-0.7-0.1-1.3-0.3-1.8
			c-0.6-2.3-1.6-4.4-3.7-5.8c-1.7-1.1-3.1-0.5-3.4,1.5c-0.5,2.8,1.4,7.1,3.9,8.5c0.2,0.2,0.5,0.3,0.8,0.4c1,0.3,1.9,0,2.3-1
			C85.8,166.1,85.9,165.4,86,164.9z M93.9,152.3c0.2,2.9,1.2,5.3,3.3,7.2c0.8,0.7,1.7,1.3,2.9,0.8c1.1-0.5,1.3-1.6,1.2-2.7
			c-0.1-2.9-1.2-5.3-3.3-7.2c-0.4-0.3-0.8-0.6-1.2-0.8c-1.2-0.5-2.1-0.1-2.5,1.1C94.1,151.3,94,151.8,93.9,152.3z"/>
		<path d="M142,130.2c0.6,1.4,1.1,2.8,1.1,4.3c0.1,3.1,0,6.2,0,9.3c0,5.3,0,10.7,0,16c0,5.3-2.3,9.2-6.9,11.9c-6.9,4-13.9,8-20.8,12
			c-1.3,0.8-2.9,1.2-4.4,1.7c-0.2,0.1-0.5,0.1-0.7,0.1c0-12,0-24,0-35.9c3.4-1.2,6.2-3.5,9.2-5.3c7.3-4.5,14.6-9.1,21.8-13.7
			C141.6,130.4,141.8,130.3,142,130.2z M139.4,159.9c0-0.3,0-0.6,0-0.8c-0.1-0.9-0.3-1.8-1.2-2.2c-0.9-0.4-1.7,0-2.4,0.5
			c-0.3,0.2-0.6,0.4-0.8,0.7c-1.3,1.4-2.2,3-2.6,4.9c-0.2,1-0.3,2.1-0.1,3c0.2,1.6,1.6,2.2,3,1.4c0.4-0.2,0.9-0.5,1.2-0.9
			C138.2,164.7,139.2,162.5,139.4,159.9z M139.4,141.7c0-1.2,0-2.5-1.3-3c-1.2-0.6-2.2,0.2-3.1,1c-1.5,1.4-2.4,3.1-2.8,5.1
			c-0.2,1-0.3,2.1-0.1,3c0.2,1.6,1.5,2.1,2.9,1.4c0.5-0.2,0.9-0.6,1.3-0.9C138.2,146.4,139.2,144.2,139.4,141.7z M115.1,175.2
			c0,2,0.4,3,1.3,3.4c1.1,0.4,2-0.1,2.8-0.8c2.1-2,3.2-4.4,3.3-7.3c0-1.1-0.2-2.1-1.3-2.6c-1.1-0.5-2,0.1-2.8,0.8
			C116.3,170.5,115.3,172.9,115.1,175.2z M115.1,156.9c0,2,0.4,3,1.3,3.4c1.1,0.4,2-0.1,2.8-0.8c2.1-1.9,3.2-4.3,3.3-7.1
			c0-1.1-0.1-2.3-1.3-2.8c-1.2-0.5-2.1,0.1-2.9,0.9C116.3,152.4,115.3,154.7,115.1,156.9z"/>
		<path fill="#FFFFFF" d="M113.8,127c0,2.8-2.2,5-5,5c-2.8,0-5.1-2.3-5-5.1c0-2.8,2.3-5,5-5C111.5,122,113.8,124.3,113.8,127z"/>
		<path fill="#FFFFFF" d="M86,164.9c-0.1,0.5-0.2,1.1-0.4,1.7c-0.4,1-1.3,1.3-2.3,1c-0.3-0.1-0.6-0.2-0.8-0.4
			c-2.4-1.5-4.3-5.7-3.9-8.5c0.3-2,1.8-2.6,3.4-1.5c2.1,1.4,3.1,3.5,3.7,5.8C85.9,163.6,85.9,164.2,86,164.9z"/>
		<path fill="#FFFFFF" d="M93.9,152.3c0.1-0.4,0.1-1,0.3-1.6c0.4-1.2,1.4-1.6,2.5-1.1c0.4,0.2,0.9,0.4,1.2,0.8
			c2.1,1.9,3.2,4.4,3.3,7.2c0,1.1-0.1,2.2-1.2,2.7c-1.1,0.5-2.1-0.1-2.9-0.8C95.2,157.6,94.2,155.2,93.9,152.3z"/>
		<path fill="#FFFFFF" d="M139.4,159.9c-0.2,2.5-1.2,4.8-3,6.6c-0.4,0.4-0.8,0.7-1.2,0.9c-1.5,0.8-2.8,0.2-3-1.4
			c-0.1-1-0.1-2.1,0.1-3c0.4-1.9,1.3-3.5,2.6-4.9c0.3-0.3,0.5-0.5,0.8-0.7c0.7-0.5,1.5-0.9,2.4-0.5c0.9,0.4,1.1,1.3,1.2,2.2
			C139.3,159.4,139.3,159.6,139.4,159.9z"/>
		<path fill="#FFFFFF" d="M139.4,141.7c-0.2,2.5-1.2,4.8-3,6.6c-0.4,0.4-0.8,0.7-1.3,0.9c-1.4,0.7-2.7,0.1-2.9-1.4
			c-0.2-1-0.1-2.1,0.1-3c0.4-2,1.3-3.7,2.8-5.1c0.9-0.8,1.8-1.6,3.1-1C139.3,139.2,139.3,140.5,139.4,141.7z"/>
		<path fill="#FFFFFF" d="M115.1,175.2c0.2-2.3,1.2-4.7,3.4-6.6c0.8-0.7,1.7-1.2,2.8-0.8c1.1,0.5,1.3,1.6,1.3,2.6
			c-0.1,2.9-1.2,5.3-3.3,7.3c-0.8,0.7-1.7,1.2-2.8,0.8C115.5,178.2,115.1,177.2,115.1,175.2z"/>
		<path fill="#FFFFFF" d="M115.1,156.9c0.2-2.2,1.2-4.6,3.2-6.5c0.8-0.8,1.8-1.4,2.9-0.9c1.2,0.5,1.3,1.7,1.3,2.8
			c-0.1,2.8-1.2,5.2-3.3,7.1c-0.8,0.7-1.7,1.2-2.8,0.8C115.5,160,115.1,158.9,115.1,156.9z"/>
	</g>
	<g>
		<path d="M167,33.3c0-0.1,0.1-0.1,0.1-0.2c0.6-2.5,2.2-4,4.7-4.7c4.2-1.1,8.4-2.2,12.6-3.4c4.9-1.3,9.8-2.6,14.8-4
			c3.3-0.9,6.5,0.9,7.4,4.2c4,15,8.1,30.1,12.1,45.2c0.9,3.4-0.8,6.5-4.2,7.4c-9.2,2.5-18.5,5-27.8,7.4c-3.2,0.9-6.3-1-7.2-4.3
			c-2.8-10.4-5.6-20.8-8.4-31.2c-1.3-4.8-2.6-9.7-3.9-14.5c0-0.1-0.1-0.1-0.1-0.2C167,34.6,167,33.9,167,33.3z M190.3,41
			c-1,0-1.5,0.4-1.8,1.3c-1.4,4.1-2.7,8.1-4.1,12.2c-0.3,0.8-0.1,1.5,0.5,2c3.2,2.8,6.5,5.7,9.7,8.5c1,0.9,2.2,0.6,2.7-0.7
			c1.4-4.1,2.8-8.2,4.2-12.3c0.3-0.8,0.1-1.4-0.5-1.9c-3.3-2.9-6.6-5.8-9.8-8.6C190.9,41.2,190.5,41,190.3,41z"/>
		<path d="M209,10.2c1.8,0.3,3.6,0.7,5.5,1c7.7,1.4,15.5,2.7,23.2,4.1c3.3,0.6,5.2,3.5,4.7,6.8c-1.6,9.4-3.3,18.9-5,28.3
			c-1,5.9-2.1,11.8-3.1,17.7c-0.6,3.4-3.3,5.4-6.7,5c-1.4-0.2-2.8-0.5-4-0.7c-1.4-6.9-3.5-13.5-5.2-20.3c-0.2-0.6-0.1-1,0.5-1.4
			c3.3-2.2,6.3-4.8,8.4-8.2c0.9-1.5,1.6-3,1.9-4.8c0.3-2.3-0.8-4.5-2.8-5.5c-2.1-1.1-4.5-0.7-6.2,1c-0.1,0.1-0.2,0.3-0.4,0.5
			c-2-3.4-3.4-4.1-7.3-3.4c-0.5-1.7-1-3.5-1.4-5.2c-0.6-2.7-1.8-5-4-6.7c-1.5-1.1-3.1-1.8-4.9-2c0-3.2,1.7-5.3,4.2-6.1
			c0.3-0.1,0.6-0.2,0.9-0.3C207.8,10.2,208.4,10.2,209,10.2z"/>
		<path fill="#FFFFFF" d="M190.3,41c0.2,0.1,0.6,0.2,0.8,0.5c3.3,2.9,6.6,5.8,9.8,8.6c0.6,0.5,0.8,1.2,0.5,1.9
			c-1.4,4.1-2.8,8.2-4.2,12.3c-0.4,1.3-1.6,1.6-2.7,0.7c-3.2-2.8-6.5-5.7-9.7-8.5c-0.7-0.6-0.8-1.2-0.5-2c1.4-4.1,2.7-8.1,4.1-12.2
			C188.8,41.4,189.4,40.9,190.3,41z"/>
	</g>
	<g>
		<path fill="#FFFFFF" d="M71,57.5c0.1-1.4,0.3-2.7,0.4-4.1c0.9-7,2.4-13.8,5.7-20.1c1.5-2.8,3.3-5.4,5.9-7.3
			c2.5-1.8,5.3-2.6,8.3-2.3c2.9,0.3,5.7,1,8.6,1.6c2.7,0.5,5.4,1.2,8.1,1.5c1.7,0.2,3.5-0.2,5.2-0.5c3.5-0.7,6.9-1.6,10.3-2.3
			c2.9-0.6,5.7-0.6,8.5,0.5c2.5,1,4.3,2.8,5.9,4.8c3,3.8,4.6,8.3,6,12.9c1.4,4.8,2.3,9.6,2.6,14.6c0,0.2,0.1,0.4,0.1,0.6
			c0,1.5,0,3,0,4.6c-0.1,1.1-0.3,2.3-0.4,3.4c-0.3,1.6-0.8,3.2-1.6,4.6c-1.6,2.5-3.9,3.5-6.7,3.1c-2.9-0.4-5.3-1.7-7.6-3.3
			c-2.1-1.5-4.2-3-6-4.8c-3.5-3.4-7.7-4.9-12.5-5.3c-4-0.3-7.9,0-11.8,1.3c-2.2,0.7-4,2-5.7,3.5c-2.5,2.3-5.2,4.5-8.1,6.2
			c-1.8,1.1-3.6,2-5.7,2.4c-3.7,0.6-6.6-1-8-4.5c-0.7-1.7-1-3.6-1.2-5.4c0-0.4-0.1-0.8-0.1-1.1C71,60.4,71,58.9,71,57.5z M74.4,60.3
			c0,0.9,0,2.1,0.2,3.2c0.2,1.1,0.4,2.3,0.7,3.4c0.7,2.2,2.3,3.2,4.5,2.6c1.5-0.4,3.1-1.1,4.4-1.9c2.9-1.7,5.4-3.9,7.9-6.1
			c1.8-1.6,3.8-2.8,6-3.6c6.4-2.3,12.9-2.4,19.4-0.5c2.7,0.8,5.1,2.1,7.2,4c2.2,1.9,4.5,3.8,6.8,5.5c1.8,1.4,3.8,2.5,6.2,2.9
			c1.8,0.3,3-0.3,3.8-1.9c0.9-1.8,1.2-3.7,1.3-5.7c0.3-6.4-0.8-12.6-2.4-18.7c-1.1-4.1-2.6-8.1-5.2-11.6c-2.5-3.3-5.8-5.1-10-4.5
			c-3.1,0.4-6.1,1.1-9.1,1.9c-4.9,1.3-9.7,1.4-14.6,0.1c-3-0.8-6.1-1.5-9.1-2c-3.2-0.5-6.2,0.3-8.6,2.6c-2.2,2-3.6,4.6-4.8,7.3
			C76.1,44.5,74.6,52.1,74.4,60.3z"/>
		<path d="M74.4,60.3c0.2-8.2,1.6-15.8,4.7-23.1c1.1-2.7,2.6-5.2,4.8-7.3c2.4-2.3,5.4-3.1,8.6-2.6c3.1,0.5,6.1,1.2,9.1,2
			c4.9,1.3,9.7,1.2,14.6-0.1c3-0.8,6-1.4,9.1-1.9c4.2-0.6,7.5,1.1,10,4.5c2.6,3.5,4.1,7.4,5.2,11.6c1.7,6.1,2.7,12.4,2.4,18.7
			c-0.1,2-0.4,3.9-1.3,5.7c-0.8,1.6-2.1,2.2-3.8,1.9c-2.3-0.4-4.3-1.5-6.2-2.9c-2.3-1.7-4.6-3.6-6.8-5.5c-2.1-1.9-4.5-3.2-7.2-4
			c-6.5-1.9-13-1.8-19.4,0.5c-2.3,0.8-4.3,2-6,3.6c-2.5,2.2-5,4.5-7.9,6.1c-1.4,0.8-2.9,1.5-4.4,1.9c-2.2,0.6-3.8-0.4-4.5-2.6
			c-0.4-1.1-0.6-2.2-0.7-3.4C74.5,62.3,74.5,61.2,74.4,60.3z M101.7,43.5c0.1-2.6-1.8-5-4.4-5.4c-0.5-0.1-0.6-0.3-0.7-0.7
			c-0.5-2.6-2.8-4.4-5.4-4.4c-2.6,0.1-4.8,1.9-5.3,4.4c-0.1,0.5-0.3,0.6-0.7,0.6c-1.6,0.3-2.9,1.2-3.7,2.6c-1.9,3.3,0,7.4,3.7,8.1
			c0.3,0.1,0.6,0.1,0.7,0.6c0.5,2.6,2.7,4.5,5.3,4.5c2.5,0,4.9-1.8,5.4-4.4c0.1-0.5,0.3-0.6,0.7-0.7C99.8,48.2,101.6,46,101.7,43.5z
			 M125.1,40c1.8,0,3.3-1.5,3.3-3.3c0-1.8-1.5-3.3-3.3-3.2c-1.8,0-3.3,1.5-3.3,3.3C121.9,38.5,123.3,40,125.1,40z M118.5,40.1
			c-1.8,0-3.3,1.4-3.3,3.2c0,1.8,1.5,3.3,3.3,3.3c1.8,0,3.3-1.5,3.3-3.2C121.7,41.6,120.3,40.1,118.5,40.1z M128.5,43.4
			c0,1.8,1.5,3.3,3.3,3.2c1.8,0,3.3-1.5,3.3-3.3c0-1.8-1.5-3.3-3.3-3.2C130,40.1,128.5,41.6,128.5,43.4z M128.4,50.1
			c0-1.8-1.4-3.3-3.2-3.3c-1.8,0-3.3,1.5-3.3,3.3c0,1.8,1.4,3.3,3.2,3.3C126.9,53.3,128.4,51.9,128.4,50.1z"/>
		<path fill="#FFFFFF" d="M101.7,43.5c-0.1,2.5-1.9,4.7-4.4,5.2c-0.4,0.1-0.6,0.2-0.7,0.7c-0.5,2.5-2.9,4.4-5.4,4.4
			c-2.6,0-4.8-1.9-5.3-4.5c-0.1-0.5-0.4-0.5-0.7-0.6c-3.7-0.7-5.6-4.8-3.7-8.1c0.8-1.4,2.1-2.3,3.7-2.6c0.4-0.1,0.6-0.1,0.7-0.6
			c0.5-2.6,2.7-4.4,5.3-4.4c2.5-0.1,4.9,1.8,5.4,4.4c0.1,0.5,0.2,0.6,0.7,0.7C99.8,38.5,101.7,40.9,101.7,43.5z M98.3,43.3
			c0-1.1-0.7-1.9-1.8-1.9c-0.4,0-0.8,0-1.3,0c-1.2,0-1.9-0.7-2-2c0-0.5,0-1.1-0.1-1.6c-0.2-1-1-1.6-2-1.5c-1,0.1-1.8,0.8-1.9,1.8
			c0,0.4,0,0.8,0,1.2c0,1.3-0.7,2-2,2.1c-0.5,0-0.9,0-1.4,0.1c-1,0.2-1.7,0.9-1.6,2c0,1,0.8,1.7,1.8,1.8c0.4,0,0.9,0,1.3,0
			c1.2,0,1.9,0.7,1.9,1.9c0,0.4,0,0.8,0,1.2c0,1.1,0.8,1.9,1.9,1.9c1.1,0,1.9-0.7,2-1.8c0-0.4,0-0.9,0-1.3c0-1.1,0.7-1.7,1.7-1.8
			c0.5,0,1.1,0,1.6-0.1C97.6,45.2,98.3,44.4,98.3,43.3z"/>
		<path fill="#FFFFFF" d="M125.1,40c-1.8,0-3.3-1.4-3.3-3.2c0-1.8,1.4-3.3,3.3-3.3c1.8,0,3.3,1.4,3.3,3.2
			C128.4,38.5,127,40,125.1,40z"/>
		<path fill="#FFFFFF" d="M118.5,40.1c1.8,0,3.3,1.5,3.3,3.3c0,1.8-1.5,3.3-3.3,3.2c-1.8,0-3.3-1.5-3.3-3.3
			C115.2,41.5,116.7,40.1,118.5,40.1z"/>
		<path fill="#FFFFFF" d="M128.5,43.4c0-1.8,1.5-3.3,3.3-3.3c1.8,0,3.3,1.4,3.3,3.2c0,1.8-1.4,3.3-3.3,3.3
			C130,46.7,128.5,45.2,128.5,43.4z"/>
		<path fill="#FFFFFF" d="M128.4,50.1c0,1.8-1.5,3.3-3.3,3.3c-1.8,0-3.3-1.5-3.2-3.3c0-1.8,1.5-3.3,3.3-3.3
			C127,46.8,128.4,48.2,128.4,50.1z"/>
		<path d="M98.3,43.3c0,1.1-0.7,1.8-1.7,2c-0.5,0.1-1.1,0-1.6,0.1c-1.1,0.1-1.7,0.8-1.7,1.8c0,0.4,0,0.9,0,1.3
			c-0.1,1.1-0.9,1.8-2,1.8c-1.1,0-1.8-0.8-1.9-1.9c0-0.4,0-0.8,0-1.2c-0.1-1.2-0.8-1.8-1.9-1.9c-0.4,0-0.9,0-1.3,0
			c-1-0.1-1.7-0.9-1.8-1.8c0-1,0.6-1.8,1.6-2c0.5-0.1,0.9,0,1.4-0.1c1.3,0,2-0.8,2-2.1c0-0.4,0-0.8,0-1.2c0.1-1,0.9-1.7,1.9-1.8
			c1-0.1,1.8,0.5,2,1.5c0.1,0.5,0.1,1.1,0.1,1.6c0,1.2,0.8,1.9,2,2c0.4,0,0.8,0,1.3,0C97.5,41.5,98.3,42.3,98.3,43.3z"/>
	</g>
	<g>
		<path fill="#FFFFFF" d="M173.7,104.5c0.2,0.3,0.5,0.5,0.7,0.8c2.5,4.3,5,8.6,7.4,12.9c0.4,0.8,0.3,1.3-0.3,1.7
			c-0.6,0.3-1.2,0.2-1.6-0.6c-1.4-2.5-2.8-4.9-4.2-7.4c-1-1.8-2.1-3.6-3.1-5.4c-0.6-1-0.5-1.3,0.4-2
			C173.2,104.5,173.4,104.5,173.7,104.5z"/>
		<path fill="#FFFFFF" d="M167,115c0.8-0.9,1.1-1,2.2-0.3c2.9,2,5.9,3.9,8.8,5.9c0.2,0.1,0.3,0.2,0.5,0.3c0.4,0.4,0.5,1.1,0.2,1.5
			c-0.4,0.5-0.9,0.6-1.4,0.3c-0.6-0.4-1.2-0.8-1.8-1.2c-2.5-1.7-5-3.3-7.5-5c-0.3-0.2-0.6-0.5-0.9-0.8C167,115.5,167,115.2,167,115z
			"/>
		<path fill="#FFFFFF" d="M229.1,159.7c-1.1-2.6-2-5.1-2.4-7.8c-1.1-7.2,1.9-12.5,8.7-15.2c0.6-0.2,1.2-0.5,2-0.7
			c-6.6-3.7-9.1-8.9-6.5-16.3c-0.4,0.2-0.6,0.3-0.8,0.4c-2.5,1.3-5.1,2.3-8,2.5c-5,0.3-8.8-1.9-11.6-5.8c-0.1-0.2-0.3-0.4-0.5-0.7
			c-0.2,0.2-0.3,0.4-0.5,0.6c-1.1,1.5-2.3,2.8-3.8,3.8c-3.3,2.3-6.8,2.2-10.3,0.4c-2-1-3.7-2.4-5.3-4c-0.2-0.2-0.3-0.3-0.5-0.5
			c0,0-0.1,0-0.1,0c-0.2,1.4-0.4,2.8-0.7,4.2c-0.1,0.6-0.4,1.2-0.6,1.7c-0.3,0.6-0.9,0.9-1.4,0.6c-0.5-0.2-0.8-0.8-0.6-1.4
			c1.1-2.7,1.1-5.5,0.7-8.3c-0.1-0.7,0-1.2,0.7-1.5c0.7-0.3,1.1,0.2,1.5,0.6c1.8,2.4,3.9,4.6,6.6,6.1c2.1,1.2,4.4,1.9,6.9,1.2
			c1.9-0.6,3.4-1.8,4.6-3.4c0.7-0.9,1.2-1.8,1.8-2.7c0.3-0.5,0.6-0.9,1.1-0.7c0.4,0.1,0.8,0.4,1,0.8c1.8,3.3,4.2,5.8,8,6.6
			c3,0.6,5.8,0,8.5-1.3c1.9-1,3.7-2.2,5.6-3.3c0.3-0.2,0.7-0.4,1.1-0.4c0.9,0,1.2,1,0.7,1.8c-0.6,1-1.3,2-1.7,3.1
			c-2.4,5.5-0.8,10.5,4.5,13.5c1,0.6,2.1,1,3.2,1.5c0.6,0.3,1.1,0.5,1.1,1.3c-0.1,0.7-0.6,0.9-1.2,1.1c-2.5,0.5-4.9,1.3-7.1,2.7
			c-3.7,2.4-5.1,5.9-4.8,10.2c0.3,3.6,1.7,6.9,3.3,10.1c0.1,0.2,0.2,0.5,0.4,0.7c0.3,0.5,0.3,0.9-0.1,1.4c-0.4,0.4-0.8,0.4-1.3,0.2
			c-2.3-1-4.6-1.7-7-2c-2.8-0.4-5.6-0.4-8.3,0.9c-0.7,0.3-1.3,0.1-1.6-0.5c-0.3-0.6,0-1.2,0.7-1.5c2.6-1.2,5.3-1.6,8.1-1.2
			c1.9,0.2,3.8,0.7,5.7,1.1C228.6,159.5,228.8,159.6,229.1,159.7z"/>
		<path fill="#FFFFFF" d="M208.9,167.4c0.4-1.1,0.8-2.1,1.2-3.2c0.1-0.3,0.3-0.6,0.4-0.8c0.4-0.7,1-0.9,1.6-0.6
			c0.6,0.3,0.7,1,0.3,1.7c-0.8,1.4-1.3,3-1.5,4.6c0,0.2-0.1,0.5-0.1,0.7c0,0.5-0.2,1-0.7,1.2c-0.6,0.2-1,0-1.4-0.4
			c-1-0.9-1.9-1.9-3-2.7c-0.9-0.7-1.9-1.3-3-1.8c-2.3-1.1-4.7-0.7-6.9,0.3c-2.7,1.3-4.8,3.5-6.4,5.9c-1,1.4-1.8,3-2.7,4.5
			c-0.4,0.8-0.9,1-1.5,0.8c-0.7-0.3-0.9-0.8-0.6-1.6c1.3-4.1,1.9-8.2,1-12.4c-1-5.1-4.1-8.5-8.8-10.6c-2.4-1.1-4.9-1.8-7.6-2.1
			c-0.6-0.1-1.1-0.3-1.2-1c-0.1-0.7,0.3-1,0.9-1.3c6.3-2.6,8.2-10.1,3.7-15.3c-1.1-1.3-2.6-2.3-3.9-3.5c-0.5-0.4-0.9-0.8-0.7-1.5
			c0.3-0.7,0.8-0.8,1.5-0.7c3.3,0.4,6.5,0.3,9.7-0.8c1.4-0.5,2.6-1.3,3.9-2c0.7-0.4,1.3-0.5,1.8,0c0.5,0.6,0.3,1.2-0.4,1.8
			c-2.4,1.9-5.3,2.8-8.3,3.2c-1.1,0.1-2.2,0.2-3.4,0.3c2.7,2.7,4.4,5.8,4.4,9.6c0,3.9-1.7,6.9-4.7,9.4c10.8,2.8,16.5,9.3,15.6,20.6
			c1.2-1.1,2.3-2.3,3.6-3.3c2.4-2,5.2-3.3,8.4-3.2c2.4,0.1,4.4,1.1,6.3,2.5C207.4,166.2,208.2,166.8,208.9,167.4z"/>
		<path fill="#FFFFFF" d="M233.2,178c-0.3,0.4-0.5,0.8-0.9,0.9c-0.3,0.1-0.8,0-1.1-0.1c-0.1,0-0.2-0.2-0.4-0.4
			c-3.3-3.7-6.6-7.5-10-11.2c-0.2-0.2-0.4-0.4-0.5-0.6c-0.3-0.5-0.2-1,0.2-1.4c0.4-0.4,0.9-0.5,1.4-0.1c0.2,0.1,0.3,0.3,0.4,0.4
			c3.4,3.8,6.7,7.6,10.1,11.4C232.8,177.2,232.9,177.5,233.2,178z"/>
		<path fill="#FFFFFF" d="M193.3,139.8c0-1.9,1.5-3.3,3.4-3.3c1.8,0,3.3,1.6,3.3,3.4c0,1.8-1.5,3.3-3.3,3.3
			C194.7,143.2,193.3,141.7,193.3,139.8z M196.6,138.7c-0.6,0-1.1,0.5-1.1,1.1c0,0.6,0.5,1.1,1.1,1.1c0.7,0,1.2-0.5,1.1-1.2
			C197.7,139.2,197.2,138.7,196.6,138.7z"/>
		<path fill="#FFFFFF" d="M209.5,139.9c0-1.9,1.4-3.4,3.3-3.4c1.8,0,3.3,1.5,3.3,3.3c0,1.8-1.5,3.3-3.3,3.4
			C211,143.2,209.6,141.8,209.5,139.9z M214,139.8c0-0.6-0.5-1.1-1.1-1.1c-0.6,0-1.1,0.5-1.1,1.2c0,0.6,0.5,1.1,1.2,1.1
			C213.5,141,214,140.4,214,139.8z"/>
		<path fill="#FFFFFF" d="M204.8,136.5c1.8,0,3.3,1.5,3.3,3.3c0,1.8-1.5,3.4-3.3,3.4c-1.9,0-3.4-1.4-3.4-3.3
			C201.4,137.9,202.9,136.5,204.8,136.5z M204.8,138.7c-0.6,0-1.1,0.5-1.2,1.1c0,0.6,0.5,1.1,1.1,1.2c0.7,0,1.2-0.5,1.2-1.1
			C205.9,139.2,205.4,138.7,204.8,138.7z"/>
		<path fill="#FFFFFF" d="M217.9,167c0.2,0.2,0.6,0.4,0.7,0.8c1.3,3.6,2.6,7.1,3.8,10.7c0.2,0.7-0.1,1.2-0.7,1.4
			c-0.6,0.2-1.2,0-1.4-0.7c-1.3-3.6-2.5-7.1-3.8-10.7C216.3,167.7,216.8,167,217.9,167z"/>
		<path fill="#FFFFFF" d="M224.2,109c-0.1,0.2-0.2,0.4-0.3,0.7c-1.1,2-2.2,3.9-3.3,5.9c-0.4,0.8-1.1,1-1.7,0.7
			c-0.6-0.3-0.7-1-0.2-1.7c1.1-2,2.2-4,3.4-6c0.3-0.5,0.6-0.8,1.3-0.6C223.9,108,224.2,108.3,224.2,109z"/>
		<path fill="#FFFFFF" d="M241.1,150.8c-1.8-0.3-3.7-0.5-5.6-0.8c-0.5-0.1-0.9-0.1-1.4-0.2c-0.6-0.1-0.9-0.6-0.8-1.2
			c0.1-0.6,0.5-1,1.1-0.9c2.4,0.3,4.7,0.6,7.1,1c0.6,0.1,1,0.6,0.9,1.2C242.3,150.5,241.9,150.8,241.1,150.8z"/>
		<path fill="#FFFFFF" d="M173.2,165c-0.3-0.3-0.7-0.6-0.9-0.9c-0.2-0.4-0.1-1,0.4-1.2c1.9-1,3.8-2,5.8-3c0.6-0.3,1.1-0.1,1.4,0.5
			c0.3,0.5,0.2,1.1-0.3,1.4c-1.9,1-3.9,2-5.8,3c-0.1,0.1-0.2,0.1-0.4,0.1C173.3,164.9,173.2,164.9,173.2,165z"/>
		<path d="M196.6,138.7c0.6,0,1.1,0.5,1.2,1.1c0,0.6-0.5,1.2-1.1,1.2c-0.6,0-1.1-0.5-1.1-1.1C195.5,139.3,196,138.7,196.6,138.7z"/>
		<path d="M214,139.8c0,0.6-0.5,1.1-1.1,1.1c-0.6,0-1.1-0.4-1.2-1.1c0-0.7,0.5-1.2,1.1-1.2C213.5,138.7,214,139.2,214,139.8z"/>
		<path d="M204.8,138.7c0.6,0,1.1,0.5,1.1,1.1c0,0.6-0.5,1.2-1.2,1.1c-0.6,0-1.1-0.5-1.1-1.2C203.6,139.2,204.2,138.7,204.8,138.7z"
			/>
	</g>
</g>
<g>
	<path d="M3.5,211.1c0-1.3,1.1-2.4,2.3-2.4h13.4c9.5,0,15.7,5,15.7,13.3v0.1c0,9.1-7.6,13.8-16.5,13.8H8.3v12.7
		c0,1.3-1.1,2.4-2.4,2.4c-1.3,0-2.3-1.1-2.3-2.4V211.1z M18.7,231.6c7,0,11.5-3.7,11.5-9.2v-0.1c0-6-4.5-9.1-11.3-9.1H8.3v18.5H18.7
		z"/>
	<path d="M41.8,229.8v-0.1c0-11.6,8.7-21.7,21.5-21.7c12.8,0,21.4,10,21.4,21.6v0.1c0,11.6-8.7,21.7-21.5,21.7
		C50.4,251.4,41.8,241.4,41.8,229.8z M79.7,229.8v-0.1c0-9.5-7-17.4-16.6-17.4s-16.5,7.7-16.5,17.2v0.1c0,9.5,7,17.4,16.6,17.4
		S79.7,239.4,79.7,229.8z"/>
	<path d="M94.7,211.1c0-1.3,1.1-2.4,2.3-2.4h13.4c9.5,0,15.7,5,15.7,13.3v0.1c0,9.1-7.6,13.8-16.5,13.8H99.4v12.7
		c0,1.3-1.1,2.4-2.4,2.4c-1.3,0-2.3-1.1-2.3-2.4V211.1z M109.8,231.6c7,0,11.5-3.7,11.5-9.2v-0.1c0-6-4.5-9.1-11.3-9.1H99.4v18.5
		H109.8z"/>
	<path d="M163.9,213.1h-12.2c-1.2,0-2.2-1-2.2-2.2s1-2.2,2.2-2.2h29.2c1.2,0,2.2,1,2.2,2.2s-1,2.2-2.2,2.2h-12.2v35.5
		c0,1.3-1.1,2.4-2.4,2.4c-1.3,0-2.4-1.1-2.4-2.4V213.1z"/>
	<path d="M191.7,248.3v-37.2c0-1.3,1.1-2.4,2.3-2.4h26.1c1.2,0,2.2,1,2.2,2.2c0,1.2-1,2.2-2.2,2.2h-23.7v14.4h21
		c1.2,0,2.2,1,2.2,2.2c0,1.2-1,2.2-2.2,2.2h-21v14.7h24c1.2,0,2.2,1,2.2,2.2c0,1.2-1,2.2-2.2,2.2H194
		C192.8,250.7,191.7,249.6,191.7,248.3z"/>
	<path d="M230,229.8v-0.1c0-11.9,8.9-21.7,21.3-21.7c6.8,0,11.1,2.2,15,5.5c0.5,0.4,1,1.1,1,1.9c0,1.3-1.1,2.3-2.4,2.3
		c-0.7,0-1.2-0.3-1.6-0.5c-3.2-2.9-6.9-4.8-12.1-4.8c-9.3,0-16.3,7.6-16.3,17.2v0.1c0,9.7,7,17.4,16.3,17.4c5.2,0,8.9-1.8,12.5-5.1
		c0.4-0.4,0.9-0.7,1.5-0.7c1.2,0,2.3,1.1,2.3,2.3c0,0.7-0.4,1.3-0.8,1.7c-4.1,3.8-8.7,6.2-15.6,6.2C239,251.4,230,241.9,230,229.8z"
		/>
	<path d="M276.2,210.8c0-1.3,1.1-2.4,2.3-2.4c1.3,0,2.4,1.1,2.4,2.4v16.6h24.3v-16.6c0-1.3,1.1-2.4,2.4-2.4c1.3,0,2.3,1.1,2.3,2.4
		v37.8c0,1.3-1.1,2.4-2.3,2.4c-1.3,0-2.4-1.1-2.4-2.4v-16.8h-24.3v16.8c0,1.3-1.1,2.4-2.4,2.4c-1.3,0-2.3-1.1-2.3-2.4V210.8z"/>
</g>
</svg>
