<svg width="713" height="923" viewBox="0 0 713 923" fill="none" xmlns="http://www.w3.org/2000/svg">
<rect x="64.518" y="490.735" width="333" height="193" transform="rotate(-5.79877 64.518 490.735)" fill="url(#paint0_linear_197_1779)" stroke="black" stroke-width="4"/>
<rect x="409.743" y="455.676" width="244" height="193" transform="rotate(-5.79877 409.743 455.676)" fill="url(#paint1_linear_197_1779)" stroke="black" stroke-width="4"/>
<rect x="85.5336" y="697.67" width="195" height="193" transform="rotate(-5.79877 85.5336 697.67)" fill="url(#paint2_linear_197_1779)" stroke="black" stroke-width="4"/>
<rect x="294.459" y="676.453" width="193.333" height="193" transform="rotate(-5.79877 294.459 676.453)" fill="url(#paint3_linear_197_1779)" stroke="black" stroke-width="4"/>
<rect x="501.395" y="655.438" width="173" height="193" transform="rotate(-5.79877 501.395 655.438)" fill="url(#paint4_linear_197_1779)" stroke="black" stroke-width="4"/>
<path d="M63.2072 477.83L43.7031 285.774L289.928 260.769L274.034 456.419L63.2072 477.83Z" fill="url(#paint5_linear_197_1779)" stroke="black" stroke-width="4"/>
<path d="M284.81 455.325L302.143 260.523L632.774 226.946L652.178 418.017L284.81 455.325Z" fill="url(#paint6_linear_197_1779)" stroke="black" stroke-width="4"/>
<path d="M42.6043 274.94L23.9004 90.7637L395.208 53.0557L382.863 240.385L42.6043 274.94Z" fill="url(#paint7_linear_197_1779)" stroke="black" stroke-width="4"/>
<path d="M402.082 52.3573L391.257 239.533L631.572 215.127L612.869 30.951L402.082 52.3573Z" fill="url(#paint8_linear_197_1779)" stroke="black" stroke-width="4"/>
<path d="M112.017 778.904L87.5351 740.844L92.0023 800.104L111.209 784.145C112.764 782.853 113.111 780.604 112.017 778.904Z" fill="white"/>
<path d="M89.305 694.14L65.082 664.539L83.4637 711.924L89.8297 698.374C90.485 696.979 90.2809 695.332 89.305 694.14Z" fill="white"/>
<path d="M90.2719 608.157L75.0537 549.945L64.6074 551.006L75.0413 638.901L89.9295 611.055C90.4044 610.166 90.5267 609.131 90.2719 608.157Z" fill="white"/>
<path d="M81.4276 473.95L53.4082 447.624L66.85 550.291L75.6096 552.417L82.6711 477.239C82.7866 476.009 82.3276 474.795 81.4276 473.95Z" fill="white"/>
<path d="M119.468 858.637L97.463 830.851L102.19 891.953L119.746 863.205C120.62 861.775 120.509 859.951 119.468 858.637Z" fill="white"/>
<path d="M59.5556 345.012L39.416 312.832L51.9175 386.446L60.0778 347.964C60.293 346.95 60.1057 345.891 59.5556 345.012Z" fill="white"/>
<path d="M43.5574 234.794L24.2637 198.277L38.4596 273.729L43.9757 237.26C44.1036 236.415 43.957 235.55 43.5574 234.794Z" fill="white"/>
<path d="M36.4408 119.703L19.8535 80.6204L27.027 151.257L36.5554 122.525C36.8616 121.601 36.8208 120.598 36.4408 119.703Z" fill="white"/>
<g filter="url(#filter0_d_197_1779)">
<path fill-rule="evenodd" clip-rule="evenodd" d="M620.546 4.55569L17.6467 65.7828L17.6663 65.9763L15.3194 66.9623L36.6123 117.642C36.8455 118.197 36.8705 118.817 36.6829 119.39L17.7024 177.242C17.2527 178.613 17.3596 180.106 18 181.398L43.2794 232.424C43.5011 232.872 43.5837 233.376 43.5165 233.87L34.6703 299.046C34.5028 300.28 34.7589 301.534 35.3968 302.603L59.333 342.731C59.6494 343.262 59.7582 343.891 59.6385 344.497L50.3748 391.382C50.315 391.684 50.2807 391.992 50.2725 392.3L48.9651 441.067C48.9231 442.637 49.5539 444.149 50.6987 445.224L81.3191 473.971C81.8733 474.491 82.1607 475.235 82.1001 475.993L76.1088 550.915C76.0592 551.536 76.1154 552.161 76.275 552.763L90.3566 605.874C90.5194 606.488 90.4424 607.141 90.1413 607.7L64.6511 655.036C63.6126 656.964 63.8174 659.325 65.1726 661.046L89.2467 691.617C89.7966 692.315 89.9344 693.253 89.6086 694.08L78.4218 722.478C77.7684 724.137 77.9594 726.009 78.9341 727.502L111.553 777.446C112.249 778.512 112.033 779.932 111.05 780.742L82.1496 804.556C79.7881 806.502 79.4688 810.001 81.4392 812.342L119.785 857.902C120.496 858.747 120.569 859.958 119.964 860.882L103.319 886.298C101.664 888.825 102.357 892.214 104.87 893.888L129.059 910.004L129.172 909.834L706.526 851.201C709.548 850.894 711.749 848.195 711.443 845.173L626.573 9.47186C626.266 6.44984 623.568 4.24878 620.546 4.55569ZM129.62 906.773L706.223 848.216C707.597 848.077 708.597 846.85 708.458 845.477L623.589 9.77497C623.449 8.40131 622.222 7.40083 620.849 7.54034L19.2753 68.6329L39.3781 116.48C39.8911 117.701 39.9463 119.066 39.5334 120.325L20.5529 178.177C20.3485 178.801 20.3971 179.479 20.6882 180.067L45.9676 231.093C46.4553 232.077 46.6371 233.185 46.4893 234.274L37.643 299.449C37.5669 300.01 37.6833 300.58 37.9732 301.066L61.9094 341.195C62.6056 342.362 62.845 343.745 62.5816 345.078L53.3179 391.963C53.2907 392.101 53.2752 392.241 53.2714 392.381L51.9641 441.147C51.9449 441.861 52.2317 442.548 52.7521 443.037L83.3725 471.783C84.5916 472.928 85.2238 474.565 85.0905 476.232L79.0993 551.154C79.0767 551.437 79.1023 551.721 79.1748 551.994L93.2564 605.105C93.6145 606.456 93.4451 607.892 92.7826 609.123L67.2925 656.458C66.8204 657.335 66.9136 658.408 67.5295 659.19L91.6036 689.761C92.8134 691.297 93.1166 693.36 92.3999 695.179L81.213 723.578C80.916 724.332 81.0028 725.183 81.4459 725.861L114.065 775.805C115.597 778.152 115.12 781.275 112.957 783.058L84.0574 806.871C82.9839 807.756 82.8388 809.346 83.7345 810.41L122.08 855.971C123.644 857.829 123.804 860.493 122.473 862.526L105.828 887.942C105.076 889.09 105.391 890.63 106.534 891.392L129.62 906.773Z" fill="black"/>
</g>
<defs>
<filter id="filter0_d_197_1779" x="0.320312" y="0.5271" width="712.15" height="921.477" filterUnits="userSpaceOnUse" color-interpolation-filters="sRGB">
<feFlood flood-opacity="0" result="BackgroundImageFix"/>
<feColorMatrix in="SourceAlpha" type="matrix" values="0 0 0 0 0 0 0 0 0 0 0 0 0 0 0 0 0 0 127 0" result="hardAlpha"/>
<feOffset dx="-7" dy="4"/>
<feGaussianBlur stdDeviation="4"/>
<feComposite in2="hardAlpha" operator="out"/>
<feColorMatrix type="matrix" values="0 0 0 0 0 0 0 0 0 0 0 0 0 0 0 0 0 0 0.25 0"/>
<feBlend mode="normal" in2="BackgroundImageFix" result="effect1_dropShadow_197_1779"/>
<feBlend mode="normal" in="SourceGraphic" in2="effect1_dropShadow_197_1779" result="shape"/>
</filter>
<linearGradient id="paint0_linear_197_1779" x1="277.826" y1="488.919" x2="230.826" y2="685.947" gradientUnits="userSpaceOnUse">
<stop stop-color="#DADADA"/>
<stop offset="1" stop-color="#DADADA" stop-opacity="0"/>
</linearGradient>
<linearGradient id="paint1_linear_197_1779" x1="590.051" y1="453.86" x2="531.551" y2="650.888" gradientUnits="userSpaceOnUse">
<stop stop-color="#7662F2"/>
<stop offset="1" stop-color="#7662F2" stop-opacity="0"/>
</linearGradient>
<linearGradient id="paint2_linear_197_1779" x1="101.842" y1="709.354" x2="182.842" y2="892.882" gradientUnits="userSpaceOnUse">
<stop stop-color="#7EFFF0"/>
<stop offset="1" stop-color="#E0E0E0" stop-opacity="0"/>
</linearGradient>
<linearGradient id="paint3_linear_197_1779" x1="437.768" y1="674.637" x2="390.934" y2="871.665" gradientUnits="userSpaceOnUse">
<stop stop-color="#32C000"/>
<stop offset="1" stop-color="#299D01" stop-opacity="0"/>
</linearGradient>
<linearGradient id="paint4_linear_197_1779" x1="631.203" y1="715.122" x2="551.703" y2="827.622" gradientUnits="userSpaceOnUse">
<stop stop-color="#E2E2E2"/>
<stop offset="1" stop-color="#E2E2E2" stop-opacity="0"/>
</linearGradient>
<linearGradient id="paint5_linear_197_1779" x1="96.4965" y1="290.953" x2="186.32" y2="465.327" gradientUnits="userSpaceOnUse">
<stop stop-color="#D73C3C"/>
<stop offset="1" stop-color="#D73C3C" stop-opacity="0"/>
</linearGradient>
<linearGradient id="paint6_linear_197_1779" x1="449.09" y1="245.6" x2="468.494" y2="436.671" gradientUnits="userSpaceOnUse">
<stop stop-color="#D9D9D9"/>
<stop offset="1" stop-color="#D9D9D9" stop-opacity="0"/>
</linearGradient>
<linearGradient id="paint7_linear_197_1779" x1="106.102" y1="98.498" x2="228.258" y2="256.086" gradientUnits="userSpaceOnUse">
<stop stop-color="#D9D9D9"/>
<stop offset="1" stop-color="#D9D9D9" stop-opacity="0"/>
</linearGradient>
<linearGradient id="paint8_linear_197_1779" x1="492.711" y1="43.1536" x2="511.415" y2="227.33" gradientUnits="userSpaceOnUse">
<stop stop-color="#F89B45"/>
<stop offset="1" stop-color="#F89B45" stop-opacity="0"/>
</linearGradient>
</defs>
</svg>
