<svg width="463" height="681" viewBox="0 0 463 681" fill="none" xmlns="http://www.w3.org/2000/svg">
<rect x="2" y="307" width="271.073" height="371.973" rx="15" fill="#5B5B5B" stroke="black" stroke-width="4"/>
<rect x="15.2129" y="454.747" width="214.617" height="30.8345" rx="15" fill="#5B5B5B" stroke="black" stroke-width="4"/>
<rect x="15.2129" y="495.587" width="214.617" height="30.8345" rx="15" fill="#5B5B5B" stroke="black" stroke-width="4"/>
<rect x="15.2129" y="536.428" width="214.617" height="30.8345" rx="15" fill="#5B5B5B" stroke="black" stroke-width="4"/>
<circle cx="240.028" cy="354.036" r="13.0006" fill="#4B9EFF"/>
<circle cx="240.028" cy="385.48" r="13.0006" fill="#4B9EFF"/>
<circle cx="240.028" cy="416.923" r="13.0006" fill="#4B9EFF"/>
<circle cx="300.5" cy="267.5" r="15.5" fill="#D9D9D9" stroke="black" stroke-width="4"/>
<circle cx="335.5" cy="227.5" r="25.5" fill="#D9D9D9" stroke="black" stroke-width="4"/>
<mask id="path-10-inside-1_233_1627" fill="white">
<path fill-rule="evenodd" clip-rule="evenodd" d="M344.074 194.874C353.993 194.874 362.869 190.412 368.806 183.387C373.462 185.979 378.824 187.457 384.532 187.457C402.407 187.457 416.898 172.966 416.898 155.09C416.898 154.187 416.861 153.292 416.789 152.408C420.747 154.133 425.116 155.09 429.71 155.09C447.585 155.09 462.076 140.599 462.076 122.723C462.076 115.677 459.825 109.157 456.002 103.843C459.825 98.5286 462.076 92.0083 462.076 84.9622C462.076 69.1597 450.752 56.0023 435.775 53.163C435.778 52.9743 435.78 52.7853 435.78 52.5958C435.78 34.7203 421.289 20.2292 403.413 20.2292C400.64 20.2292 397.948 20.5781 395.379 21.2344C390.84 8.84295 378.941 0 364.977 0C353.71 0 343.788 5.75725 337.991 14.4904C332.115 6.33066 322.532 1.01808 311.709 1.01808C298.005 1.01808 286.29 9.53451 281.569 21.5634C276.102 17.3444 269.249 14.8347 261.81 14.8347C243.935 14.8347 229.444 29.3257 229.444 47.2013C229.444 47.8945 229.465 48.5825 229.508 49.2649C217.256 53.8754 208.539 65.7036 208.539 79.5678C208.539 93.4829 217.32 105.347 229.644 109.921C226.112 115.107 224.048 121.371 224.048 128.118C224.048 145.993 238.539 160.484 256.415 160.484C258.381 160.484 260.306 160.309 262.175 159.973C264.53 175.532 277.96 187.457 294.176 187.457C302.653 187.457 310.369 184.198 316.139 178.864C321.76 188.443 332.166 194.874 344.074 194.874Z"/>
</mask>
<path fill-rule="evenodd" clip-rule="evenodd" d="M344.074 194.874C353.993 194.874 362.869 190.412 368.806 183.387C373.462 185.979 378.824 187.457 384.532 187.457C402.407 187.457 416.898 172.966 416.898 155.09C416.898 154.187 416.861 153.292 416.789 152.408C420.747 154.133 425.116 155.09 429.71 155.09C447.585 155.09 462.076 140.599 462.076 122.723C462.076 115.677 459.825 109.157 456.002 103.843C459.825 98.5286 462.076 92.0083 462.076 84.9622C462.076 69.1597 450.752 56.0023 435.775 53.163C435.778 52.9743 435.78 52.7853 435.78 52.5958C435.78 34.7203 421.289 20.2292 403.413 20.2292C400.64 20.2292 397.948 20.5781 395.379 21.2344C390.84 8.84295 378.941 0 364.977 0C353.71 0 343.788 5.75725 337.991 14.4904C332.115 6.33066 322.532 1.01808 311.709 1.01808C298.005 1.01808 286.29 9.53451 281.569 21.5634C276.102 17.3444 269.249 14.8347 261.81 14.8347C243.935 14.8347 229.444 29.3257 229.444 47.2013C229.444 47.8945 229.465 48.5825 229.508 49.2649C217.256 53.8754 208.539 65.7036 208.539 79.5678C208.539 93.4829 217.32 105.347 229.644 109.921C226.112 115.107 224.048 121.371 224.048 128.118C224.048 145.993 238.539 160.484 256.415 160.484C258.381 160.484 260.306 160.309 262.175 159.973C264.53 175.532 277.96 187.457 294.176 187.457C302.653 187.457 310.369 184.198 316.139 178.864C321.76 188.443 332.166 194.874 344.074 194.874Z" fill="#D9D9D9"/>
<path d="M368.806 183.387L370.753 179.892L367.876 178.29L365.751 180.805L368.806 183.387ZM416.789 152.408L418.387 148.741L412.255 146.069L412.802 152.735L416.789 152.408ZM456.002 103.843L452.755 101.507L451.074 103.843L452.755 106.179L456.002 103.843ZM435.775 53.163L431.776 53.0944L431.718 56.465L435.03 57.093L435.775 53.163ZM395.379 21.2344L391.623 22.6101L392.866 26.0046L396.369 25.1099L395.379 21.2344ZM337.991 14.4904L334.745 16.828L338.125 21.5214L341.324 16.7025L337.991 14.4904ZM281.569 21.5634L279.125 24.7299L283.344 27.9868L285.292 23.0249L281.569 21.5634ZM229.508 49.2649L230.917 53.0086L233.686 51.9666L233.5 49.0137L229.508 49.2649ZM229.644 109.921L232.95 112.173L235.826 107.949L231.036 106.171L229.644 109.921ZM262.175 159.973L266.13 159.375L265.515 155.309L261.468 156.036L262.175 159.973ZM316.139 178.864L319.589 176.84L317.074 172.554L313.424 175.927L316.139 178.864ZM365.751 180.805C360.542 186.969 352.766 190.874 344.074 190.874V198.874C355.22 198.874 365.197 193.855 371.862 185.968L365.751 180.805ZM384.532 183.457C379.523 183.457 374.829 182.162 370.753 179.892L366.86 186.881C372.096 189.797 378.126 191.457 384.532 191.457V183.457ZM412.898 155.09C412.898 170.756 400.198 183.457 384.532 183.457V191.457C404.616 191.457 420.898 175.175 420.898 155.09H412.898ZM412.802 152.735C412.866 153.511 412.898 154.296 412.898 155.09H420.898C420.898 154.078 420.857 153.074 420.775 152.081L412.802 152.735ZM429.71 151.09C425.677 151.09 421.85 150.251 418.387 148.741L415.19 156.075C419.643 158.016 424.556 159.09 429.71 159.09V151.09ZM458.076 122.723C458.076 138.39 445.376 151.09 429.71 151.09V159.09C449.794 159.09 466.076 142.808 466.076 122.723H458.076ZM452.755 106.179C456.104 110.835 458.076 116.543 458.076 122.723H466.076C466.076 114.811 463.545 107.479 459.249 101.507L452.755 106.179ZM458.076 84.9622C458.076 91.1426 456.104 96.8506 452.755 101.507L459.249 106.179C463.545 100.207 466.076 92.8741 466.076 84.9622H458.076ZM435.03 57.093C448.153 59.581 458.076 71.1171 458.076 84.9622H466.076C466.076 67.2024 453.35 52.4236 436.52 49.233L435.03 57.093ZM431.78 52.5958C431.78 52.7623 431.779 52.9285 431.776 53.0944L439.775 53.2316C439.778 53.0202 439.78 52.8083 439.78 52.5958H431.78ZM403.413 24.2292C419.08 24.2292 431.78 36.9294 431.78 52.5958H439.78C439.78 32.5111 423.498 16.2292 403.413 16.2292V24.2292ZM396.369 25.1099C398.617 24.5356 400.977 24.2292 403.413 24.2292V16.2292C400.303 16.2292 397.279 16.6206 394.389 17.3588L396.369 25.1099ZM364.977 4C377.209 4 387.643 11.7441 391.623 22.6101L399.135 19.8586C394.037 5.94175 380.673 -4 364.977 -4V4ZM341.324 16.7025C346.411 9.03846 355.106 4 364.977 4V-4C352.314 -4 341.164 2.47605 334.658 12.2784L341.324 16.7025ZM311.709 5.01808C321.191 5.01808 329.588 9.66717 334.745 16.828L341.237 12.1529C334.641 2.99416 323.873 -2.98192 311.709 -2.98192V5.01808ZM285.292 23.0249C289.433 12.4757 299.705 5.01808 311.709 5.01808V-2.98192C296.305 -2.98192 283.148 6.59335 277.845 20.1019L285.292 23.0249ZM261.81 18.8347C268.334 18.8347 274.334 21.0323 279.125 24.7299L284.013 18.3969C277.871 13.6566 270.164 10.8347 261.81 10.8347V18.8347ZM233.444 47.2013C233.444 31.5348 246.144 18.8347 261.81 18.8347V10.8347C241.725 10.8347 225.444 27.1166 225.444 47.2013H233.444ZM233.5 49.0137C233.463 48.4149 233.444 47.8106 233.444 47.2013H225.444C225.444 47.9783 225.468 48.7502 225.516 49.5161L233.5 49.0137ZM212.539 79.5678C212.539 67.4233 220.173 57.0517 230.917 53.0086L228.1 45.5212C214.339 50.6991 204.539 63.9839 204.539 79.5678H212.539ZM231.036 106.171C220.229 102.16 212.539 91.757 212.539 79.5678H204.539C204.539 95.2089 214.412 108.534 228.252 113.671L231.036 106.171ZM228.048 128.118C228.048 122.199 229.856 116.715 232.95 112.173L226.338 107.67C222.368 113.498 220.048 120.543 220.048 128.118H228.048ZM256.415 156.484C240.748 156.484 228.048 143.784 228.048 128.118H220.048C220.048 148.203 236.33 164.484 256.415 164.484V156.484ZM261.468 156.036C259.831 156.33 258.142 156.484 256.415 156.484V164.484C258.619 164.484 260.781 164.288 262.882 163.91L261.468 156.036ZM294.176 183.457C279.968 183.457 268.193 173.007 266.13 159.375L258.22 160.572C260.866 178.057 275.952 191.457 294.176 191.457V183.457ZM313.424 175.927C308.364 180.604 301.607 183.457 294.176 183.457V191.457C303.698 191.457 312.374 187.791 318.854 181.802L313.424 175.927ZM344.074 190.874C333.642 190.874 324.521 185.245 319.589 176.84L312.689 180.889C318.998 191.64 330.689 198.874 344.074 198.874V190.874Z" fill="black" mask="url(#path-10-inside-1_233_1627)"/>
<path d="M261.513 64C262.541 64 263.332 64.3312 263.886 64.9937C264.441 65.6489 264.718 66.5922 264.718 67.8235C264.718 69.0548 264.441 70.0017 263.886 70.6641C263.332 71.3266 262.541 71.6578 261.513 71.6578C260.477 71.6578 259.682 71.3266 259.128 70.6641C258.581 70.0017 258.307 69.0548 258.307 67.8235C258.307 66.5922 258.581 65.6489 259.128 64.9937C259.682 64.3312 260.477 64 261.513 64ZM261.513 64.8209C260.098 64.8209 259.39 65.8217 259.39 67.8235C259.39 68.8172 259.569 69.566 259.926 70.0701C260.284 70.5741 260.812 70.8261 261.513 70.8261C262.213 70.8261 262.741 70.5741 263.099 70.0701C263.456 69.566 263.635 68.8172 263.635 67.8235C263.635 65.8217 262.927 64.8209 261.513 64.8209Z" fill="black"/>
<path d="M265.395 64.0432H268.185V71.6038H267.134V64.9829H265.395V64.0432Z" fill="black"/>
<path d="M273.327 64C274.356 64 275.147 64.3312 275.701 64.9937C276.255 65.6489 276.533 66.5922 276.533 67.8235C276.533 69.0548 276.255 70.0017 275.701 70.6641C275.147 71.3266 274.356 71.6578 273.327 71.6578C272.292 71.6578 271.497 71.3266 270.943 70.6641C270.396 70.0017 270.122 69.0548 270.122 67.8235C270.122 66.5922 270.396 65.6489 270.943 64.9937C271.497 64.3312 272.292 64 273.327 64ZM273.327 64.8209C271.913 64.8209 271.205 65.8217 271.205 67.8235C271.205 68.8172 271.384 69.566 271.741 70.0701C272.099 70.5741 272.627 70.8261 273.327 70.8261C274.027 70.8261 274.556 70.5741 274.914 70.0701C275.271 69.566 275.45 68.8172 275.45 67.8235C275.45 65.8217 274.742 64.8209 273.327 64.8209Z" fill="black"/>
<path d="M281.104 64C282.133 64 282.924 64.3312 283.478 64.9937C284.032 65.6489 284.309 66.5922 284.309 67.8235C284.309 69.0548 284.032 70.0017 283.478 70.6641C282.924 71.3266 282.133 71.6578 281.104 71.6578C280.069 71.6578 279.274 71.3266 278.72 70.6641C278.173 70.0017 277.899 69.0548 277.899 67.8235C277.899 66.5922 278.173 65.6489 278.72 64.9937C279.274 64.3312 280.069 64 281.104 64ZM281.104 64.8209C279.69 64.8209 278.982 65.8217 278.982 67.8235C278.982 68.8172 279.161 69.566 279.518 70.0701C279.875 70.5741 280.404 70.8261 281.104 70.8261C281.804 70.8261 282.333 70.5741 282.69 70.0701C283.048 69.566 283.226 68.8172 283.226 67.8235C283.226 65.8217 282.519 64.8209 281.104 64.8209Z" fill="black"/>
<path d="M284.987 64.0432H287.776V71.6038H286.726V64.9829H284.987V64.0432Z" fill="black"/>
<path d="M292.919 64C293.947 64 294.739 64.3312 295.293 64.9937C295.847 65.6489 296.124 66.5922 296.124 67.8235C296.124 69.0548 295.847 70.0017 295.293 70.6641C294.739 71.3266 293.947 71.6578 292.919 71.6578C291.884 71.6578 291.089 71.3266 290.534 70.6641C289.988 70.0017 289.714 69.0548 289.714 67.8235C289.714 66.5922 289.988 65.6489 290.534 64.9937C291.089 64.3312 291.884 64 292.919 64ZM292.919 64.8209C291.504 64.8209 290.797 65.8217 290.797 67.8235C290.797 68.8172 290.976 69.566 291.333 70.0701C291.69 70.5741 292.219 70.8261 292.919 70.8261C293.619 70.8261 294.148 70.5741 294.505 70.0701C294.863 69.566 295.041 68.8172 295.041 67.8235C295.041 65.8217 294.334 64.8209 292.919 64.8209Z" fill="black"/>
<path d="M300.696 64C301.724 64 302.516 64.3312 303.07 64.9937C303.624 65.6489 303.901 66.5922 303.901 67.8235C303.901 69.0548 303.624 70.0017 303.07 70.6641C302.516 71.3266 301.724 71.6578 300.696 71.6578C299.661 71.6578 298.866 71.3266 298.311 70.6641C297.764 70.0017 297.491 69.0548 297.491 67.8235C297.491 66.5922 297.764 65.6489 298.311 64.9937C298.866 64.3312 299.661 64 300.696 64ZM300.696 64.8209C299.281 64.8209 298.574 65.8217 298.574 67.8235C298.574 68.8172 298.753 69.566 299.11 70.0701C299.467 70.5741 299.996 70.8261 300.696 70.8261C301.396 70.8261 301.925 70.5741 302.282 70.0701C302.64 69.566 302.818 68.8172 302.818 67.8235C302.818 65.8217 302.111 64.8209 300.696 64.8209Z" fill="black"/>
<path d="M308.473 64C309.501 64 310.292 64.3312 310.847 64.9937C311.401 65.6489 311.678 66.5922 311.678 67.8235C311.678 69.0548 311.401 70.0017 310.847 70.6641C310.292 71.3266 309.501 71.6578 308.473 71.6578C307.437 71.6578 306.642 71.3266 306.088 70.6641C305.541 70.0017 305.268 69.0548 305.268 67.8235C305.268 66.5922 305.541 65.6489 306.088 64.9937C306.642 64.3312 307.437 64 308.473 64ZM308.473 64.8209C307.058 64.8209 306.351 65.8217 306.351 67.8235C306.351 68.8172 306.529 69.566 306.887 70.0701C307.244 70.5741 307.773 70.8261 308.473 70.8261C309.173 70.8261 309.702 70.5741 310.059 70.0701C310.416 69.566 310.595 68.8172 310.595 67.8235C310.595 65.8217 309.888 64.8209 308.473 64.8209Z" fill="black"/>
<path d="M319.113 64C320.141 64 320.932 64.3312 321.486 64.9937C322.041 65.6489 322.318 66.5922 322.318 67.8235C322.318 69.0548 322.041 70.0017 321.486 70.6641C320.932 71.3266 320.141 71.6578 319.113 71.6578C318.077 71.6578 317.282 71.3266 316.728 70.6641C316.181 70.0017 315.908 69.0548 315.908 67.8235C315.908 66.5922 316.181 65.6489 316.728 64.9937C317.282 64.3312 318.077 64 319.113 64ZM319.113 64.8209C317.698 64.8209 316.991 65.8217 316.991 67.8235C316.991 68.8172 317.169 69.566 317.527 70.0701C317.884 70.5741 318.413 70.8261 319.113 70.8261C319.813 70.8261 320.342 70.5741 320.699 70.0701C321.056 69.566 321.235 68.8172 321.235 67.8235C321.235 65.8217 320.528 64.8209 319.113 64.8209Z" fill="black"/>
<path d="M322.995 64.0432H325.785V71.6038H324.735V64.9829H322.995V64.0432Z" fill="black"/>
<path d="M330.928 64C331.956 64 332.747 64.3312 333.301 64.9937C333.856 65.6489 334.133 66.5922 334.133 67.8235C334.133 69.0548 333.856 70.0017 333.301 70.6641C332.747 71.3266 331.956 71.6578 330.928 71.6578C329.892 71.6578 329.097 71.3266 328.543 70.6641C327.996 70.0017 327.723 69.0548 327.723 67.8235C327.723 66.5922 327.996 65.6489 328.543 64.9937C329.097 64.3312 329.892 64 330.928 64ZM330.928 64.8209C329.513 64.8209 328.805 65.8217 328.805 67.8235C328.805 68.8172 328.984 69.566 329.341 70.0701C329.699 70.5741 330.228 70.8261 330.928 70.8261C331.628 70.8261 332.156 70.5741 332.514 70.0701C332.871 69.566 333.05 68.8172 333.05 67.8235C333.05 65.8217 332.342 64.8209 330.928 64.8209Z" fill="black"/>
<path d="M338.705 64C339.733 64 340.524 64.3312 341.078 64.9937C341.632 65.6489 341.91 66.5922 341.91 67.8235C341.91 69.0548 341.632 70.0017 341.078 70.6641C340.524 71.3266 339.733 71.6578 338.705 71.6578C337.669 71.6578 336.874 71.3266 336.32 70.6641C335.773 70.0017 335.499 69.0548 335.499 67.8235C335.499 66.5922 335.773 65.6489 336.32 64.9937C336.874 64.3312 337.669 64 338.705 64ZM338.705 64.8209C337.29 64.8209 336.582 65.8217 336.582 67.8235C336.582 68.8172 336.761 69.566 337.118 70.0701C337.476 70.5741 338.004 70.8261 338.705 70.8261C339.405 70.8261 339.933 70.5741 340.291 70.0701C340.648 69.566 340.827 68.8172 340.827 67.8235C340.827 65.8217 340.119 64.8209 338.705 64.8209Z" fill="black"/>
<path d="M346.481 64C347.51 64 348.301 64.3312 348.855 64.9937C349.409 65.6489 349.686 66.5922 349.686 67.8235C349.686 69.0548 349.409 70.0017 348.855 70.6641C348.301 71.3266 347.51 71.6578 346.481 71.6578C345.446 71.6578 344.651 71.3266 344.097 70.6641C343.55 70.0017 343.276 69.0548 343.276 67.8235C343.276 66.5922 343.55 65.6489 344.097 64.9937C344.651 64.3312 345.446 64 346.481 64ZM346.481 64.8209C345.067 64.8209 344.359 65.8217 344.359 67.8235C344.359 68.8172 344.538 69.566 344.895 70.0701C345.253 70.5741 345.781 70.8261 346.481 70.8261C347.181 70.8261 347.71 70.5741 348.068 70.0701C348.425 69.566 348.604 68.8172 348.604 67.8235C348.604 65.8217 347.896 64.8209 346.481 64.8209Z" fill="black"/>
<path d="M350.364 64.0432H353.153V71.6038H352.103V64.9829H350.364V64.0432Z" fill="black"/>
<path d="M358.296 64C359.325 64 360.116 64.3312 360.67 64.9937C361.224 65.6489 361.501 66.5922 361.501 67.8235C361.501 69.0548 361.224 70.0017 360.67 70.6641C360.116 71.3266 359.325 71.6578 358.296 71.6578C357.261 71.6578 356.466 71.3266 355.912 70.6641C355.365 70.0017 355.091 69.0548 355.091 67.8235C355.091 66.5922 355.365 65.6489 355.912 64.9937C356.466 64.3312 357.261 64 358.296 64ZM358.296 64.8209C356.882 64.8209 356.174 65.8217 356.174 67.8235C356.174 68.8172 356.353 69.566 356.71 70.0701C357.067 70.5741 357.596 70.8261 358.296 70.8261C358.996 70.8261 359.525 70.5741 359.882 70.0701C360.24 69.566 360.418 68.8172 360.418 67.8235C360.418 65.8217 359.711 64.8209 358.296 64.8209Z" fill="black"/>
<path d="M362.179 64.0432H364.968V71.6038H363.918V64.9829H362.179V64.0432Z" fill="black"/>
<path d="M372.974 64C374.002 64 374.794 64.3312 375.348 64.9937C375.902 65.6489 376.179 66.5922 376.179 67.8235C376.179 69.0548 375.902 70.0017 375.348 70.6641C374.794 71.3266 374.002 71.6578 372.974 71.6578C371.939 71.6578 371.144 71.3266 370.589 70.6641C370.042 70.0017 369.769 69.0548 369.769 67.8235C369.769 66.5922 370.042 65.6489 370.589 64.9937C371.144 64.3312 371.939 64 372.974 64ZM372.974 64.8209C371.559 64.8209 370.852 65.8217 370.852 67.8235C370.852 68.8172 371.031 69.566 371.388 70.0701C371.745 70.5741 372.274 70.8261 372.974 70.8261C373.674 70.8261 374.203 70.5741 374.56 70.0701C374.918 69.566 375.096 68.8172 375.096 67.8235C375.096 65.8217 374.389 64.8209 372.974 64.8209Z" fill="black"/>
<path d="M376.857 64.0432H379.646V71.6038H378.596V64.9829H376.857V64.0432Z" fill="black"/>
<path d="M384.789 64C385.817 64 386.608 64.3312 387.163 64.9937C387.717 65.6489 387.994 66.5922 387.994 67.8235C387.994 69.0548 387.717 70.0017 387.163 70.6641C386.608 71.3266 385.817 71.6578 384.789 71.6578C383.753 71.6578 382.958 71.3266 382.404 70.6641C381.857 70.0017 381.584 69.0548 381.584 67.8235C381.584 66.5922 381.857 65.6489 382.404 64.9937C382.958 64.3312 383.753 64 384.789 64ZM384.789 64.8209C383.374 64.8209 382.667 65.8217 382.667 67.8235C382.667 68.8172 382.845 69.566 383.203 70.0701C383.56 70.5741 384.089 70.8261 384.789 70.8261C385.489 70.8261 386.018 70.5741 386.375 70.0701C386.732 69.566 386.911 68.8172 386.911 67.8235C386.911 65.8217 386.204 64.8209 384.789 64.8209Z" fill="black"/>
<path d="M392.566 64C393.594 64 394.385 64.3312 394.94 64.9937C395.494 65.6489 395.771 66.5922 395.771 67.8235C395.771 69.0548 395.494 70.0017 394.94 70.6641C394.385 71.3266 393.594 71.6578 392.566 71.6578C391.53 71.6578 390.735 71.3266 390.181 70.6641C389.634 70.0017 389.361 69.0548 389.361 67.8235C389.361 66.5922 389.634 65.6489 390.181 64.9937C390.735 64.3312 391.53 64 392.566 64ZM392.566 64.8209C391.151 64.8209 390.444 65.8217 390.444 67.8235C390.444 68.8172 390.622 69.566 390.98 70.0701C391.337 70.5741 391.866 70.8261 392.566 70.8261C393.266 70.8261 393.795 70.5741 394.152 70.0701C394.509 69.566 394.688 68.8172 394.688 67.8235C394.688 65.8217 393.981 64.8209 392.566 64.8209Z" fill="black"/>
<path d="M396.448 64.0432H399.238V71.6038H398.188V64.9829H396.448V64.0432Z" fill="black"/>
<path d="M400.486 64.0432H403.276V71.6038H402.226V64.9829H400.486V64.0432Z" fill="black"/>
<path d="M408.419 64C409.447 64 410.238 64.3312 410.792 64.9937C411.347 65.6489 411.624 66.5922 411.624 67.8235C411.624 69.0548 411.347 70.0017 410.792 70.6641C410.238 71.3266 409.447 71.6578 408.419 71.6578C407.383 71.6578 406.588 71.3266 406.034 70.6641C405.487 70.0017 405.214 69.0548 405.214 67.8235C405.214 66.5922 405.487 65.6489 406.034 64.9937C406.588 64.3312 407.383 64 408.419 64ZM408.419 64.8209C407.004 64.8209 406.297 65.8217 406.297 67.8235C406.297 68.8172 406.475 69.566 406.833 70.0701C407.19 70.5741 407.719 70.8261 408.419 70.8261C409.119 70.8261 409.647 70.5741 410.005 70.0701C410.362 69.566 410.541 68.8172 410.541 67.8235C410.541 65.8217 409.833 64.8209 408.419 64.8209Z" fill="black"/>
<path d="M416.196 64C417.224 64 418.015 64.3312 418.569 64.9937C419.124 65.6489 419.401 66.5922 419.401 67.8235C419.401 69.0548 419.124 70.0017 418.569 70.6641C418.015 71.3266 417.224 71.6578 416.196 71.6578C415.16 71.6578 414.365 71.3266 413.811 70.6641C413.264 70.0017 412.99 69.0548 412.99 67.8235C412.99 66.5922 413.264 65.6489 413.811 64.9937C414.365 64.3312 415.16 64 416.196 64ZM416.196 64.8209C414.781 64.8209 414.073 65.8217 414.073 67.8235C414.073 68.8172 414.252 69.566 414.609 70.0701C414.967 70.5741 415.495 70.8261 416.196 70.8261C416.896 70.8261 417.424 70.5741 417.782 70.0701C418.139 69.566 418.318 68.8172 418.318 67.8235C418.318 65.8217 417.61 64.8209 416.196 64.8209Z" fill="black"/>
<path d="M259.205 77.3422C260.233 77.3422 261.025 77.6734 261.579 78.3359C262.133 78.9911 262.41 79.9344 262.41 81.1657C262.41 82.397 262.133 83.3439 261.579 84.0063C261.025 84.6688 260.233 85 259.205 85C258.17 85 257.375 84.6688 256.82 84.0063C256.273 83.3439 256 82.397 256 81.1657C256 79.9344 256.273 78.9911 256.82 78.3359C257.375 77.6734 258.17 77.3422 259.205 77.3422ZM259.205 78.1631C257.79 78.1631 257.083 79.1639 257.083 81.1657C257.083 82.1594 257.262 82.9082 257.619 83.4123C257.976 83.9163 258.505 84.1683 259.205 84.1683C259.905 84.1683 260.434 83.9163 260.791 83.4123C261.149 82.9082 261.327 82.1594 261.327 81.1657C261.327 79.1639 260.62 78.1631 259.205 78.1631Z" fill="black"/>
<path d="M263.088 77.3854H265.877V84.946H264.827V78.3251H263.088V77.3854Z" fill="black"/>
<path d="M271.02 77.3422C272.048 77.3422 272.839 77.6734 273.394 78.3359C273.948 78.9911 274.225 79.9344 274.225 81.1657C274.225 82.397 273.948 83.3439 273.394 84.0063C272.839 84.6688 272.048 85 271.02 85C269.984 85 269.19 84.6688 268.635 84.0063C268.088 83.3439 267.815 82.397 267.815 81.1657C267.815 79.9344 268.088 78.9911 268.635 78.3359C269.19 77.6734 269.984 77.3422 271.02 77.3422ZM271.02 78.1631C269.605 78.1631 268.898 79.1639 268.898 81.1657C268.898 82.1594 269.077 82.9082 269.434 83.4123C269.791 83.9163 270.32 84.1683 271.02 84.1683C271.72 84.1683 272.249 83.9163 272.606 83.4123C272.963 82.9082 273.142 82.1594 273.142 81.1657C273.142 79.1639 272.435 78.1631 271.02 78.1631Z" fill="black"/>
<path d="M274.903 77.3854H277.692V84.946H276.642V78.3251H274.903V77.3854Z" fill="black"/>
<path d="M282.835 77.3422C283.863 77.3422 284.654 77.6734 285.209 78.3359C285.763 78.9911 286.04 79.9344 286.04 81.1657C286.04 82.397 285.763 83.3439 285.209 84.0063C284.654 84.6688 283.863 85 282.835 85C281.799 85 281.004 84.6688 280.45 84.0063C279.903 83.3439 279.63 82.397 279.63 81.1657C279.63 79.9344 279.903 78.9911 280.45 78.3359C281.004 77.6734 281.799 77.3422 282.835 77.3422ZM282.835 78.1631C281.42 78.1631 280.713 79.1639 280.713 81.1657C280.713 82.1594 280.891 82.9082 281.249 83.4123C281.606 83.9163 282.135 84.1683 282.835 84.1683C283.535 84.1683 284.064 83.9163 284.421 83.4123C284.778 82.9082 284.957 82.1594 284.957 81.1657C284.957 79.1639 284.25 78.1631 282.835 78.1631Z" fill="black"/>
<path d="M290.612 77.3422C291.64 77.3422 292.431 77.6734 292.985 78.3359C293.54 78.9911 293.817 79.9344 293.817 81.1657C293.817 82.397 293.54 83.3439 292.985 84.0063C292.431 84.6688 291.64 85 290.612 85C289.576 85 288.781 84.6688 288.227 84.0063C287.68 83.3439 287.407 82.397 287.407 81.1657C287.407 79.9344 287.68 78.9911 288.227 78.3359C288.781 77.6734 289.576 77.3422 290.612 77.3422ZM290.612 78.1631C289.197 78.1631 288.49 79.1639 288.49 81.1657C288.49 82.1594 288.668 82.9082 289.026 83.4123C289.383 83.9163 289.912 84.1683 290.612 84.1683C291.312 84.1683 291.841 83.9163 292.198 83.4123C292.555 82.9082 292.734 82.1594 292.734 81.1657C292.734 79.1639 292.027 78.1631 290.612 78.1631Z" fill="black"/>
<path d="M298.389 77.3422C299.417 77.3422 300.208 77.6734 300.762 78.3359C301.317 78.9911 301.594 79.9344 301.594 81.1657C301.594 82.397 301.317 83.3439 300.762 84.0063C300.208 84.6688 299.417 85 298.389 85C297.353 85 296.558 84.6688 296.004 84.0063C295.457 83.3439 295.184 82.397 295.184 81.1657C295.184 79.9344 295.457 78.9911 296.004 78.3359C296.558 77.6734 297.353 77.3422 298.389 77.3422ZM298.389 78.1631C296.974 78.1631 296.266 79.1639 296.266 81.1657C296.266 82.1594 296.445 82.9082 296.802 83.4123C297.16 83.9163 297.689 84.1683 298.389 84.1683C299.089 84.1683 299.617 83.9163 299.975 83.4123C300.332 82.9082 300.511 82.1594 300.511 81.1657C300.511 79.1639 299.803 78.1631 298.389 78.1631Z" fill="black"/>
<path d="M306.166 77.3422C307.194 77.3422 307.985 77.6734 308.539 78.3359C309.093 78.9911 309.371 79.9344 309.371 81.1657C309.371 82.397 309.093 83.3439 308.539 84.0063C307.985 84.6688 307.194 85 306.166 85C305.13 85 304.335 84.6688 303.781 84.0063C303.234 83.3439 302.96 82.397 302.96 81.1657C302.96 79.9344 303.234 78.9911 303.781 78.3359C304.335 77.6734 305.13 77.3422 306.166 77.3422ZM306.166 78.1631C304.751 78.1631 304.043 79.1639 304.043 81.1657C304.043 82.1594 304.222 82.9082 304.579 83.4123C304.937 83.9163 305.465 84.1683 306.166 84.1683C306.866 84.1683 307.394 83.9163 307.752 83.4123C308.109 82.9082 308.288 82.1594 308.288 81.1657C308.288 79.1639 307.58 78.1631 306.166 78.1631Z" fill="black"/>
<path d="M316.805 77.3422C317.834 77.3422 318.625 77.6734 319.179 78.3359C319.733 78.9911 320.01 79.9344 320.01 81.1657C320.01 82.397 319.733 83.3439 319.179 84.0063C318.625 84.6688 317.834 85 316.805 85C315.77 85 314.975 84.6688 314.421 84.0063C313.874 83.3439 313.6 82.397 313.6 81.1657C313.6 79.9344 313.874 78.9911 314.421 78.3359C314.975 77.6734 315.77 77.3422 316.805 77.3422ZM316.805 78.1631C315.391 78.1631 314.683 79.1639 314.683 81.1657C314.683 82.1594 314.862 82.9082 315.219 83.4123C315.577 83.9163 316.105 84.1683 316.805 84.1683C317.505 84.1683 318.034 83.9163 318.391 83.4123C318.749 82.9082 318.927 82.1594 318.927 81.1657C318.927 79.1639 318.22 78.1631 316.805 78.1631Z" fill="black"/>
<path d="M324.582 77.3422C325.61 77.3422 326.402 77.6734 326.956 78.3359C327.51 78.9911 327.787 79.9344 327.787 81.1657C327.787 82.397 327.51 83.3439 326.956 84.0063C326.402 84.6688 325.61 85 324.582 85C323.547 85 322.752 84.6688 322.198 84.0063C321.651 83.3439 321.377 82.397 321.377 81.1657C321.377 79.9344 321.651 78.9911 322.198 78.3359C322.752 77.6734 323.547 77.3422 324.582 77.3422ZM324.582 78.1631C323.167 78.1631 322.46 79.1639 322.46 81.1657C322.46 82.1594 322.639 82.9082 322.996 83.4123C323.353 83.9163 323.882 84.1683 324.582 84.1683C325.282 84.1683 325.811 83.9163 326.168 83.4123C326.526 82.9082 326.704 82.1594 326.704 81.1657C326.704 79.1639 325.997 78.1631 324.582 78.1631Z" fill="black"/>
<path d="M328.465 77.3854H331.254V84.946H330.204V78.3251H328.465V77.3854Z" fill="black"/>
<path d="M336.397 77.3422C337.425 77.3422 338.217 77.6734 338.771 78.3359C339.325 78.9911 339.602 79.9344 339.602 81.1657C339.602 82.397 339.325 83.3439 338.771 84.0063C338.217 84.6688 337.425 85 336.397 85C335.362 85 334.567 84.6688 334.012 84.0063C333.465 83.3439 333.192 82.397 333.192 81.1657C333.192 79.9344 333.465 78.9911 334.012 78.3359C334.567 77.6734 335.362 77.3422 336.397 77.3422ZM336.397 78.1631C334.982 78.1631 334.275 79.1639 334.275 81.1657C334.275 82.1594 334.454 82.9082 334.811 83.4123C335.168 83.9163 335.697 84.1683 336.397 84.1683C337.097 84.1683 337.626 83.9163 337.983 83.4123C338.341 82.9082 338.519 82.1594 338.519 81.1657C338.519 79.1639 337.812 78.1631 336.397 78.1631Z" fill="black"/>
<path d="M344.174 77.3422C345.202 77.3422 345.993 77.6734 346.548 78.3359C347.102 78.9911 347.379 79.9344 347.379 81.1657C347.379 82.397 347.102 83.3439 346.548 84.0063C345.993 84.6688 345.202 85 344.174 85C343.138 85 342.344 84.6688 341.789 84.0063C341.242 83.3439 340.969 82.397 340.969 81.1657C340.969 79.9344 341.242 78.9911 341.789 78.3359C342.344 77.6734 343.138 77.3422 344.174 77.3422ZM344.174 78.1631C342.759 78.1631 342.052 79.1639 342.052 81.1657C342.052 82.1594 342.23 82.9082 342.588 83.4123C342.945 83.9163 343.474 84.1683 344.174 84.1683C344.874 84.1683 345.403 83.9163 345.76 83.4123C346.117 82.9082 346.296 82.1594 346.296 81.1657C346.296 79.1639 345.589 78.1631 344.174 78.1631Z" fill="black"/>
<path d="M351.951 77.3422C352.979 77.3422 353.77 77.6734 354.325 78.3359C354.879 78.9911 355.156 79.9344 355.156 81.1657C355.156 82.397 354.879 83.3439 354.325 84.0063C353.77 84.6688 352.979 85 351.951 85C350.915 85 350.12 84.6688 349.566 84.0063C349.019 83.3439 348.746 82.397 348.746 81.1657C348.746 79.9344 349.019 78.9911 349.566 78.3359C350.12 77.6734 350.915 77.3422 351.951 77.3422ZM351.951 78.1631C350.536 78.1631 349.829 79.1639 349.829 81.1657C349.829 82.1594 350.007 82.9082 350.365 83.4123C350.722 83.9163 351.251 84.1683 351.951 84.1683C352.651 84.1683 353.18 83.9163 353.537 83.4123C353.894 82.9082 354.073 82.1594 354.073 81.1657C354.073 79.1639 353.366 78.1631 351.951 78.1631Z" fill="black"/>
<path d="M359.728 77.3422C360.756 77.3422 361.547 77.6734 362.101 78.3359C362.656 78.9911 362.933 79.9344 362.933 81.1657C362.933 82.397 362.656 83.3439 362.101 84.0063C361.547 84.6688 360.756 85 359.728 85C358.692 85 357.897 84.6688 357.343 84.0063C356.796 83.3439 356.523 82.397 356.523 81.1657C356.523 79.9344 356.796 78.9911 357.343 78.3359C357.897 77.6734 358.692 77.3422 359.728 77.3422ZM359.728 78.1631C358.313 78.1631 357.606 79.1639 357.606 81.1657C357.606 82.1594 357.784 82.9082 358.142 83.4123C358.499 83.9163 359.028 84.1683 359.728 84.1683C360.428 84.1683 360.957 83.9163 361.314 83.4123C361.671 82.9082 361.85 82.1594 361.85 81.1657C361.85 79.1639 361.142 78.1631 359.728 78.1631Z" fill="black"/>
<path d="M363.61 77.3854H366.4V84.946H365.35V78.3251H363.61V77.3854Z" fill="black"/>
<path d="M374.406 77.3422C375.434 77.3422 376.225 77.6734 376.779 78.3359C377.334 78.9911 377.611 79.9344 377.611 81.1657C377.611 82.397 377.334 83.3439 376.779 84.0063C376.225 84.6688 375.434 85 374.406 85C373.37 85 372.575 84.6688 372.021 84.0063C371.474 83.3439 371.2 82.397 371.2 81.1657C371.2 79.9344 371.474 78.9911 372.021 78.3359C372.575 77.6734 373.37 77.3422 374.406 77.3422ZM374.406 78.1631C372.991 78.1631 372.283 79.1639 372.283 81.1657C372.283 82.1594 372.462 82.9082 372.819 83.4123C373.177 83.9163 373.705 84.1683 374.406 84.1683C375.106 84.1683 375.634 83.9163 375.992 83.4123C376.349 82.9082 376.528 82.1594 376.528 81.1657C376.528 79.1639 375.82 78.1631 374.406 78.1631Z" fill="black"/>
<path d="M382.182 77.3422C383.211 77.3422 384.002 77.6734 384.556 78.3359C385.11 78.9911 385.388 79.9344 385.388 81.1657C385.388 82.397 385.11 83.3439 384.556 84.0063C384.002 84.6688 383.211 85 382.182 85C381.147 85 380.352 84.6688 379.798 84.0063C379.251 83.3439 378.977 82.397 378.977 81.1657C378.977 79.9344 379.251 78.9911 379.798 78.3359C380.352 77.6734 381.147 77.3422 382.182 77.3422ZM382.182 78.1631C380.768 78.1631 380.06 79.1639 380.06 81.1657C380.06 82.1594 380.239 82.9082 380.596 83.4123C380.954 83.9163 381.482 84.1683 382.182 84.1683C382.883 84.1683 383.411 83.9163 383.769 83.4123C384.126 82.9082 384.305 82.1594 384.305 81.1657C384.305 79.1639 383.597 78.1631 382.182 78.1631Z" fill="black"/>
<path d="M386.065 77.3854H388.854V84.946H387.804V78.3251H386.065V77.3854Z" fill="black"/>
<path d="M393.997 77.3422C395.026 77.3422 395.817 77.6734 396.371 78.3359C396.925 78.9911 397.202 79.9344 397.202 81.1657C397.202 82.397 396.925 83.3439 396.371 84.0063C395.817 84.6688 395.026 85 393.997 85C392.962 85 392.167 84.6688 391.613 84.0063C391.066 83.3439 390.792 82.397 390.792 81.1657C390.792 79.9344 391.066 78.9911 391.613 78.3359C392.167 77.6734 392.962 77.3422 393.997 77.3422ZM393.997 78.1631C392.583 78.1631 391.875 79.1639 391.875 81.1657C391.875 82.1594 392.054 82.9082 392.411 83.4123C392.768 83.9163 393.297 84.1683 393.997 84.1683C394.697 84.1683 395.226 83.9163 395.583 83.4123C395.941 82.9082 396.119 82.1594 396.119 81.1657C396.119 79.1639 395.412 78.1631 393.997 78.1631Z" fill="black"/>
<path d="M401.774 77.3422C402.802 77.3422 403.594 77.6734 404.148 78.3359C404.702 78.9911 404.979 79.9344 404.979 81.1657C404.979 82.397 404.702 83.3439 404.148 84.0063C403.594 84.6688 402.802 85 401.774 85C400.739 85 399.944 84.6688 399.389 84.0063C398.843 83.3439 398.569 82.397 398.569 81.1657C398.569 79.9344 398.843 78.9911 399.389 78.3359C399.944 77.6734 400.739 77.3422 401.774 77.3422ZM401.774 78.1631C400.359 78.1631 399.652 79.1639 399.652 81.1657C399.652 82.1594 399.831 82.9082 400.188 83.4123C400.545 83.9163 401.074 84.1683 401.774 84.1683C402.474 84.1683 403.003 83.9163 403.36 83.4123C403.718 82.9082 403.896 82.1594 403.896 81.1657C403.896 79.1639 403.189 78.1631 401.774 78.1631Z" fill="black"/>
<path d="M409.551 77.3422C410.579 77.3422 411.371 77.6734 411.925 78.3359C412.479 78.9911 412.756 79.9344 412.756 81.1657C412.756 82.397 412.479 83.3439 411.925 84.0063C411.371 84.6688 410.579 85 409.551 85C408.515 85 407.721 84.6688 407.166 84.0063C406.619 83.3439 406.346 82.397 406.346 81.1657C406.346 79.9344 406.619 78.9911 407.166 78.3359C407.721 77.6734 408.515 77.3422 409.551 77.3422ZM409.551 78.1631C408.136 78.1631 407.429 79.1639 407.429 81.1657C407.429 82.1594 407.608 82.9082 407.965 83.4123C408.322 83.9163 408.851 84.1683 409.551 84.1683C410.251 84.1683 410.78 83.9163 411.137 83.4123C411.495 82.9082 411.673 82.1594 411.673 81.1657C411.673 79.1639 410.966 78.1631 409.551 78.1631Z" fill="black"/>
<path d="M417.328 77.3422C418.356 77.3422 419.147 77.6734 419.702 78.3359C420.256 78.9911 420.533 79.9344 420.533 81.1657C420.533 82.397 420.256 83.3439 419.702 84.0063C419.147 84.6688 418.356 85 417.328 85C416.292 85 415.497 84.6688 414.943 84.0063C414.396 83.3439 414.123 82.397 414.123 81.1657C414.123 79.9344 414.396 78.9911 414.943 78.3359C415.497 77.6734 416.292 77.3422 417.328 77.3422ZM417.328 78.1631C415.913 78.1631 415.206 79.1639 415.206 81.1657C415.206 82.1594 415.384 82.9082 415.742 83.4123C416.099 83.9163 416.628 84.1683 417.328 84.1683C418.028 84.1683 418.557 83.9163 418.914 83.4123C419.271 82.9082 419.45 82.1594 419.45 81.1657C419.45 79.1639 418.743 78.1631 417.328 78.1631Z" fill="black"/>
<path d="M421.211 77.3854H424V84.946H422.95V78.3251H421.211V77.3854Z" fill="black"/>
<path d="M261.513 102C262.541 102 263.332 102.331 263.886 102.994C264.441 103.649 264.718 104.592 264.718 105.823C264.718 107.055 264.441 108.002 263.886 108.664C263.332 109.327 262.541 109.658 261.513 109.658C260.477 109.658 259.682 109.327 259.128 108.664C258.581 108.002 258.307 107.055 258.307 105.823C258.307 104.592 258.581 103.649 259.128 102.994C259.682 102.331 260.477 102 261.513 102ZM261.513 102.821C260.098 102.821 259.39 103.822 259.39 105.823C259.39 106.817 259.569 107.566 259.926 108.07C260.284 108.574 260.812 108.826 261.513 108.826C262.213 108.826 262.741 108.574 263.099 108.07C263.456 107.566 263.635 106.817 263.635 105.823C263.635 103.822 262.927 102.821 261.513 102.821Z" fill="black"/>
<path d="M265.395 102.043H268.185V109.604H267.134V102.983H265.395V102.043Z" fill="black"/>
<path d="M273.327 102C274.356 102 275.147 102.331 275.701 102.994C276.255 103.649 276.533 104.592 276.533 105.823C276.533 107.055 276.255 108.002 275.701 108.664C275.147 109.327 274.356 109.658 273.327 109.658C272.292 109.658 271.497 109.327 270.943 108.664C270.396 108.002 270.122 107.055 270.122 105.823C270.122 104.592 270.396 103.649 270.943 102.994C271.497 102.331 272.292 102 273.327 102ZM273.327 102.821C271.913 102.821 271.205 103.822 271.205 105.823C271.205 106.817 271.384 107.566 271.741 108.07C272.099 108.574 272.627 108.826 273.327 108.826C274.027 108.826 274.556 108.574 274.914 108.07C275.271 107.566 275.45 106.817 275.45 105.823C275.45 103.822 274.742 102.821 273.327 102.821Z" fill="black"/>
<path d="M281.104 102C282.133 102 282.924 102.331 283.478 102.994C284.032 103.649 284.309 104.592 284.309 105.823C284.309 107.055 284.032 108.002 283.478 108.664C282.924 109.327 282.133 109.658 281.104 109.658C280.069 109.658 279.274 109.327 278.72 108.664C278.173 108.002 277.899 107.055 277.899 105.823C277.899 104.592 278.173 103.649 278.72 102.994C279.274 102.331 280.069 102 281.104 102ZM281.104 102.821C279.69 102.821 278.982 103.822 278.982 105.823C278.982 106.817 279.161 107.566 279.518 108.07C279.875 108.574 280.404 108.826 281.104 108.826C281.804 108.826 282.333 108.574 282.69 108.07C283.048 107.566 283.226 106.817 283.226 105.823C283.226 103.822 282.519 102.821 281.104 102.821Z" fill="black"/>
<path d="M284.987 102.043H287.776V109.604H286.726V102.983H284.987V102.043Z" fill="black"/>
<path d="M292.919 102C293.947 102 294.739 102.331 295.293 102.994C295.847 103.649 296.124 104.592 296.124 105.823C296.124 107.055 295.847 108.002 295.293 108.664C294.739 109.327 293.947 109.658 292.919 109.658C291.884 109.658 291.089 109.327 290.534 108.664C289.988 108.002 289.714 107.055 289.714 105.823C289.714 104.592 289.988 103.649 290.534 102.994C291.089 102.331 291.884 102 292.919 102ZM292.919 102.821C291.504 102.821 290.797 103.822 290.797 105.823C290.797 106.817 290.976 107.566 291.333 108.07C291.69 108.574 292.219 108.826 292.919 108.826C293.619 108.826 294.148 108.574 294.505 108.07C294.863 107.566 295.041 106.817 295.041 105.823C295.041 103.822 294.334 102.821 292.919 102.821Z" fill="black"/>
<path d="M300.696 102C301.724 102 302.516 102.331 303.07 102.994C303.624 103.649 303.901 104.592 303.901 105.823C303.901 107.055 303.624 108.002 303.07 108.664C302.516 109.327 301.724 109.658 300.696 109.658C299.661 109.658 298.866 109.327 298.311 108.664C297.764 108.002 297.491 107.055 297.491 105.823C297.491 104.592 297.764 103.649 298.311 102.994C298.866 102.331 299.661 102 300.696 102ZM300.696 102.821C299.281 102.821 298.574 103.822 298.574 105.823C298.574 106.817 298.753 107.566 299.11 108.07C299.467 108.574 299.996 108.826 300.696 108.826C301.396 108.826 301.925 108.574 302.282 108.07C302.64 107.566 302.818 106.817 302.818 105.823C302.818 103.822 302.111 102.821 300.696 102.821Z" fill="black"/>
<path d="M308.473 102C309.501 102 310.292 102.331 310.847 102.994C311.401 103.649 311.678 104.592 311.678 105.823C311.678 107.055 311.401 108.002 310.847 108.664C310.292 109.327 309.501 109.658 308.473 109.658C307.437 109.658 306.642 109.327 306.088 108.664C305.541 108.002 305.268 107.055 305.268 105.823C305.268 104.592 305.541 103.649 306.088 102.994C306.642 102.331 307.437 102 308.473 102ZM308.473 102.821C307.058 102.821 306.351 103.822 306.351 105.823C306.351 106.817 306.529 107.566 306.887 108.07C307.244 108.574 307.773 108.826 308.473 108.826C309.173 108.826 309.702 108.574 310.059 108.07C310.416 107.566 310.595 106.817 310.595 105.823C310.595 103.822 309.888 102.821 308.473 102.821Z" fill="black"/>
<path d="M319.113 102C320.141 102 320.932 102.331 321.486 102.994C322.041 103.649 322.318 104.592 322.318 105.823C322.318 107.055 322.041 108.002 321.486 108.664C320.932 109.327 320.141 109.658 319.113 109.658C318.077 109.658 317.282 109.327 316.728 108.664C316.181 108.002 315.908 107.055 315.908 105.823C315.908 104.592 316.181 103.649 316.728 102.994C317.282 102.331 318.077 102 319.113 102ZM319.113 102.821C317.698 102.821 316.991 103.822 316.991 105.823C316.991 106.817 317.169 107.566 317.527 108.07C317.884 108.574 318.413 108.826 319.113 108.826C319.813 108.826 320.342 108.574 320.699 108.07C321.056 107.566 321.235 106.817 321.235 105.823C321.235 103.822 320.528 102.821 319.113 102.821Z" fill="black"/>
<path d="M322.995 102.043H325.785V109.604H324.735V102.983H322.995V102.043Z" fill="black"/>
<path d="M330.928 102C331.956 102 332.747 102.331 333.301 102.994C333.856 103.649 334.133 104.592 334.133 105.823C334.133 107.055 333.856 108.002 333.301 108.664C332.747 109.327 331.956 109.658 330.928 109.658C329.892 109.658 329.097 109.327 328.543 108.664C327.996 108.002 327.723 107.055 327.723 105.823C327.723 104.592 327.996 103.649 328.543 102.994C329.097 102.331 329.892 102 330.928 102ZM330.928 102.821C329.513 102.821 328.805 103.822 328.805 105.823C328.805 106.817 328.984 107.566 329.341 108.07C329.699 108.574 330.228 108.826 330.928 108.826C331.628 108.826 332.156 108.574 332.514 108.07C332.871 107.566 333.05 106.817 333.05 105.823C333.05 103.822 332.342 102.821 330.928 102.821Z" fill="black"/>
<path d="M338.705 102C339.733 102 340.524 102.331 341.078 102.994C341.632 103.649 341.91 104.592 341.91 105.823C341.91 107.055 341.632 108.002 341.078 108.664C340.524 109.327 339.733 109.658 338.705 109.658C337.669 109.658 336.874 109.327 336.32 108.664C335.773 108.002 335.499 107.055 335.499 105.823C335.499 104.592 335.773 103.649 336.32 102.994C336.874 102.331 337.669 102 338.705 102ZM338.705 102.821C337.29 102.821 336.582 103.822 336.582 105.823C336.582 106.817 336.761 107.566 337.118 108.07C337.476 108.574 338.004 108.826 338.705 108.826C339.405 108.826 339.933 108.574 340.291 108.07C340.648 107.566 340.827 106.817 340.827 105.823C340.827 103.822 340.119 102.821 338.705 102.821Z" fill="black"/>
<path d="M346.481 102C347.51 102 348.301 102.331 348.855 102.994C349.409 103.649 349.686 104.592 349.686 105.823C349.686 107.055 349.409 108.002 348.855 108.664C348.301 109.327 347.51 109.658 346.481 109.658C345.446 109.658 344.651 109.327 344.097 108.664C343.55 108.002 343.276 107.055 343.276 105.823C343.276 104.592 343.55 103.649 344.097 102.994C344.651 102.331 345.446 102 346.481 102ZM346.481 102.821C345.067 102.821 344.359 103.822 344.359 105.823C344.359 106.817 344.538 107.566 344.895 108.07C345.253 108.574 345.781 108.826 346.481 108.826C347.181 108.826 347.71 108.574 348.068 108.07C348.425 107.566 348.604 106.817 348.604 105.823C348.604 103.822 347.896 102.821 346.481 102.821Z" fill="black"/>
<path d="M350.364 102.043H353.153V109.604H352.103V102.983H350.364V102.043Z" fill="black"/>
<path d="M358.296 102C359.325 102 360.116 102.331 360.67 102.994C361.224 103.649 361.501 104.592 361.501 105.823C361.501 107.055 361.224 108.002 360.67 108.664C360.116 109.327 359.325 109.658 358.296 109.658C357.261 109.658 356.466 109.327 355.912 108.664C355.365 108.002 355.091 107.055 355.091 105.823C355.091 104.592 355.365 103.649 355.912 102.994C356.466 102.331 357.261 102 358.296 102ZM358.296 102.821C356.882 102.821 356.174 103.822 356.174 105.823C356.174 106.817 356.353 107.566 356.71 108.07C357.067 108.574 357.596 108.826 358.296 108.826C358.996 108.826 359.525 108.574 359.882 108.07C360.24 107.566 360.418 106.817 360.418 105.823C360.418 103.822 359.711 102.821 358.296 102.821Z" fill="black"/>
<path d="M362.179 102.043H364.968V109.604H363.918V102.983H362.179V102.043Z" fill="black"/>
<path d="M372.974 102C374.002 102 374.794 102.331 375.348 102.994C375.902 103.649 376.179 104.592 376.179 105.823C376.179 107.055 375.902 108.002 375.348 108.664C374.794 109.327 374.002 109.658 372.974 109.658C371.939 109.658 371.144 109.327 370.589 108.664C370.042 108.002 369.769 107.055 369.769 105.823C369.769 104.592 370.042 103.649 370.589 102.994C371.144 102.331 371.939 102 372.974 102ZM372.974 102.821C371.559 102.821 370.852 103.822 370.852 105.823C370.852 106.817 371.031 107.566 371.388 108.07C371.745 108.574 372.274 108.826 372.974 108.826C373.674 108.826 374.203 108.574 374.56 108.07C374.918 107.566 375.096 106.817 375.096 105.823C375.096 103.822 374.389 102.821 372.974 102.821Z" fill="black"/>
<path d="M376.857 102.043H379.646V109.604H378.596V102.983H376.857V102.043Z" fill="black"/>
<path d="M384.789 102C385.817 102 386.608 102.331 387.163 102.994C387.717 103.649 387.994 104.592 387.994 105.823C387.994 107.055 387.717 108.002 387.163 108.664C386.608 109.327 385.817 109.658 384.789 109.658C383.753 109.658 382.958 109.327 382.404 108.664C381.857 108.002 381.584 107.055 381.584 105.823C381.584 104.592 381.857 103.649 382.404 102.994C382.958 102.331 383.753 102 384.789 102ZM384.789 102.821C383.374 102.821 382.667 103.822 382.667 105.823C382.667 106.817 382.845 107.566 383.203 108.07C383.56 108.574 384.089 108.826 384.789 108.826C385.489 108.826 386.018 108.574 386.375 108.07C386.732 107.566 386.911 106.817 386.911 105.823C386.911 103.822 386.204 102.821 384.789 102.821Z" fill="black"/>
<path d="M392.566 102C393.594 102 394.385 102.331 394.94 102.994C395.494 103.649 395.771 104.592 395.771 105.823C395.771 107.055 395.494 108.002 394.94 108.664C394.385 109.327 393.594 109.658 392.566 109.658C391.53 109.658 390.735 109.327 390.181 108.664C389.634 108.002 389.361 107.055 389.361 105.823C389.361 104.592 389.634 103.649 390.181 102.994C390.735 102.331 391.53 102 392.566 102ZM392.566 102.821C391.151 102.821 390.444 103.822 390.444 105.823C390.444 106.817 390.622 107.566 390.98 108.07C391.337 108.574 391.866 108.826 392.566 108.826C393.266 108.826 393.795 108.574 394.152 108.07C394.509 107.566 394.688 106.817 394.688 105.823C394.688 103.822 393.981 102.821 392.566 102.821Z" fill="black"/>
<path d="M396.448 102.043H399.238V109.604H398.188V102.983H396.448V102.043Z" fill="black"/>
<path d="M400.486 102.043H403.276V109.604H402.226V102.983H400.486V102.043Z" fill="black"/>
<path d="M408.419 102C409.447 102 410.238 102.331 410.792 102.994C411.347 103.649 411.624 104.592 411.624 105.823C411.624 107.055 411.347 108.002 410.792 108.664C410.238 109.327 409.447 109.658 408.419 109.658C407.383 109.658 406.588 109.327 406.034 108.664C405.487 108.002 405.214 107.055 405.214 105.823C405.214 104.592 405.487 103.649 406.034 102.994C406.588 102.331 407.383 102 408.419 102ZM408.419 102.821C407.004 102.821 406.297 103.822 406.297 105.823C406.297 106.817 406.475 107.566 406.833 108.07C407.19 108.574 407.719 108.826 408.419 108.826C409.119 108.826 409.647 108.574 410.005 108.07C410.362 107.566 410.541 106.817 410.541 105.823C410.541 103.822 409.833 102.821 408.419 102.821Z" fill="black"/>
<path d="M416.196 102C417.224 102 418.015 102.331 418.569 102.994C419.124 103.649 419.401 104.592 419.401 105.823C419.401 107.055 419.124 108.002 418.569 108.664C418.015 109.327 417.224 109.658 416.196 109.658C415.16 109.658 414.365 109.327 413.811 108.664C413.264 108.002 412.99 107.055 412.99 105.823C412.99 104.592 413.264 103.649 413.811 102.994C414.365 102.331 415.16 102 416.196 102ZM416.196 102.821C414.781 102.821 414.073 103.822 414.073 105.823C414.073 106.817 414.252 107.566 414.609 108.07C414.967 108.574 415.495 108.826 416.196 108.826C416.896 108.826 417.424 108.574 417.782 108.07C418.139 107.566 418.318 106.817 418.318 105.823C418.318 103.822 417.61 102.821 416.196 102.821Z" fill="black"/>
<path d="M259.205 115.342C260.233 115.342 261.025 115.673 261.579 116.336C262.133 116.991 262.41 117.934 262.41 119.166C262.41 120.397 262.133 121.344 261.579 122.006C261.025 122.669 260.233 123 259.205 123C258.17 123 257.375 122.669 256.82 122.006C256.273 121.344 256 120.397 256 119.166C256 117.934 256.273 116.991 256.82 116.336C257.375 115.673 258.17 115.342 259.205 115.342ZM259.205 116.163C257.79 116.163 257.083 117.164 257.083 119.166C257.083 120.159 257.262 120.908 257.619 121.412C257.976 121.916 258.505 122.168 259.205 122.168C259.905 122.168 260.434 121.916 260.791 121.412C261.149 120.908 261.327 120.159 261.327 119.166C261.327 117.164 260.62 116.163 259.205 116.163Z" fill="black"/>
<path d="M263.088 115.385H265.877V122.946H264.827V116.325H263.088V115.385Z" fill="black"/>
<path d="M271.02 115.342C272.048 115.342 272.839 115.673 273.394 116.336C273.948 116.991 274.225 117.934 274.225 119.166C274.225 120.397 273.948 121.344 273.394 122.006C272.839 122.669 272.048 123 271.02 123C269.984 123 269.19 122.669 268.635 122.006C268.088 121.344 267.815 120.397 267.815 119.166C267.815 117.934 268.088 116.991 268.635 116.336C269.19 115.673 269.984 115.342 271.02 115.342ZM271.02 116.163C269.605 116.163 268.898 117.164 268.898 119.166C268.898 120.159 269.077 120.908 269.434 121.412C269.791 121.916 270.32 122.168 271.02 122.168C271.72 122.168 272.249 121.916 272.606 121.412C272.963 120.908 273.142 120.159 273.142 119.166C273.142 117.164 272.435 116.163 271.02 116.163Z" fill="black"/>
<path d="M274.903 115.385H277.692V122.946H276.642V116.325H274.903V115.385Z" fill="black"/>
<path d="M282.835 115.342C283.863 115.342 284.654 115.673 285.209 116.336C285.763 116.991 286.04 117.934 286.04 119.166C286.04 120.397 285.763 121.344 285.209 122.006C284.654 122.669 283.863 123 282.835 123C281.799 123 281.004 122.669 280.45 122.006C279.903 121.344 279.63 120.397 279.63 119.166C279.63 117.934 279.903 116.991 280.45 116.336C281.004 115.673 281.799 115.342 282.835 115.342ZM282.835 116.163C281.42 116.163 280.713 117.164 280.713 119.166C280.713 120.159 280.891 120.908 281.249 121.412C281.606 121.916 282.135 122.168 282.835 122.168C283.535 122.168 284.064 121.916 284.421 121.412C284.778 120.908 284.957 120.159 284.957 119.166C284.957 117.164 284.25 116.163 282.835 116.163Z" fill="black"/>
<path d="M290.612 115.342C291.64 115.342 292.431 115.673 292.985 116.336C293.54 116.991 293.817 117.934 293.817 119.166C293.817 120.397 293.54 121.344 292.985 122.006C292.431 122.669 291.64 123 290.612 123C289.576 123 288.781 122.669 288.227 122.006C287.68 121.344 287.407 120.397 287.407 119.166C287.407 117.934 287.68 116.991 288.227 116.336C288.781 115.673 289.576 115.342 290.612 115.342ZM290.612 116.163C289.197 116.163 288.49 117.164 288.49 119.166C288.49 120.159 288.668 120.908 289.026 121.412C289.383 121.916 289.912 122.168 290.612 122.168C291.312 122.168 291.841 121.916 292.198 121.412C292.555 120.908 292.734 120.159 292.734 119.166C292.734 117.164 292.027 116.163 290.612 116.163Z" fill="black"/>
<path d="M298.389 115.342C299.417 115.342 300.208 115.673 300.762 116.336C301.317 116.991 301.594 117.934 301.594 119.166C301.594 120.397 301.317 121.344 300.762 122.006C300.208 122.669 299.417 123 298.389 123C297.353 123 296.558 122.669 296.004 122.006C295.457 121.344 295.184 120.397 295.184 119.166C295.184 117.934 295.457 116.991 296.004 116.336C296.558 115.673 297.353 115.342 298.389 115.342ZM298.389 116.163C296.974 116.163 296.266 117.164 296.266 119.166C296.266 120.159 296.445 120.908 296.802 121.412C297.16 121.916 297.689 122.168 298.389 122.168C299.089 122.168 299.617 121.916 299.975 121.412C300.332 120.908 300.511 120.159 300.511 119.166C300.511 117.164 299.803 116.163 298.389 116.163Z" fill="black"/>
<path d="M306.166 115.342C307.194 115.342 307.985 115.673 308.539 116.336C309.093 116.991 309.371 117.934 309.371 119.166C309.371 120.397 309.093 121.344 308.539 122.006C307.985 122.669 307.194 123 306.166 123C305.13 123 304.335 122.669 303.781 122.006C303.234 121.344 302.96 120.397 302.96 119.166C302.96 117.934 303.234 116.991 303.781 116.336C304.335 115.673 305.13 115.342 306.166 115.342ZM306.166 116.163C304.751 116.163 304.043 117.164 304.043 119.166C304.043 120.159 304.222 120.908 304.579 121.412C304.937 121.916 305.465 122.168 306.166 122.168C306.866 122.168 307.394 121.916 307.752 121.412C308.109 120.908 308.288 120.159 308.288 119.166C308.288 117.164 307.58 116.163 306.166 116.163Z" fill="black"/>
<path d="M316.805 115.342C317.834 115.342 318.625 115.673 319.179 116.336C319.733 116.991 320.01 117.934 320.01 119.166C320.01 120.397 319.733 121.344 319.179 122.006C318.625 122.669 317.834 123 316.805 123C315.77 123 314.975 122.669 314.421 122.006C313.874 121.344 313.6 120.397 313.6 119.166C313.6 117.934 313.874 116.991 314.421 116.336C314.975 115.673 315.77 115.342 316.805 115.342ZM316.805 116.163C315.391 116.163 314.683 117.164 314.683 119.166C314.683 120.159 314.862 120.908 315.219 121.412C315.577 121.916 316.105 122.168 316.805 122.168C317.505 122.168 318.034 121.916 318.391 121.412C318.749 120.908 318.927 120.159 318.927 119.166C318.927 117.164 318.22 116.163 316.805 116.163Z" fill="black"/>
<path d="M324.582 115.342C325.61 115.342 326.402 115.673 326.956 116.336C327.51 116.991 327.787 117.934 327.787 119.166C327.787 120.397 327.51 121.344 326.956 122.006C326.402 122.669 325.61 123 324.582 123C323.547 123 322.752 122.669 322.198 122.006C321.651 121.344 321.377 120.397 321.377 119.166C321.377 117.934 321.651 116.991 322.198 116.336C322.752 115.673 323.547 115.342 324.582 115.342ZM324.582 116.163C323.167 116.163 322.46 117.164 322.46 119.166C322.46 120.159 322.639 120.908 322.996 121.412C323.353 121.916 323.882 122.168 324.582 122.168C325.282 122.168 325.811 121.916 326.168 121.412C326.526 120.908 326.704 120.159 326.704 119.166C326.704 117.164 325.997 116.163 324.582 116.163Z" fill="black"/>
<path d="M328.465 115.385H331.254V122.946H330.204V116.325H328.465V115.385Z" fill="black"/>
<path d="M336.397 115.342C337.425 115.342 338.217 115.673 338.771 116.336C339.325 116.991 339.602 117.934 339.602 119.166C339.602 120.397 339.325 121.344 338.771 122.006C338.217 122.669 337.425 123 336.397 123C335.362 123 334.567 122.669 334.012 122.006C333.465 121.344 333.192 120.397 333.192 119.166C333.192 117.934 333.465 116.991 334.012 116.336C334.567 115.673 335.362 115.342 336.397 115.342ZM336.397 116.163C334.982 116.163 334.275 117.164 334.275 119.166C334.275 120.159 334.454 120.908 334.811 121.412C335.168 121.916 335.697 122.168 336.397 122.168C337.097 122.168 337.626 121.916 337.983 121.412C338.341 120.908 338.519 120.159 338.519 119.166C338.519 117.164 337.812 116.163 336.397 116.163Z" fill="black"/>
<path d="M344.174 115.342C345.202 115.342 345.993 115.673 346.548 116.336C347.102 116.991 347.379 117.934 347.379 119.166C347.379 120.397 347.102 121.344 346.548 122.006C345.993 122.669 345.202 123 344.174 123C343.138 123 342.344 122.669 341.789 122.006C341.242 121.344 340.969 120.397 340.969 119.166C340.969 117.934 341.242 116.991 341.789 116.336C342.344 115.673 343.138 115.342 344.174 115.342ZM344.174 116.163C342.759 116.163 342.052 117.164 342.052 119.166C342.052 120.159 342.23 120.908 342.588 121.412C342.945 121.916 343.474 122.168 344.174 122.168C344.874 122.168 345.403 121.916 345.76 121.412C346.117 120.908 346.296 120.159 346.296 119.166C346.296 117.164 345.589 116.163 344.174 116.163Z" fill="black"/>
<path d="M351.951 115.342C352.979 115.342 353.77 115.673 354.325 116.336C354.879 116.991 355.156 117.934 355.156 119.166C355.156 120.397 354.879 121.344 354.325 122.006C353.77 122.669 352.979 123 351.951 123C350.915 123 350.12 122.669 349.566 122.006C349.019 121.344 348.746 120.397 348.746 119.166C348.746 117.934 349.019 116.991 349.566 116.336C350.12 115.673 350.915 115.342 351.951 115.342ZM351.951 116.163C350.536 116.163 349.829 117.164 349.829 119.166C349.829 120.159 350.007 120.908 350.365 121.412C350.722 121.916 351.251 122.168 351.951 122.168C352.651 122.168 353.18 121.916 353.537 121.412C353.894 120.908 354.073 120.159 354.073 119.166C354.073 117.164 353.366 116.163 351.951 116.163Z" fill="black"/>
<path d="M359.728 115.342C360.756 115.342 361.547 115.673 362.101 116.336C362.656 116.991 362.933 117.934 362.933 119.166C362.933 120.397 362.656 121.344 362.101 122.006C361.547 122.669 360.756 123 359.728 123C358.692 123 357.897 122.669 357.343 122.006C356.796 121.344 356.523 120.397 356.523 119.166C356.523 117.934 356.796 116.991 357.343 116.336C357.897 115.673 358.692 115.342 359.728 115.342ZM359.728 116.163C358.313 116.163 357.606 117.164 357.606 119.166C357.606 120.159 357.784 120.908 358.142 121.412C358.499 121.916 359.028 122.168 359.728 122.168C360.428 122.168 360.957 121.916 361.314 121.412C361.671 120.908 361.85 120.159 361.85 119.166C361.85 117.164 361.142 116.163 359.728 116.163Z" fill="black"/>
<path d="M363.61 115.385H366.4V122.946H365.35V116.325H363.61V115.385Z" fill="black"/>
<path d="M374.406 115.342C375.434 115.342 376.225 115.673 376.779 116.336C377.334 116.991 377.611 117.934 377.611 119.166C377.611 120.397 377.334 121.344 376.779 122.006C376.225 122.669 375.434 123 374.406 123C373.37 123 372.575 122.669 372.021 122.006C371.474 121.344 371.2 120.397 371.2 119.166C371.2 117.934 371.474 116.991 372.021 116.336C372.575 115.673 373.37 115.342 374.406 115.342ZM374.406 116.163C372.991 116.163 372.283 117.164 372.283 119.166C372.283 120.159 372.462 120.908 372.819 121.412C373.177 121.916 373.705 122.168 374.406 122.168C375.106 122.168 375.634 121.916 375.992 121.412C376.349 120.908 376.528 120.159 376.528 119.166C376.528 117.164 375.82 116.163 374.406 116.163Z" fill="black"/>
<path d="M382.182 115.342C383.211 115.342 384.002 115.673 384.556 116.336C385.11 116.991 385.388 117.934 385.388 119.166C385.388 120.397 385.11 121.344 384.556 122.006C384.002 122.669 383.211 123 382.182 123C381.147 123 380.352 122.669 379.798 122.006C379.251 121.344 378.977 120.397 378.977 119.166C378.977 117.934 379.251 116.991 379.798 116.336C380.352 115.673 381.147 115.342 382.182 115.342ZM382.182 116.163C380.768 116.163 380.06 117.164 380.06 119.166C380.06 120.159 380.239 120.908 380.596 121.412C380.954 121.916 381.482 122.168 382.182 122.168C382.883 122.168 383.411 121.916 383.769 121.412C384.126 120.908 384.305 120.159 384.305 119.166C384.305 117.164 383.597 116.163 382.182 116.163Z" fill="black"/>
<path d="M386.065 115.385H388.854V122.946H387.804V116.325H386.065V115.385Z" fill="black"/>
<path d="M393.997 115.342C395.026 115.342 395.817 115.673 396.371 116.336C396.925 116.991 397.202 117.934 397.202 119.166C397.202 120.397 396.925 121.344 396.371 122.006C395.817 122.669 395.026 123 393.997 123C392.962 123 392.167 122.669 391.613 122.006C391.066 121.344 390.792 120.397 390.792 119.166C390.792 117.934 391.066 116.991 391.613 116.336C392.167 115.673 392.962 115.342 393.997 115.342ZM393.997 116.163C392.583 116.163 391.875 117.164 391.875 119.166C391.875 120.159 392.054 120.908 392.411 121.412C392.768 121.916 393.297 122.168 393.997 122.168C394.697 122.168 395.226 121.916 395.583 121.412C395.941 120.908 396.119 120.159 396.119 119.166C396.119 117.164 395.412 116.163 393.997 116.163Z" fill="black"/>
<path d="M401.774 115.342C402.802 115.342 403.594 115.673 404.148 116.336C404.702 116.991 404.979 117.934 404.979 119.166C404.979 120.397 404.702 121.344 404.148 122.006C403.594 122.669 402.802 123 401.774 123C400.739 123 399.944 122.669 399.389 122.006C398.843 121.344 398.569 120.397 398.569 119.166C398.569 117.934 398.843 116.991 399.389 116.336C399.944 115.673 400.739 115.342 401.774 115.342ZM401.774 116.163C400.359 116.163 399.652 117.164 399.652 119.166C399.652 120.159 399.831 120.908 400.188 121.412C400.545 121.916 401.074 122.168 401.774 122.168C402.474 122.168 403.003 121.916 403.36 121.412C403.718 120.908 403.896 120.159 403.896 119.166C403.896 117.164 403.189 116.163 401.774 116.163Z" fill="black"/>
<path d="M409.551 115.342C410.579 115.342 411.371 115.673 411.925 116.336C412.479 116.991 412.756 117.934 412.756 119.166C412.756 120.397 412.479 121.344 411.925 122.006C411.371 122.669 410.579 123 409.551 123C408.515 123 407.721 122.669 407.166 122.006C406.619 121.344 406.346 120.397 406.346 119.166C406.346 117.934 406.619 116.991 407.166 116.336C407.721 115.673 408.515 115.342 409.551 115.342ZM409.551 116.163C408.136 116.163 407.429 117.164 407.429 119.166C407.429 120.159 407.608 120.908 407.965 121.412C408.322 121.916 408.851 122.168 409.551 122.168C410.251 122.168 410.78 121.916 411.137 121.412C411.495 120.908 411.673 120.159 411.673 119.166C411.673 117.164 410.966 116.163 409.551 116.163Z" fill="black"/>
<path d="M417.328 115.342C418.356 115.342 419.147 115.673 419.702 116.336C420.256 116.991 420.533 117.934 420.533 119.166C420.533 120.397 420.256 121.344 419.702 122.006C419.147 122.669 418.356 123 417.328 123C416.292 123 415.497 122.669 414.943 122.006C414.396 121.344 414.123 120.397 414.123 119.166C414.123 117.934 414.396 116.991 414.943 116.336C415.497 115.673 416.292 115.342 417.328 115.342ZM417.328 116.163C415.913 116.163 415.206 117.164 415.206 119.166C415.206 120.159 415.384 120.908 415.742 121.412C416.099 121.916 416.628 122.168 417.328 122.168C418.028 122.168 418.557 121.916 418.914 121.412C419.271 120.908 419.45 120.159 419.45 119.166C419.45 117.164 418.743 116.163 417.328 116.163Z" fill="black"/>
<path d="M421.211 115.385H424V122.946H422.95V116.325H421.211V115.385Z" fill="black"/>
</svg>
