<?xml version="1.0" encoding="utf-8"?>
<svg version="1.1" id="Layer_1" xmlns="http://www.w3.org/2000/svg" xmlns:xlink="http://www.w3.org/1999/xlink" x="0px" y="0px"
	 viewBox="0 0 370.6 371.3" style="enable-background:new 0 0 370.6 371.3;" xml:space="preserve">

	 <style>
		path{
			fill:black;
		}
		@media (prefers-color-scheme: dark) {
			path{
				fill:white;
			}
		}
	</style>
<path d="M101.1,167.8c5.7,0,10.8,0,16.3,0c4.4,13.1,8.7,26.1,13.1,39.2c0.2,0,0.3,0,0.5,0c0-12.9,0-25.9,0-39.1c6.1,0,11.8,0,18.6,0
	c-0.6-9.7-0.7-19.1-1.9-28.4c-0.7-5.6-5.2-9.4-9.4-13.1c-17.1-14.9-25.5-33.8-25.1-56.5c0.6-36.2,29.7-66.6,66.5-69.7
	c35.6-3,69.3,22.5,75.7,57.6c5,27.6-3.3,50.7-24.3,69.2c-6.7,5.9-10.4,12.8-10.1,21.9c0.2,6.1,0,12.2,0,18.8c5.9,0,11.7,0,17.8,0
	c0,13.4,0,26.4,0,39.4c0.2,0,0.4,0.1,0.7,0.1c4.4-13.1,8.7-26.1,13.1-39.2c39.3,0,78.5,0,118.1,0c0,4.8,0.2,9.5,0,14.2
	c-0.5,9.7-0.1,19.6-2,29c-5.2,25-20,43.1-42.7,54.5c-4.8,2.4-2.5,6.1-3.1,9.2c-0.6,3,2.1,3,3.7,3.6c26.1,10.1,43.8,35.4,44.1,63.4
	c0.1,9.7,0,19.4,0,29.4c-123.8,0-247.4,0-371.4,0c0.6-19.8-2.6-39.8,6.9-58.5c8.2-16.1,20.5-27.7,37.4-34.3c1.6-0.6,4.1-0.6,3.5-3.4
	c-0.6-3.2,1.8-6.9-2.9-9.3c-29.7-15.5-44.6-40.2-44.9-73.7c-0.1-8,0-15.9,0-24.1c6,0,11.7,0,18,0c0-1.7,0-3.2,0-4.6
	c0-31.7,0-63.4,0.1-95.1c0-2.3,0.6-4.7,1.5-6.7c8.4-17,16.9-33.9,25.3-50.9c3.1-6.4,7.7-10.5,15-10.5c7.3,0,11.9,4.1,15,10.5
	C82.5,27.5,91,44.3,99.3,61.2c1,2.1,1.7,4.7,1.7,7.1c0.1,31.6,0.1,63.2,0.1,94.7C101.1,164.5,101.1,166,101.1,167.8z M161,143.6
	c3.8,0,7.5,0,11.5,0c-1.2-18-2.4-35.7-3.6-53.7c-2.8,0-5.2,0-7.5,0c-10.3-0.1-18.3-7.8-18.4-17.7c-0.1-9.8,7.7-17.9,17.6-18.2
	c10.5-0.3,18.5,7,19.1,17.4c0.1,2.1,0.3,4.2,0.5,6.3c3.3,0,6.2,0,9.5,0c0.2-2.4,0.3-4.6,0.5-6.8c0.7-10.2,9.1-17.5,19.5-17
	c9.6,0.5,17.3,8.6,17.1,18.3c-0.1,9.8-8.1,17.5-18.1,17.6c-2.6,0-5.1,0-7.8,0c-1.2,18.2-2.4,35.8-3.6,53.7c4.1,0,7.7,0,11.7,0
	c1-12.3,8.2-20.6,17-28.4c12-10.7,18.1-24.7,18.7-40.7c1.4-38.6-31.8-67.6-70.1-61.6c-30.9,4.8-53.4,35.5-49.1,66.5
	c2.1,15.3,8.8,27.9,20.5,37.9c6,5.2,10.8,11,13.2,18.7C160,138.5,160.4,141.1,161,143.6z M143,180c0,1.3,0,2.3,0,3.4
	c0,18.3,0,36.7,0,55c0,14.9,10.3,25.1,25.2,25.2c11.1,0,22.2,0,33.3,0c15.2,0,25.3-10.2,25.3-25.4c0-18.2,0-36.4,0-54.7
	c0-1.2-0.1-2.4-0.2-3.6C198.7,180,171,180,143,180z M358.5,359.4c0-6.8,0.2-13.3,0-19.7c-1-22.8-16.9-43.7-38.6-50.7
	c-1.6-0.5-3.7-0.4-5.3,0.2c-6.2,2.3-12.2,4.9-18.3,7.5c-10.6,4.6-19.8,11.1-27.3,19.9c-10.5,12.3-16.5,26.4-17.9,42.8
	c23.9,0,47.6,0,71.6,0c0-12,0-23.7,0-35.5c4.2,0,8,0,12,0c0,12,0,23.6,0,35.5C342.8,359.4,350.4,359.4,358.5,359.4z M59.2,209.8
	c-1.7,0-3.1,0.1-4.4,0c-3.1-0.1-5.8,0.6-7,3.8c-1.2,3.1-0.5,5.8,1.9,8.2c2.5,2.4,5.1,4.8,7.3,7.5c1.1,1.4,2.1,3.4,2.1,5.1
	c0.2,13.5,0.1,27,0.2,40.4c0,1.1,0.5,3,1.3,3.3c7.3,3.3,14.8,6.4,22.4,9.6c0-6.1,0-11.9,0-18.1c-4,0-7.8,0-11.6,0
	c0-4.1,0-7.8,0-11.8c7.1,0,14.1,0.1,21,0c8.5-0.1,14.5-6.2,14.7-14.7c0.1-4.1,0.4-8.3-0.1-12.3c-0.5-4.9,1-7.6,5.7-9.6
	c6.1-2.5,7.5-6.8,5.4-13.2c-2.8-8.4-5.7-16.8-8.3-25.2c-0.7-2.4-1.9-3-4.3-2.9c-14.5,0.1-28.9,0-43.4,0.1c-0.9,0-1.9,0.2-2.9,0.3
	C59.2,190,59.2,199.6,59.2,209.8z M286.9,287.6c7.3-3,14.1-6.1,21-8.8c2.3-0.9,2.9-2.1,2.8-4.4c-0.1-13.5-0.1-27,0-40.4
	c0-1.6,0.9-3.5,2-4.8c2.5-2.9,5.5-5.5,8.1-8.3c2.1-2.2,2.7-5.2,1-7.6c-1.3-1.7-3.8-2.8-5.9-3.6c-1.5-0.5-3.4-0.1-5.4-0.1
	c0-10.3,0-20,0-30c-16,0-31.6,0-47.2,0.1c-0.9,0-2.4,0.9-2.7,1.7c-3.3,9.5-6.6,19.1-9.5,28.7c-1.2,3.8,0.7,7.8,4.3,9.9
	c1.6,1,3.3,1.8,5,2.5c1.8,0.8,2.6,1.9,2.5,4c-0.2,4.7-0.1,9.5-0.1,14.2c0,11.2,5.6,16.7,16.8,16.7c6.3,0,12.6,0,18.8,0
	c0,4.3,0,8.1,0,12.1c-4,0-7.7,0-11.5,0C286.9,275.8,286.9,281.5,286.9,287.6z M131,359.4c35.9,0,71.8,0,107.9,0
	c0.2-1.4,0.4-2.6,0.6-3.8c1-9.8,3.7-19,8-27.9c4.6-9.6,4.7-9.6-3.1-17.2c-5.9-5.8-12.7-10.3-20.8-13.2c-3.8,16.8-7.4,33.2-11.1,49.6
	c-0.4,0.2-0.8,0.4-1.1,0.6c-8.9-8.9-17.8-17.9-27.3-27.4c-8.9,8.9-17.7,17.7-26.7,26.7c-3.7-16.4-7.3-32.8-11-49.3
	c-10.1,3.3-21.9,12.1-27.1,20.4c-0.6,1-0.3,2.9,0.2,4.2c3.1,8.4,6.6,16.6,9.4,25.1C130.2,351,130.3,355.2,131,359.4z M47.1,359.3
	c24.2,0,47.8,0,71.6,0c-1.5-16.7-7.7-31-18.9-43.8c-2.9,5.8-5.6,11-8.3,16.4c-1.8-1-3.3-1.8-4.7-2.7c-9.9-6-19.8-12-29.8-17.8
	c-2.2-1.3-3.4-2.8-4-5.4c-1.2-5.5-2.7-11-4.3-17.1c-4.6,2.6-8.8,4.5-12.6,7.1c-22.3,15.6-27,38.1-24.5,63.4c7.8,0,15.5,0,23.7,0
	c0-12,0-23.8,0-35.5c4.1,0,7.8,0,11.8,0C47.1,335.7,47.1,347.4,47.1,359.3z M158.5,275.2c-4.1-2.1-8.3-3.6-11.8-6
	c-10.1-6.9-15.4-16.8-15.6-29.1c-0.2-7.6,0-15.2,0-22.4c-2,3.1-3.4,7.4-6.3,9.3c-6,3.8-6.2,8.8-5.7,14.6c0.1,0.7,0,1.5,0,2.2
	c-0.3,12.5-8.9,22.7-21.1,25.2c-0.9,0.2-1.8,0.5-2.8,0.8c0,8,0,15.7,0.1,23.4c0,1,0.5,2.2,1.2,2.8c4.7,4.3,9.4,8.5,14.3,12.8
	c0.5-0.6,1.1-1.3,1.8-2c10.3-11.8,23-20,38.3-23.3C156,282.3,158.1,279.9,158.5,275.2z M259.2,308.8c5-4.4,9.8-8.6,14.6-13
	c0.5-0.4,0.9-1.3,0.9-1.9c0.1-8.1,0-16.1,0-24.3c-1-0.3-1.7-0.5-2.5-0.6c-11.6-2.3-19.9-11-21.3-22.6c-0.5-4.1-0.2-8.2-0.4-12.3
	c-0.1-1.1-0.3-2.8-1.1-3.2c-5.3-3.2-8.5-7.9-10.5-13.7c-0.2,7.5-0.2,14.8-0.2,22.2c-0.1,16.1-9.8,29.3-25,34.5
	c-0.9,0.3-1.8,0.7-2.5,1c0.4,5.2,2.5,8,7.9,8.6c4.1,0.5,8.1,2.3,12,3.9C242.5,292,251.7,299.5,259.2,308.8z M29.5,72.1
	c0,32,0,63.7,0,95.4c8,0,15.8,0,23.5,0c0-31.9,0-63.6,0-95.4C45.1,72.1,37.4,72.1,29.5,72.1z M88.8,167.7c0-32.1,0-63.8,0-95.5
	c-8,0-15.6,0-23.5,0c0,31.9,0,63.6,0,95.5C73.2,167.7,80.9,167.7,88.8,167.7z M322.7,253.1c22-5.9,40.7-44.5,35.5-73.1
	c-11.7,0-23.5,0-35.5,0c0,5.5,0.1,10.7,0,15.9c0,2,0.5,3,2.4,4c10.6,5.8,13,19.6,5.1,28.8c-1.8,2.1-3.9,3.9-5.7,5.9
	c-0.8,0.9-1.6,2.1-1.6,3.1C322.6,242.9,322.7,248,322.7,253.1z M11.4,180c-1.3,25.2,2.6,40.6,13.8,55.2c5.9,7.6,13,13.8,22,18.5
	c0-3.3-0.3-6,0.1-8.6c0.9-6.4-1.4-10.8-6.1-15.2c-9.8-9.2-7.5-23.5,4.1-30.3c0.8-0.4,1.8-1.3,1.9-1.9c0.1-5.9,0.1-11.8,0.1-17.7
	C34.9,180,23.3,180,11.4,180z M85.1,59.8c-0.6-1.3-1-2.3-1.4-3.3c-6.7-13.4-13.3-26.8-20.1-40c-0.9-1.7-2.9-3.8-4.6-4
	c-1.3-0.1-3.3,2.2-4.2,3.9c-6.8,13.3-13.4,26.7-20.1,40.1c-0.5,1-1,2.1-1.5,3.3C50.7,59.8,67.7,59.8,85.1,59.8z M185,303
	c4.1-4.1,7.5-8.3,11.7-11.6c4.8-3.8,5.5-7.7,2.9-13c-1-1.9-1.7-2.9-4-2.8c-5.6,0.2-11.2,0.1-16.8,0.1c-7.6,0-7.7,0-10,7.3
	c-0.4,1.2-0.6,3.3,0.1,4C174.1,292.3,179.5,297.5,185,303z M208.7,156.1c-16.1,0-31.8,0-47.4,0c0,4.1,0,7.8,0,11.5
	c16,0,31.6,0,47.4,0C208.7,163.7,208.7,160.1,208.7,156.1z M90.7,307c-8.5-7.1-18.3-11-28.4-14.9c0.4,6.1,2.1,10.7,7.9,13.4
	c5.7,2.6,10.8,6.3,16.4,9.6C88.1,312.1,89.4,309.6,90.7,307z M181,90.1c1.2,17.8,2.4,35.3,3.5,52.8c0.3,0,0.6,0,0.9,0
	c1.2-17.5,2.3-35.1,3.5-52.8C186.1,90.1,183.8,90.1,181,90.1z M164.2,322.7c4-4,7.7-7.7,10.6-10.6c-5.5-5.5-11.3-11.3-16.7-16.7
	C160.1,304,162.2,313.3,164.2,322.7z M211.8,294.9c-5.8,5.7-11.6,11.5-16.6,16.4c3.4,3.3,7.1,7.1,10.6,10.6
	C207.7,313.2,209.8,303.9,211.8,294.9z M168.1,78c-0.2-2.5-0.1-4.7-0.5-6.9c-0.5-3.4-3.6-5.5-7.2-5c-3.2,0.4-5.5,3-5.4,6.1
	c0.1,3.2,2.5,5.6,6.1,5.8C163.3,78,165.5,78,168.1,78z M201.8,78c2.3,0,4.4,0.1,6.5,0c3.9-0.1,6.4-2.4,6.6-5.7
	c0.1-3.2-2.3-5.9-5.7-6.2c-3.8-0.3-6.6,1.9-7,5.7C202,73.6,201.9,75.6,201.8,78z"/>
<path d="M310.7,107.8c-4.1,0-7.8,0-12,0c0-8.6-0.1-17,0.1-25.4c0-1.1,1.3-2.3,2.2-3.1c6.3-5.1,12.7-10.1,18.9-15.2
	c7.9-6.4,10.6-16,7.3-25.2c-3.2-9-11.4-14.3-21.3-14.9c-12.2-0.7-24.9,6.7-25.5,23.8c-3.8,0-7.6,0-11.4,0
	c-1.7-12.4,6.7-26.7,19.5-32.5c18.9-8.4,44.3-1.6,50.7,22.3c3.5,13,0,24.5-9.8,33.7c-5,4.7-10.5,8.8-15.9,13
	c-2.2,1.7-3.2,3.4-3.1,6.2C310.9,96.2,310.7,101.8,310.7,107.8z"/>
<path d="M322.7,137.8c0,9.9-8.1,18.1-18,18.1c-9.8,0-17.8-8.1-17.9-17.9c0-9.9,8.1-18.1,18-18.1C314.6,120,322.6,128,322.7,137.8z
	 M304.7,143.8c3.2,0,6-2.7,6-5.9c0-3.2-2.7-6-5.9-6c-3.2,0-6,2.7-6,5.9C298.8,141.1,301.5,143.8,304.7,143.8z"/>
<path d="M167.1,239.6c0-4.1,0-7.8,0-11.9c7.3,0,14.5,0,21.7,0c5.3,0,6.4-0.8,8.3-5.8c3.8,0,7.6,0,11.4,0c0.5,8.8-6.7,17.1-15.8,17.6
	C184.3,240,175.9,239.6,167.1,239.6z"/>
</svg>
