<?xml version="1.0" encoding="utf-8"?>
<!-- Generator: Adobe Illustrator 27.1.1, SVG Export Plug-In . SVG Version: 6.00 Build 0)  -->
<svg version="1.1" id="Layer_1" xmlns="http://www.w3.org/2000/svg" xmlns:xlink="http://www.w3.org/1999/xlink" x="0px" y="0px"
	 viewBox="0 0 2011 1833" style="enable-background:new 0 0 2011 1833;" xml:space="preserve">
<style type="text/css">
	.st0{fill-rule:evenodd;clip-rule:evenodd;fill:#FFDBB4;}
	.st1{fill-rule:evenodd;clip-rule:evenodd;fill:#74B5EC;}
	.st2{fill-rule:evenodd;clip-rule:evenodd;fill:#191919;}
	.st3{fill-rule:evenodd;clip-rule:evenodd;}
</style>
<g id="Artboard-Copy">
	<g id="a-person_x2F_bust" transform="translate(708.000000, 297.999779)">
		<g id="BODY" transform="translate(-0.000000, 481.000221)">
			<path id="_x270B_-Skin" class="st0" d="M191.6,754c-60.2-1.3-115,2.3-172.9-9.4l-0.1-2c-12.4-0.4-8.3-12-5.8-20.1
				c-233.9-10.4-81.3-580.5,80.8-618.8c7.9-1.4,16.6-2.1,25.3-2.2c11.3-3.4,22.4-4.1,34.2-7.2c1.1-4.1,1.3-6.5,6.3-5.3
				c18-17.2,50.3-33,61.2,0.5c14.4-19.9,22.6-43.3,28.6-66.9l1,0.2c2.5-6.3,6.7-14.2,11.8-15.5c7.9-2.6,22.8-2,31.4-3.1
				C312,3,333.7-0.2,351.5,4.1c44.7,10.9,25.3,63.7,61.5,98c16.6-6.9,42.7-5,58.6,3.2c10.3,8.2,5.1,17.5,3.3,26.1
				c114.4-10.3,144.8,122.3,168.4,209.8c9.5,29.1,18.9,48.8,35,71.3c20.9,26.3,32.7,60.6,11.2,88.3c30.6,61.1-2.6,118.6-37.8,164.8
				c-6.9,7.4-18.1,28-28.2,29.4c-2.7,2.5-7.1,5.6-10.2,7.8l3.7,4.9c0.4,4.5,0.5,9.4,3.6,13.4c3,2.9,6.1,5.9,6.2,10.2
				c-4.7,5.5-10.8-0.6-15.3-3.4c-1.7,3.4-1.5,11.4-7,11.1C467.9,748.3,328,754.4,191.6,754"/>
			<path id="_xD83D__xDC55_-Top" class="st1" d="M220.6,89.6c3.8-5.3,7.2-10.8,10.2-16.5l-5.5,17.5l1,0.8
				c34,26.4,68.8,38.3,104.6,35.7c35-2.6,64.5-5.6,88.5-9.2l2.2-0.3l0-18.2c16.1-3.5,36.7-1.1,50.1,5.8c8.8,7.1,6.2,14.9,4.2,22.5
				l-0.1,0.6l-0.1,0.6c-0.2,0.8-0.4,1.7-0.6,2.5c114.4-10.3,144.8,122.3,168.4,209.8c9.5,29.1,18.9,48.8,35,71.3
				c20.9,26.3,32.7,60.6,11.2,88.3c30.6,61.1-2.6,118.6-37.8,164.8c-6.9,7.4-18.1,28-28.2,29.4c-2.7,2.5-7.1,5.6-10.2,7.8l3.7,4.9
				c0,0.4,0.1,0.8,0.1,1.2l0.1,0.8c0.3,3.9,0.8,7.9,3.4,11.3c3,2.9,6.1,5.9,6.2,10.2c-4.7,5.5-10.8-0.6-15.3-3.4
				c-0.6,1.2-1,3-1.4,4.8L610,733c-0.8,3.1-2,6-5.4,5.8C467.9,748.3,328,754.4,191.6,754c-60.2-1.3-115,2.3-172.9-9.4l-0.1-2
				c-11.2-0.3-9-9.8-6.6-17.6l0.2-0.5l0.2-0.5c0.2-0.5,0.3-1,0.5-1.5c-233.9-10.4-81.3-580.5,80.8-618.8c7.9-1.4,16.6-2.1,25.3-2.2
				c11.3-3.4,22.4-4.1,34.2-7.2c1.1-4.1,1.3-6.5,6.3-5.3C177.4,71.9,209.7,56.1,220.6,89.6z M176.2,482.1
				c-16.2-9.7-35-11.4-56.5-4.9l-16.5,1.9c-29.8,11.7-50.7,23.4-62.7,35.2c-18,17.6-30.8,68.3-24.8,68.3c3.7,0,15.7-6.9,36-20.8
				l4-2.7l-1.5,19.2c-5.4,23-5.5,34.5-0.5,34.5c4.8,0,15.3-6.8,31.2-20.4l2.1-1.8c5.4,14.8,13.7,22.2,25,22.2
				c11.3,0,33.7-25.5,67.3-76.5l49.3-16.1C209.9,504.6,192.4,491.9,176.2,482.1z M499.8,481.1l15,68.2l37.2-1.9l-10.3-42.4
				L505.6,482L499.8,481.1z"/>
			<path id="_xD83D__xDD8D_-Ink" class="st2" d="M246.5,22.9c10.9,14.1-6.8,57.4-15,72.4c55.7,23.3,117.9,33.4,177.4,20.2
				c-15.5-14.8-32.5-62-19.8-78.6l0.6,3c4.3,22,9.6,44.8,25.4,61.6c22.4-6,77-5.4,68,30c138.5,0.3,139.6,167.9,185.8,261.4
				c22.2,35.7,56.5,72.3,27.7,115.3c5.6,13.5,9.6,27.9,11,42.5c4.5,47.6-24.6,88.3-50.8,125.2c-9.2,10.1-17,27.1-30.4,31.5
				c-1.4,1.2-2.8,2.3-4.3,3.4c2.7,3.9,0.5,10.1,3.6,13.5l1.2,1.2c2,2,4.9,5,5.4,7.7l0.3,2.3c0.1,0.9,0.1,0.9,0.1-0.1l0-0.3
				c0-0.4,0-0.4,0.2,0.1l0.1,0.2c1.4,4-1.6,8.7-5.6,9.7c-12.1,6.5-24.9-12.4-20.8-25.1c-66.9,28.8-205.7-23.3-272.9-49.2
				c-12.8-5.2-25-11.8-38-16.6l-1-0.5c-15-7.4-29.9-18.1-47.5-13.8c-73.9,31.7-142.7,84.4-224.6,94.8c12.8,24.5-24.9,27.8-17.3,0.4
				c-223-28.9-84-508.2,34.4-600.8c37.7-35.9,63.1-27.7,108.9-38.1c1.1-3.9,4.9-7.1,9-6.5c16.3-15.5,50-30.6,63.9-5.4
				c8.5-13.3,14.4-28.1,18.6-43.3C241.8,34.7,242.3,27.8,246.5,22.9z M159.2,741.2c-11.9-9.4,6.2-24.3,16.5-18.3
				c3.2,3.9-7.8,0-6.4,8.6C171.2,737.3,165.2,744.9,159.2,741.2z M401.9,729.5c-8.5-15.9-1-23,11.7-10.6
				C425.2,727.6,409.6,741.9,401.9,729.5z M284,728c-11.9-6.4-14.9-35.7,4.5-21.6C305.7,712.6,301,734.5,284,728z M150.2,104.4
				c-23.9,6.6-50.5,3.8-72.4,17.4C24.4,155.5-6.4,213.6-29.6,270.6l-0.7,1.7c-47,115.7-84.6,250.2-45.1,373.1
				c20,55.9,69.1,79.9,125.1,60.5c140.4-45.5,257.8-154.8,407.1-173.5c2.1-17.3-2.7-34.3-8.8-50.5c-91.6,3.8-179.4,33.5-267.2,57.3
				c-5.1,22.4-30.7,48.5-46,65.9c-13.8,18.5-48,24.1-52.2-4.4l-0.7,0.8c-11.3,12.7-36,34.6-43.6,7.3c-1.7-14.3,7.5-26.7,12-39.7
				l-0.5,0.4c-8.3,6.2-42.9,35.7-45.3,16.1c0.2-18.5,6-36.6,16.6-51.8c10.7-14,23.7-27.1,38-37.4c0.8-4.4,2.1-8.6,3.1-12.9
				c-1.6-16.3,4.9-31.6,6.5-47.5c3.9-15,4.7-43,15.6-53.5c8.3,8.9,0.1,42.6-0.3,55.6c-3,15.7-1.7,31.8-7.4,47
				c16.1-8.8,33.5-13.2,50.9-14c1.8-34.3,50.3-22.3,72.8-19.7c34.3-12.2,178.5-7.9,202.3,17.7c11.9-1.4,23.3-2.5,35.3-3.3
				c14-8.9,52.8-5.3,58.8,12.3c15.6,4.6,29.2,12.5,42.9,21.5c4.2-69.9-14.3-138.7-9.8-208.7c0.4-4.1,2.3-7.6,2.2-11.7
				c0-0.5,0.7-0.5,0.8,0c6.7,20.4,8,42.2,11.8,63.4c5,37,13.8,73.5,16.7,110.7c1.3,31.3-3.8,64.7,8.7,94.3
				c1.8,4.2-1.2,11.1-5.2,12.9c-34.2,14.3-73.9,4-105.1-13.5c-66.5,21.3-131.5,46.6-192.8,80.3c11.8,3.1,22.4,10,33.1,15.7
				c15.2,5.3,30.3,10.8,45.5,16.1c75.1,22.7,153.7,53.2,233.1,48.6c24.4-4.2,35.4-14.6,49.8-33.3l2.4-3.1
				c25.9-33.5,55.4-68.9,59.8-112.3c1-14.1-0.4-28.1-1.2-42.1c-3.5,3.6-7.2,6.9-10.8,10.3c-5,4.8-11.4-1.2-9-6.9
				c5.3-16.1,14.7-31.4,16.4-48.5c0.3-16.1-10.3-30.4-19.6-42.6c-72.4-89.1-40.8-276.2-184.2-294.4c-61.2,128.7-269.8,75.2-330-27.3
				L150.2,104.4L150.2,104.4z M-10.5,646.8c0.6-17.5,28.5,5.3,25.9,14.9c-1.6,13.2-17.6,7-21.2-1.9C-8,655.7-9.9,651.4-10.5,646.8z
				 M542.3,628.7c4-7.3,28,13.8,15.6,20.7c-8.4,4.4-11.6-6-13.5-12.2C543.4,634.6,541.5,631.6,542.3,628.7z M132.3,638.4
				c-15.1-9,18-21,19.2-6.4C152,641.9,138.6,641.3,132.3,638.4z M412.9,599.8c7.6-10.1,7.8,25.7,3.3,28.1c-2.1,3.3-6.7,2.5-8-1
				C405,617.7,409.8,608.4,412.9,599.8z M54.1,606.1l-0.2,0.6c-0.8,3.3,1.1-1,0.4-0.4C54.2,606.2,54.1,606.1,54.1,606.1z M218,520.4
				c-34.5-39.3-96.9-49.1-143.4-25.8c-6.9,2-12.9,7.6-19.1,11.3c1.6-0.6,3.1-1,4.7-1.4c-20.5,17.4-37.9,41.3-41,68.4
				c18.6-11.5,35-26,48-44c4.2-7.4,16.5-2.3,13.9,5.8c-8.4,23-21.2,45.3-26.6,69.1c20.1-14.5,34.9-36,43.3-59.2
				c3.5-10,19.1-5.9,16,4.4c-4.1,13.7-8.5,27.3-12.4,41l-1.1,3.7c-1.3,4.7-2.1,9.1,3.5,10.4c18.1,1.2,42.4-38.8,53.1-52.4
				c5.3-6.4,10-20.4,20-18.4C189.3,525.2,204.3,524.3,218,520.4z M616.3,583.3c2.1-1.8,4.6-3,7.3-2.1l0.3,0.1
				c8.3,2.9,1.9,14.2-5.2,10.2c-2.4-1.8-5-3.3-7.9-4.3C609.1,585.4,615.3,584.6,616.3,583.3z M230.9,550.2c2.4-11.4,25,4.1,17,12.2
				C240.2,568.2,231.5,557.5,230.9,550.2z M-41.1,551.8c21.2-13.8,23.7,19.6-7.6,9.9C-51.3,557.8-43.7,554-41.1,551.8z M501.4,483.1
				c11.6,13.9,16.2,32,18.2,49.6c0.5,3.5,1.3,7.3,1.1,10.8c7.9,1.2,16,1.5,23.8-0.1c-1.9-6.9-3.1-13.9-3.8-21.1
				C530.3,506.7,518.3,492.1,501.4,483.1z M470.5,527.1c0,1.9,0,3.8-0.2,5.7c10.2,1.2,20.3,3.8,30.4,6.3l-0.1-3c0-1,0-2-0.1-3.1
				C490.7,535.7,478.5,533,470.5,527.1z M497.1,503.6c-11.4-4.6-21.9-7.5-34.2-6.8c3.6,7.8,6.3,16,7.2,24.4c5,1.4,10.7,1.8,15.5,1.6
				c4.9-0.3,9.4-2.6,14.1-2.7C499.2,514.6,498.5,509.1,497.1,503.6z M388.3,507.5c7.2-2.9,17.9,5.1,10,11.3
				c-5.8,3.9-13.7-1.3-18.4-4.9C377.3,511,386.1,508.1,388.3,507.5z M244.9,480.9c-3.1,9.6-23.8,5.4-33.2,10.6l0.8,0.5
				c9.1,5.3,18.9,12.8,20.6,22.4c12-4.7,24.1-9.1,36.3-13.3C262.2,493,253.9,486.3,244.9,480.9z M385,471.5
				c-54.3-19.5-113.4-18.9-170.3-17.1l1.5,0.5c24.5,7.4,53.3,19,66.1,41.9C315.7,485.8,350,476.8,385,471.5z M490.6,486.8
				c-8.3-14.8-24.6-21.4-40.5-20.3l-2.5,0.4l0,0c1.7,0.6,3.4,1.5,4.8,2.7c2.6,2.2,2.6,7,0.3,9.3c2.9,4.3,5.7,8.9,8.1,13.5
				C469.6,486.4,480.1,485.6,490.6,486.8z M637.2,487.2c-19,11.1-32.7-41-8.8-29.8l1.7,1.8C637.1,466.6,647.8,479.3,637.2,487.2z
				 M191.8,462.7c-6.1,4.9-13.1,8.5-19.3,13.4c10.1,2.6,20,6,29.4,10.4c7.7-6.6,16.9-10.7,26.6-13.7
				C216.9,468,204.3,464.8,191.8,462.7z M-56.9,463.8l0.1-0.2c2.9-8.3,20.7-20.5,29.5-17.3c0.4,0,0.8,0.4,0.8,0.8l0.1,1
				c0.5,3.6,0.8,7.2-1.6,10.4c-4.3,6.9-8.4,15.5-16.6,18.2C-52.8,479.3-59.8,471.6-56.9,463.8L-56.9,463.8z M171.6,460.4l-2.7-0.1
				c-12.4-0.7-30.4-1.8-36.5,10.6c10.5-0.1,21.2,1.1,31.8,3.3C165.8,469.4,168.4,464.6,171.6,460.4z M239.6,407.6
				c-1.9-3.6,5.1,0.3,6.8-0.2c3,0.2,5.8,0.8,7.5,3.5c2.7,4.4-2.6,9.1-6.8,6.8C243,415.5,243.9,409.7,239.6,407.6z M478.1,387.4
				l0.3,0c4.2-0.5,22.2-4.6,22.1-0.1l-0.3,0.5c-5.7,8.1-13,23.9-24.5,18.3C468.2,401.8,469.7,389.2,478.1,387.4z M352.9,386.7
				c3.3-6.1,10.4,8.1,12.5,10.6c3,6.7-5.7,12-10,5.8C352.8,398.4,351.6,392.1,352.9,386.7z M41.5,372.7c4.8-2.4,16.8-2.6,13.5,5.5
				c-6.4,8.5-18.2,4.4-25.4-1.1C25.9,372.9,39.2,374.6,41.5,372.7z M157.4,341.1c-0.4-6.1,6.4-8.3,11-6.3c8.2,3.6,14.5,16.7,12,25.1
				c-2.1,8.4-14.8,10.3-18.9,2.5C159.1,355.2,158.8,348.3,157.4,341.1z M579.6,352.5c9.4-2,19.3-8.3,29-6.5c3,1.1,4.1,4.6,1.9,7.1
				C609.1,358.7,574.3,357.4,579.6,352.5z M307.4,330.5c4-7.3,13.2-15,22-14.4c5.4-0.2,7.5,7.6,2.8,10.2l-0.2,0.1
				C329,327.7,306.3,333.5,307.4,330.5z M432.5,318.8c-13.6-1.9-13.5-34.6-5.4-28.2c2.8,8,9.7,12.8,13.7,19.9
				C442.9,315.4,437,320.2,432.5,318.8z M20.9,311.6c5.8,0.9,35.7-17.3,30.2-2.8c-3.6,4.1-8.1,4.2-13.1,4.6l-0.1,0
				C35.2,313.2,16.3,315.5,20.9,311.6z M227.8,282c-6-0.7-27.8-46.2-17.1-43.3l1.6,1.1c11.8,7.8,24.8,17.7,30.1,31
				C244.4,278.7,235.2,287.1,227.8,282z M361.7,263.3c0.9-0.4,1.6,0.8,0.8,1.3c-3.7,2-7.7,6.1-10,9.6c-8,10-17.4-7.6-5.1-9
				C351.7,265.6,357.6,265.1,361.7,263.3z M107.7,208.2c11-2.8,16.4,11.7,7.5,17.7c-4.5,3.8-46.3,15.8-48.8,11
				C71.7,228.4,97.9,211.2,107.7,208.2z M522.5,210.3c30.6-2.5,31.4-8.1,9.8,16.8C519.6,238.3,506.7,215.4,522.5,210.3z
				 M379.4,135.7c-10.6,0.9-21.2,1.2-31.9,0.8c1.6,3.5,0.2,8.6-4.4,7.9c-2.2,14.2-3.2,28.6-5.9,42.7c-0.7,3.3-1.8,6.5-2.7,9.7
				c20.2,1.5,40.8,0.7,60.5-4.4C387.6,174.2,384.4,154.8,379.4,135.7z M293.9,129.7c-0.1,1.5-0.5,3-1.2,4.2
				c-9.2,15.9-17.2,32.4-26.9,47.9c20.9,7.7,42.8,12.8,65,14.8c-3.3-20.2-0.4-40.8-1.1-61.2C317.7,134.3,305.7,132.4,293.9,129.7z
				 M428,127.4c-10.6,2.9-21.4,5-32.2,6.5c0,1.7-0.9,3.3-2.5,3.9c2.4,17.7,7.1,35.2,7.1,53.2c22.6-5.5,40.5-21,55.4-38.3l-3.4-2.5
				C443.5,143.7,434.4,136.6,428,127.4z M219.4,87.3c-13.1-8.1-31.3-4.6-42,5.9c-4.7,4.2-8.8,9.9-14.2,13.2c-0.7,0.4-1.4,0.7-2,0.9
				c3.7,7,9.3,13.7,14.1,19.5c25.6,22.4,54.4,41.1,86.1,53.5c1.3-19,7.9-37.5,15.4-54.9c-7-2.1-13.9-4.5-20.7-7.3
				c-0.9,4.6-5.1,8.1-7.9,11.6c-6.1,7.2-10.2,16-16.1,23.3c-6.5,6.8-17.6-1.9-12.9-10c7.6-11,17.3-21,28.7-28.5
				c-7.5-3.4-14.6-7.3-21.5-11.7c-0.3,0.3-0.6,0.6-0.9,0.9c-0.5-2.8-4.4-2.1-6.5-1.6c-1.5-1.3-3.5,0.3-5.2,0.7
				c-0.2-0.4-0.4-0.9-0.6-1.4c-8.5,8.4-14.9,21.7-25.8,26.7c-4.5,1.2-9.7-3.2-8-8c2.9-7.4,26.4-23,34.2-27.1
				c-1.7-2.5-0.3-3.7,2.4-3.3c0.5-0.6,1.2-0.8,2-0.3C218.5,88.6,218.9,87.9,219.4,87.3z M49.1,161.1c5.3,0,11.6-2.2,16.4,0.9
				c7,8-10.4,10.8-17.2,1.1C47.6,162.4,48,161.1,49.1,161.1z M441.8,111.6c1.5,1.8,2,4.4,1.5,6.8c6.7,10.2,10.3,21.7,13.7,33.1
				l0.9-1.2c15.2-19,23.8-36.2-9.6-38C446.2,111.9,444,111.7,441.8,111.6z M124,138.3c-27.5-20.1,31.7-9.1,14.7,3.2
				C133.4,143.3,128.4,141.2,124,138.3z"/>
		</g>
		<g id="HEAD" transform="translate(84.231773, 0.000000)">
			<path id="_x270B_-Skin_00000125603706748303034630000005628213406903895730_" class="st0" d="M339.3,190.6
				c-65.6-53.5-170.8-70.8-241.1-16.9C43.6,224.4,21,368.2,30.7,440.5c2.7,46.4,38,98.9,89.9,84.2c8.8-0.9,17.4-4.3,26.3-5
				c10.6-1.2,21.3-1.2,32,0.3c23.1,3.3,43.6,15.6,66.1,21.3c41.7,10.7,88.1,3.5,124-20.5C487.3,442.7,433.7,266.2,339.3,190.6
				L339.3,190.6z"/>
			<path id="_xD83D__xDD8D_-Ink_00000103230070088724849210000017392566047840046466_" class="st2" d="M330.5,542.6
				c1.2-0.4,2.4-0.9,3.6-1.3c0.1,0.3,0.2,0.5,0.4,0.8c0.2,0.4,0.3,0.8,0.5,1.2C333.5,543.4,332,543.1,330.5,542.6 M328.1,24.6
				c-0.5-1.2-1.2-2.4-1.9-3.5c1.7,0.6,3.4,1.3,4.9,2.3C330.1,23.7,329.1,24.1,328.1,24.6 M68.9,182.8c-0.1,0-0.1,0-0.2,0
				c0.9-2.4,2.5-4.6,4.2-6.2c0.3-0.3,0.7-0.6,1-0.8C72,177.9,70.3,180.2,68.9,182.8 M543.2,431.1c-0.9-8.3-2-16.6-3.4-24.9
				c-1.4-7.9-2.6-16.4-6.6-23.4c-4-7-8-13.8-12.7-19.9c0.7-3.1,1.6-6.1,2.4-8.5c4.5-13.7,8.9-31.1-0.4-43.8c-2.2-3-4.8-5.2-7.8-7.2
				c-1.3-0.9-3.4-1.7-4.4-2.9c-0.7-0.9-0.5-0.4-0.5-0.8c-0.2-2.3,5.1-7,6.4-8.8c2.3-3.3,4-7,5.4-10.8c5.2-15.1,1.7-31.7-1.5-46.8
				c-1.7-8-3.5-16-4.1-24.2c-0.6-7.7,0.5-15.2,1.1-22.8c0.6-7.5,0.4-15.3-2.8-22.3c-1.6-3.4-4-6.4-6.9-8.7c-2.8-2.3-6.4-3.6-9.1-5.9
				c-2.8-2.3-2-5.3-1.2-8.5c1-4.3,2.2-8.5,2.4-12.9c0.2-7.7-2.9-15.1-7.8-20.9c-5-6-12.2-10-20-11c-3.6-0.4-7,0.3-10.6,0
				c-3.5-0.2-4.2-2-4.9-5.2c-1.5-7.3-0.9-14.6-4.5-21.4c-3.2-6.1-8.9-10.2-15.1-12.6c-11.5-4.5-24.9-3.5-37-0.9
				c-7.2-21.1-29.5-35-51.5-35.1c-3.4-5.8-9.3-10.2-15.9-12.8c-11-4.2-22.6-1.8-34-1.8h0c-1.1-0.1-2.3-0.1-3.4-0.1
				c-1.1-0.1-2.2-0.2-3.2-0.3c-13-1.5-25.9-6.9-38.8-1.7c-5.7,2.3-10.3,5.9-13.2,10.5c-4.4,1.2-8.7,2.5-12.9,4.1
				C208,19.3,189.9,29.1,180.6,45c-13-1.5-27.2,1-35.8,11.7c-2.2,2.8-4,6-5.1,9.5c-8.8,2.8-16.9,7.9-22.2,15.6
				c-4.9,7-5.8,16-2.5,23.5c-7.8,5.7-14,13.8-16.9,23.5c-1.8,5.8-2.1,11.9-0.9,17.6c-8,1.8-15.7,5.1-22.5,10.1
				c-7.1,5.2-16,13.5-16.5,23c0,0.7,0,1.4,0,2.1c-15.7-1.1-31.7,1.6-42.3,14.2c-8,9.5-11.4,21.6-9.3,32.7
				c-18.7,3.8-36.3,13.6-48.6,28c-9,10.5-16.9,23.9-16.4,38.2c0.1,4.3,1.2,8.7,2.9,12.7v0c-0.7,1.4-1.5,3-2.3,4.7
				c-11.6,8.1-20,20.8-24.7,34.8c-3.8,11.3-6.2,26.1-2.1,37.6c0.6,1.8,1.4,3.4,2.3,5c-0.8,0.8-1.5,1.6-2.2,2.5
				c-7.8,9.1-15.7,20.6-15.1,33.2c0.2,5.1,2.1,10.2,5.2,14.3c-10.8,11-19.5,24.8-18.6,40.2c0.7,13.4,8.1,27.1,19.6,33.5
				c-1.9,10.3,0.6,21.3,8.7,29.3c4,4,8.7,6.7,13.8,8.1c1.1,12.2,11.9,22,23.4,24.8c2.1,0.5,4.3,0.9,6.4,1
				c10.3,5.1,22.6,4.5,33.1-0.2c3.1,4,7.1,7.2,11.9,9.5c1.9,0.9,3.9,1.7,6,2.3c14.9,4.4,30.1-1.6,43.1-8.5c0.4-0.2,1.2-0.5,1.9-0.8
				c1.8,2,5.1,4,6.8,5c5.8,3.3,12.9,4.9,19.5,4.4c7.8-0.5,14.7-3.1,21-6.8c0.9,0.2,1.9,0.2,2.8,0.3c6,0.3,11.3-1.6,16.1-4.6
				c3.2,0.4,6.4,0.4,9.7-0.2c7.3,1.8,14.3-1.1,20-5.8c2.5-2.1,4.6-4.5,6.9-6.8c2.4-2.4,4.2-3,6.9-4.6c6.5-3.8,7.3-13.5,4.5-20.6
				c0.5-1.2,0.8-2.6,0.8-4.1c0-13.3-6.1-25.4-13.6-36c-3.3-4.7-7-9.4-11-13.6c-3.2-3.4-7.7-8.8-12.4-10.2c-0.3-0.2-0.6-0.4-0.9-0.6
				c0.9-3.2,1.5-6.5,1.2-9.9c-0.2-3.4-1.3-6.7-3.1-9.5c6-11.6,8.5-24.3,7.3-37.5c4.8-6.9,8.5-14.5,10.4-22.8
				c1.2-5.2,1.8-10.6,1.7-15.9c0-2.5-1-5.8-1-8.4c0.1,0.8,1.2-2.3,1.6-3c4.8-8.9,11-15.9,12-26.5c0.6-6.2-0.9-13-4.6-18
				c2.4-9.3,2.3-19.4-1.4-28.3c-1-2.4-2.1-4.7-3.5-6.9c0.6-1.9,1.2-3.7,1.9-5.4c0.3-0.7,0.6-1.3,0.8-2c2.7-2.4,5.2-5,7.3-7.6
				c4.7-5.7,8.3-12.2,8.7-19.7c0.2-3.8-0.7-7.3-1.7-10.9c-0.5-1.6-0.8-3.4-1.3-5c-0.3-0.9-1.1-1.8-1.4-2.6c-0.1-0.2-0.1-0.3-0.2-0.4
				c0-0.1,0.1-0.4,0.1-0.8c0-3.6,0.5-7.1,0.5-10.6c3.3,3.3,7.2,5.8,11.7,7.2c9,2.9,18.5,1.6,26.5-2.9c8.6,5.9,18.3,11.3,28.5,13.4
				c6,1.3,12.1,0.8,18.1,1.5c6,0.8,11.8,3.4,17.5,5.5c12.6,4.6,25.2,9.3,37.8,13.7c10.2,3.6,21.3,6.4,32,4.4
				c3,4.6,6.9,8.6,11.9,11.4c3.6,2.1,7.5,3.4,11.6,4.1c3.6,0.6,7.8,0.4,10.7,2.8c2.8,2.4,4.6,6,7.2,8.7c2.8,3,6.4,5.6,10,7.5
				c3,1.5,6,2.6,9,3.3c-0.3,6.8-0.5,13.6-0.6,20.5c-0.1,14.9-0.1,29.7-0.3,44.6c-0.2,14.8-0.7,29.6-1.4,44.4
				c-0.7,13.9-1.8,27.8-5.1,41.3c-11,44.9-52,77.1-97.9,78.7c-13.6,0.5-27.1-1.4-40.2-5.5c-13.5-4.2-25.6-12.8-39.4-15.4
				c-3.6-0.7-7,3-5,6.5c3.6,6,7.9,9.7,13.9,13.3c6.2,3.8,13.1,6.6,20,9.1c12.6,4.5,25.9,7.1,39.2,7.9c10.2,0.6,20.4-0.1,30.4-2.1
				c0.7,2.2,1.9,4.2,2.9,6.2c0.1,0.3,0.6,0.1,0.5-0.2c-0.2-0.5-0.2-0.9-0.3-1.3c3.4,4.4,8.5,7.4,13.9,8.9c3.8,1,7.7,1.4,11.6,0.9
				c1.2-0.1,2.4-0.4,3.6-0.6c3.9,3.4,9,5.8,14,6.9c-0.9,5.3,1.7,11,7.8,12.5c2.5,0.6,5,0.6,7.4,0.4c2,0.9,4.1,1.6,6.3,2.1
				c2.9,0.6,6.4-0.2,8.6-2.3c1.2,0.8,2.3,1.4,3.5,2.8c4.6,5.6,14.5,1.1,15-5.3c1.5,0,2.9,0,4.4,0.1c0.3,0.2,0.7,0.3,1.1,0.5
				c6.4,3,13.1,5.6,20.2,3.2c1.3-0.4,2.5-1,3.6-1.6c5,0.5,9.9,0.5,15-1.2c3-1,5.8-2.5,8.2-4.5c7.8,2.3,16.1,3.3,23.9,0.5
				c5.8-2.1,10.5-5.5,13.8-9.9c5.1,0.2,10.2-1,14.8-3.4c7.9-4.1,13.4-11.9,17.3-19.7c8.5-17.2,13.5-35.7,15.5-54.8
				C547.9,468.5,545.2,449.8,543.2,431.1"/>
		</g>
		<g id="FACE" transform="translate(407.000039, 283.059455)">
			<path id="_xD83D__xDD8D_-Ink_00000079465917939175691700000014368994605273275306_" class="st3" d="M3.9,187
				c-7.4,2.1-15.3,2.3-22.8,0.1c-6.8-2-13.8-6.4-18.8-12.2c-4.5-5.2-7.3-11.5-7.2-18.2c0-0.8,0.3-1.4,0.7-1.9
				c0.5-0.5,1.1-0.9,1.8-1.1c0.7-0.2,1.4-0.1,2.1,0.2c0.6,0.3,1.1,0.7,1.4,1.3c0.8,1,1.5,2,2.3,3c6.2,7.6,12.2,13.4,21.5,15.4
				c5.1,1.1,10.1,0.6,14.7-1.1c5-1.8,9.4-5,12.9-9.1c1.6-1.8,3.5-2.6,5.3-2.6c2.1,0,4.1,1,5.7,2.5c1.5,1.5,2.5,3.6,2.6,5.7
				c0.1,1.9-0.5,3.9-2.2,5.6C18.4,180.6,11.4,184.8,3.9,187z M3.6,91.2c7.6,4.6,19.1,15.3,10.9,26.7c-9.6,10-23.3-1.5-30.1-6.7
				c-6.3-4-13.4,6.3-7.5,11c49,36.3,68.9-29.8,30.5-36.4C3.2,85.1,1.7,89.8,3.6,91.2z M-67,71c-2.4-1.6-5.3-2.1-8.4-0.6
				c-2.5,1.1-6.8,4.9-9.8,9.8c-2.1,3.4-3.5,7.3-3.2,11.4c0.1,1-0.3,1.7-0.8,2.2c-0.4,0.4-1.1,0.7-1.8,0.8c-0.6,0.1-1.3,0-1.9-0.2
				c-1.1-0.3-1.7-1.1-1.9-1.6c-2.1-5.6-1.2-11.9,1.2-17.5c3.2-7.6,9-14,12.8-16.1c6.5-3.5,14.2-3.7,20.7-0.1c5.5,3.1,9,8,12.5,13
				c0.7,1.1,1.5,2.1,2.2,3.2c1.5,2.1,1.7,4.2,1.1,5.9c-0.6,2-2.3,3.6-4.4,4.5c-1.9,0.8-4.1,0.9-6.1,0.1c-1.7-0.7-3.2-2.1-4.1-4.4
				C-60.8,77.6-63.4,73.3-67,71L-67,71z M56.3,79.7c-1.7,0.9-3,1.1-4.8,0.6c-1-0.3-2-0.9-2.8-1.7c-0.8-0.8-1.3-1.8-1.6-2.8
				c-0.5-2.7-2-5.2-4.1-6.8c-1.8-1.4-4-2.1-6.5-1.7c-2.7,0.4-5.2,2.2-7,4.2c-0.6,0.7-1,1.4-1.5,2.2c-0.9,1.4-1.7,2.8-2.9,3.8
				c-0.5,0.4-1.1,0.7-1.8,0.7c-0.3,0-0.5,0-0.8-0.1c-2.7-2.7-3.2-4.7-3.1-6.7c0.1-2.1,0.9-4.3,2.3-6.2c3.2-4.7,9.2-8.5,13.2-9.4
				c5.5-1.2,11,0.2,15.5,3.3c4.5,3.2,7.9,8.1,9,13.7c0.3,1.3,0.1,2.8-0.4,4C58.4,78,57.5,79,56.3,79.7z M-54.8,21.1
				c-3.3,3.2-7.3,3.7-11.2,4.2c-2.2,0.3-4,0.5-5.7,0.8c-4.8,1.1-9.5,2.7-13.8,5c-4.5,2.4-9.4,5.4-12.9,9.2c-0.8,0.9-1.6,1.8-2.4,2.8
				c-0.7,0.9-1.4,1.7-2.2,2.5c-0.8,0.9-1.6,1.9-2.4,2.8c-0.5,0.8-0.6,1-0.7,1.2c-0.1,0.3-0.3,0.7-0.5,1c-0.3,0.5-0.6,1.1-0.9,1.6
				c-0.6,0.9-0.9,1.2-1.1,1.3c-0.4,0.2-0.8,0.3-1.2,0.2c-0.4,0-0.7-0.2-1.1-0.5c-1.7-1.4-2.2-3.8-2.2-6.3c0.1-3.8,1.5-8,2.8-10.6
				c3-6,7.2-12.3,12.2-16.8c5.7-5.1,12-9,19.2-11.7c4.5-1.7,9.7-3.2,14.5-3c3.5,0.1,6.9,1.2,9.6,3.8c1.7,1.6,2.5,3.9,2.5,6.2
				C-52.3,17.1-53.1,19.5-54.8,21.1z M63,50.8c-0.2,0.3-0.5,0.6-0.8,0.7c-0.3,0.2-0.7,0.2-1.1,0.1c-0.4-0.1-0.7-0.2-1-0.5
				c-0.3-0.2-0.5-0.6-0.6-1c-2.2-9.7-6.5-16.9-15.6-21.6c-4.5-2.3-9.7-3.7-14.6-4.9c-1.4-0.3-2.9-0.6-4.4-0.8
				c-4.7-0.7-9.5-1.5-12.6-5.3c-1.9-2.3-2.6-5.3-2.2-8c0.4-2.5,1.9-4.9,4.6-6.3c6.7-3.5,15.1-0.1,21.9,2.8c0.5,0.2,1,0.4,1.5,0.6
				c6.6,2.8,12.7,6.5,17.7,11.8c4,4.2,7.6,10.4,9.1,16.8C66.1,40.8,65.8,46.2,63,50.8z"/>
		</g>
	</g>
</g>
</svg>
