<?xml version="1.0" encoding="UTF-8"?>
<svg width="2011px" height="1833px" viewBox="0 0 2011 1833" version="1.1" xmlns="http://www.w3.org/2000/svg" xmlns:xlink="http://www.w3.org/1999/xlink">
    <title>Artboard Copy</title>
    <g id="Artboard-Copy" stroke="none" stroke-width="1" fill="none" fill-rule="evenodd">
        <g id="a-person/bust" transform="translate(708.000000, 297.999779)">
            <g id="BODY" transform="translate(-0.000000, 481.000221)">
                <path d="M304.817131,752.114936 C244.632131,750.819936 189.845131,754.455936 131.890131,742.700936 L131.816131,740.748936 C119.385131,740.390936 123.500131,728.773936 125.999131,720.648936 C-107.894869,710.242936 44.6641315,140.152936 206.749131,101.821936 C214.689131,100.467936 223.315131,99.7529358 232.061131,99.6669358 C243.345131,96.2209358 254.465131,95.6099358 266.261131,92.4669358 C267.393131,88.3369358 267.578131,85.9489358 272.582131,87.1719358 C290.543131,70.0199358 322.861131,54.2209358 333.766131,87.6909358 C348.117131,67.7439358 356.347131,44.4219358 362.343131,20.8029358 L363.313131,20.9619358 C365.861131,14.6819358 370.033131,6.7359358 375.108131,5.4249358 C383.018131,2.8059358 397.934131,3.4099358 406.534131,2.3469358 C425.180131,1.0539358 446.839131,-2.1150642 464.712131,2.1619358 C509.375131,13.0959358 490.019131,65.8199358 526.231131,100.143936 C542.849131,93.2649358 568.896131,95.1509358 584.817131,103.341936 C595.070131,111.552936 589.929131,120.809936 588.131131,129.489936 C702.488131,119.181936 732.915131,251.817936 756.514131,339.254936 C765.982131,368.342936 775.379131,388.062936 791.505131,410.520936 C812.453131,436.773936 824.216131,471.153936 802.754131,498.849936 C833.394131,559.988936 800.131131,617.452936 764.937131,663.606936 C758.045131,670.997936 746.866131,691.562936 736.765131,692.968936 C734.024131,695.473936 729.646131,698.556936 726.557131,700.795936 L730.282131,705.679936 C730.727131,710.189936 730.756131,715.036936 733.840131,719.058936 C736.807131,721.949936 739.979131,724.913936 740.067131,729.229936 C735.339131,734.716936 729.233131,728.587936 724.746131,725.862936 C723.026131,729.242936 723.273131,737.271936 717.762131,736.959936 C581.110131,746.331936 441.159131,752.475936 304.817131,752.114936" id="âœ‹-Skin" fill="#FFDBB4"></path>
                <path d="M333.766007,87.6909716 C337.556392,82.4225717 340.91978,76.9187342 343.927788,71.2361705 L338.402283,88.6969535 L339.431808,89.5024997 C373.41497,115.938745 408.273411,127.843737 444.007131,125.217476 C479.024345,122.643875 508.539839,119.589083 532.553611,116.053099 L534.754641,115.725334 L534.753825,97.5263735 C550.841452,94.0200414 571.416207,96.4475585 584.817007,103.341972 C593.652039,110.417408 591.056555,118.269531 589.019241,125.85988 L588.869531,126.421634 L588.722944,126.982336 C588.50595,127.822555 588.303156,128.658908 588.131007,129.489972 C702.488007,119.181972 732.915007,251.817972 756.514007,339.254972 C765.982007,368.342972 775.379007,388.062972 791.505007,410.520972 C812.453007,436.773972 824.216007,471.153972 802.754007,498.849972 C833.394007,559.988972 800.131007,617.452972 764.937007,663.606972 C758.045007,670.997972 746.866007,691.562972 736.765007,692.968972 C734.024007,695.473972 729.646007,698.556972 726.557007,700.795972 L730.282007,705.679972 C730.322461,706.089972 730.359478,706.502757 730.395664,706.917454 L730.467703,707.749139 C730.805928,711.63982 731.223279,715.646366 733.840007,719.058972 C736.807007,721.949972 739.979007,724.913972 740.067007,729.229972 C735.339007,734.716972 729.233007,728.587972 724.746007,725.862972 C724.135684,727.062326 723.773028,728.847039 723.3129,730.636744 L723.184735,731.124533 C722.354431,734.209124 721.139716,737.151197 717.762007,736.959972 C581.110007,746.331972 441.159007,752.475972 304.817007,752.114972 C244.632007,750.819972 189.845007,754.455972 131.890007,742.700972 L131.816007,740.748972 C120.628107,740.426772 122.842467,730.984782 125.218989,723.176481 L125.377518,722.658465 L125.535657,722.145999 C125.693309,721.636543 125.849067,721.136472 125.999007,720.648972 C-107.894993,710.242972 44.6640067,140.152972 206.749007,101.821972 C214.689007,100.467972 223.315007,99.7529716 232.061007,99.6669716 C243.345007,96.2209716 254.465007,95.6099716 266.261007,92.4669716 C267.393007,88.3369716 267.578007,85.9489716 272.582007,87.1719716 C290.543007,70.0199716 322.861007,54.2209716 333.766007,87.6909716 Z M289.416667,480.223474 C273.214358,470.486369 254.371005,468.862216 232.886608,475.351015 L216.357166,477.295877 C186.590297,488.995049 165.69029,500.718636 153.657144,512.466636 C135.607424,530.088636 122.872014,580.769659 128.817932,580.769659 C132.544041,580.769659 144.529647,573.836866 164.774751,559.971281 L168.752426,557.231431 L167.258701,576.443735 C161.876089,599.430335 161.709423,610.923635 166.758701,610.923635 C171.599763,610.923635 182.009247,604.130587 197.987156,590.544492 L200.079725,588.753747 C205.487445,603.533672 213.828345,610.923635 225.102425,610.923635 C236.376504,610.923635 258.806848,585.420417 292.393456,534.41398 L341.734131,518.340563 C323.058131,502.666275 305.618977,489.960579 289.416667,480.223474 Z M612.961131,479.188091 L628.005173,547.402567 L665.172781,545.540623 L654.92031,503.132423 L618.810738,480.051502 L612.961131,479.188091 Z" id="ðŸ‘•-Top" fill="#74B5EC"></path>
                <path d="M359.673131,20.9996358 C370.539131,35.1476358 352.834131,78.4086358 344.686131,93.4146358 C400.394131,116.674636 462.561131,126.815636 522.067131,113.606636 C506.612131,98.8226358 489.535131,51.5796358 502.258131,34.9736358 L502.841294,37.9630495 C507.154963,59.927443 512.431262,82.713288 528.274131,99.5136358 C550.708131,93.5596358 605.250131,94.0936358 596.318131,129.476636 C734.806131,129.801636 735.956131,297.375636 782.129131,390.876636 C804.282131,426.587636 838.583131,463.220636 809.863131,506.130636 C815.507131,519.664636 819.440131,534.014636 820.903131,548.589636 C825.414131,596.149636 796.311131,636.857636 770.072131,673.765636 C760.828131,683.905636 753.095131,700.903636 739.658131,705.240636 C738.278131,706.426636 736.841131,707.551636 735.368131,708.619636 C738.036131,712.505636 735.872131,718.685636 738.997131,722.090636 L740.217097,723.272953 C742.267007,725.283462 745.083041,728.265363 745.645131,730.932636 L745.910554,733.239149 C746.025119,734.142393 746.049645,734.092798 745.984131,733.090636 L745.946283,732.77382 C745.904116,732.339529 745.96649,732.373969 746.132982,732.877984 L746.205131,733.104636 C747.612131,737.138636 744.646131,741.756636 740.596131,742.829636 C728.540131,749.290636 715.723131,730.381636 719.758131,717.728636 C652.906131,746.562636 514.048131,694.414636 446.874131,668.564636 C434.037131,663.409636 421.869131,656.716636 408.887131,651.983636 L407.920427,651.512494 C392.937913,644.135542 378.001237,633.436678 360.429131,637.716636 C286.500131,669.377636 217.755131,722.092636 135.801131,732.488636 C148.621131,756.972636 110.892131,760.252636 118.451131,732.903636 C-104.570869,703.970636 34.4031315,224.655636 152.874131,132.070636 C190.590131,96.1486358 215.964131,104.384636 261.790131,94.0146358 C262.843131,90.1546358 266.707131,86.9176358 270.798131,87.4666358 C287.084131,71.9786358 320.809131,56.8896358 334.725131,82.0466358 C343.236131,68.7476358 349.154131,53.9726358 353.292131,38.7756358 C354.941131,32.7406358 355.527131,25.8456358 359.673131,20.9996358 Z M272.366531,739.288936 C260.475531,729.869936 278.542531,715.017936 288.836531,721.005936 C292.015531,724.895936 281.029531,721.014936 282.403531,729.632936 C284.405531,735.358936 278.429531,742.979936 272.366531,739.288936 Z M515.070831,727.595936 C506.609831,711.668936 514.037831,704.571936 526.746831,716.973936 C538.349831,725.726936 522.784831,739.948936 515.070831,727.595936 Z M397.224131,726.108036 C385.292131,719.698036 382.324131,690.454036 401.692131,704.512036 C418.924131,710.639036 414.190131,732.560036 397.224131,726.108036 Z M263.418131,102.468636 C239.561131,109.063636 212.944131,106.221636 191.063131,119.881636 C137.535811,153.575296 106.752692,211.658744 83.5965148,268.700445 L82.8971315,270.428636 C35.9091315,386.113636 -1.69886854,520.608636 37.8401315,643.530636 C57.8101315,699.451636 106.967131,723.429636 162.917131,704.004636 C303.336131,658.518636 420.681131,549.170636 570.011131,530.544636 C572.116131,513.257636 567.338131,496.219636 561.239131,480.058636 C469.628131,483.873636 381.798131,513.532636 294.010131,537.406636 C288.898131,559.800636 263.353131,585.882636 248.048131,603.256636 C234.221131,621.764636 200.018131,627.337636 195.811131,598.881636 L195.137563,599.644095 C183.856835,612.294932 159.108071,634.217356 151.510131,606.910636 C149.799131,592.588636 158.977131,580.199636 163.491131,567.170636 L163.013608,567.522798 C154.671669,573.75806 120.149111,603.182756 117.747131,583.588636 C117.901131,565.125636 123.746131,546.955636 134.349131,531.832636 C145.002131,517.867636 158.091131,504.722636 172.348131,494.399636 C173.100131,490.019636 174.468131,485.785636 175.493131,481.453636 C173.928131,465.164636 180.351131,449.874636 182.035131,433.924636 C185.919131,418.960636 186.766131,390.943636 197.601131,380.416636 C205.918131,389.275636 197.678131,423.059636 197.252131,435.983636 C194.282131,451.692636 195.567131,467.745636 189.874131,483.021636 C205.932131,474.240636 223.334131,469.784636 240.819131,469.033636 C242.600131,434.734636 291.156131,446.712636 313.645131,449.373636 C347.972131,437.167636 492.096131,441.443636 515.924131,467.101636 C527.819131,465.720636 539.192131,464.633636 551.266131,463.804636 C565.309131,454.872636 604.048131,458.528636 610.020131,476.093636 C625.635131,480.716636 639.201131,488.600636 652.895131,497.606636 C657.134131,427.717636 638.592131,358.872636 643.107131,288.879636 C643.514131,284.812636 645.395131,281.286636 645.317131,277.151636 C645.308131,276.660636 646.023131,276.679636 646.067131,277.151636 C652.812131,297.586636 654.095131,319.399636 657.886131,340.591636 C662.880131,377.552636 671.654131,414.086636 674.564131,451.281636 C675.831131,482.538636 670.753131,515.969636 683.221131,545.601636 C684.997131,549.819636 682.067131,556.689636 677.976131,558.493636 C643.809131,572.843636 604.058131,562.529636 572.856131,545.035636 C506.372131,566.318636 441.332131,591.598636 380.084131,625.348636 C391.871131,628.451636 402.472131,635.351636 413.143131,641.082636 C428.334131,646.340636 443.421131,651.891636 458.597131,657.195636 C533.702131,679.902636 612.301131,710.386636 691.652131,705.763636 C716.047131,701.599636 727.019131,691.148636 741.501131,672.479636 L743.890267,669.379864 C769.763453,635.912147 799.335231,600.472926 803.671131,557.058636 C804.659131,542.967636 803.321131,528.949636 802.505131,514.910636 C799.019131,518.477636 795.278131,521.810636 791.658131,525.260636 C786.634131,530.047636 780.212131,524.011636 782.677131,518.331636 C788.008131,502.191636 797.402131,486.962636 799.027131,469.879636 C799.301131,453.811636 788.769131,439.517636 779.464131,427.303636 C707.060131,338.196636 738.642131,151.091636 595.237131,132.924636 C534.046221,261.602856 325.395346,208.109889 265.221819,105.634797 L263.418131,102.468636 L263.418131,102.468636 Z M102.705831,644.855836 C103.309831,627.315836 131.227831,650.152836 128.649831,659.725836 C127.085831,672.955836 111.040831,666.775836 107.407831,657.842836 C105.152831,653.756836 103.253831,649.510836 102.705831,644.855836 Z M655.501031,626.807136 C659.526031,619.466136 683.499031,640.576136 671.073031,647.509136 C662.659031,651.946136 659.438031,641.551136 657.611031,635.312136 C656.614031,632.701136 654.724031,629.688136 655.501031,626.807136 Z M245.481231,636.436836 C230.382231,627.478836 263.434231,615.413836 264.675231,630.025836 C265.160231,639.943836 251.771231,639.415836 245.481231,636.436836 Z M526.088231,597.847636 C533.672231,587.734636 533.852231,623.554636 529.355231,625.986636 C527.279231,629.263636 522.626231,628.489636 521.387231,624.944636 C518.200231,615.815636 522.998231,606.429636 526.088231,597.847636 Z M167.252131,604.151636 L167.088265,604.759484 C166.246314,608.045884 168.226494,603.710498 167.463131,604.349636 C167.395131,604.277636 167.323131,604.215636 167.252131,604.151636 Z M331.190131,518.486636 C296.643131,479.147636 234.327131,469.385636 187.759131,492.723636 C180.899131,494.733636 174.880131,500.364636 168.704131,504.046636 C170.255131,503.485636 171.826131,503.011636 173.412131,502.608636 C152.956131,520.019636 135.543131,543.865636 132.399131,571.017636 C151.048131,559.482636 167.431131,545.029636 180.354131,526.969636 C184.603131,519.555636 196.807131,524.648636 194.209131,532.808636 C185.824131,555.856636 172.994131,578.100636 167.622131,601.918636 C187.720131,587.369636 202.552131,565.959636 210.891131,542.709636 C214.397131,532.737636 230.003131,536.794636 226.891131,547.119636 C222.773465,560.787136 218.378506,574.40758 214.47189,588.140412 L213.419131,591.888636 C212.109131,596.615636 211.340131,600.943636 216.955131,602.241636 C235.050131,603.408636 259.307131,563.423636 270.090131,549.801636 C275.381131,543.357636 280.060131,529.375636 290.050131,531.412636 C302.486131,523.282636 317.482131,522.329636 331.190131,518.486636 Z M729.518531,581.398236 C731.582938,579.606048 734.113767,578.366623 736.85373,579.280064 L737.119531,579.375236 C745.401531,582.272236 738.981531,593.605236 731.879531,589.618236 C729.466531,587.809236 726.845531,586.288236 723.967531,585.297236 C722.242531,583.521236 728.488531,582.718236 729.518531,581.398236 Z M344.072531,548.315936 C346.510531,536.887936 369.087531,552.426936 361.052531,560.475936 C353.427531,566.306936 344.723531,555.625936 344.072531,548.315936 Z M72.0947315,549.910036 C93.2897315,536.112036 95.8437315,569.525036 64.5037315,559.764036 C61.9257315,555.864036 69.5037315,552.041036 72.0947315,549.910036 Z M614.623131,481.140636 C626.205131,494.998636 630.777131,513.107636 632.829131,530.693636 C633.296131,534.151636 634.116131,537.970636 633.947131,541.539636 C641.854131,542.700636 649.996131,543.002636 657.734131,541.447636 C655.825131,534.578636 654.644131,527.504636 653.926131,520.371636 C643.480131,504.794636 631.471131,490.169636 614.623131,481.140636 Z M583.724131,525.218636 C583.759131,527.124636 583.696131,529.039636 583.542131,530.963636 C593.784131,532.166636 603.873131,534.736636 613.897131,537.236636 L613.832006,534.192636 C613.809631,533.170386 613.784631,532.146136 613.751131,531.136636 C603.843131,533.807636 591.670131,531.041636 583.724131,525.218636 Z M610.331131,501.707636 C598.890131,497.076636 588.404131,494.180636 576.100131,494.953636 C579.739131,502.777636 582.368131,510.975636 583.329131,519.396636 C588.339131,520.816636 594.016131,521.217636 598.854131,520.967636 C603.762131,520.715636 608.292131,518.356636 612.961131,518.250636 C612.430131,512.698636 611.642131,507.136636 610.331131,501.707636 Z M501.499831,505.615536 C508.737831,502.721536 519.395831,510.698536 511.456831,516.949536 C505.676831,520.875536 497.769831,515.610536 493.077831,512.023536 C490.491831,509.053536 499.238831,506.154536 501.499831,505.615536 Z M358.036131,479.017636 C354.901131,488.659636 334.272131,484.425636 324.821131,489.618636 L325.656882,490.10076 C334.737664,495.392313 344.598102,502.909695 346.287131,512.466636 C358.310131,507.772636 370.431131,503.330636 382.620131,499.129636 C375.397131,491.059636 367.097131,484.413636 358.036131,479.017636 Z M498.149131,469.564636 C443.885131,450.108636 384.743131,450.678636 327.819131,452.490636 L329.316194,452.941404 C353.856611,460.387071 382.591171,471.954776 395.382131,494.844636 C428.913131,483.908636 463.223131,474.853636 498.149131,469.564636 Z M603.796131,484.925636 C595.447131,470.140636 579.192131,463.529636 563.288131,464.640636 L560.782131,465.050636 L560.782131,465.050636 C562.513131,465.657636 564.141131,466.515636 565.604131,467.734636 C568.216131,469.910636 568.172131,474.693636 565.863131,477.084636 C568.792131,481.425636 571.542131,485.952636 573.971131,490.628636 C582.739131,484.511636 593.254131,483.629636 603.796131,484.925636 Z M750.397231,485.250336 C731.402231,496.398336 717.653231,444.200336 741.593231,455.412336 L743.299948,457.241352 C750.23487,464.726976 760.956991,477.379736 750.397231,485.250336 Z M304.981131,460.808636 C298.914131,465.732636 291.850131,469.303636 285.706131,474.176636 C295.807131,476.734636 305.735131,480.129636 315.129131,484.595636 C322.783131,478.032636 331.988131,473.854636 341.734131,470.908636 C330.045131,466.067636 317.516131,462.836636 304.981131,460.808636 Z M56.2436134,461.90856 L56.3329315,461.672136 C59.2739315,453.413136 77.0229315,441.163136 85.8399315,444.371136 C86.2519315,444.351136 86.6599315,444.754136 86.6359315,445.168136 L86.7798836,446.19122 C87.2762482,449.822359 87.5322743,453.376736 85.1359315,456.615136 C80.8449315,463.531136 76.7479315,472.148136 68.4949315,474.844136 C60.3620815,477.423086 53.3955505,469.710006 56.2436134,461.90856 L56.2436134,461.90856 Z M284.753131,458.464636 L282.042321,458.321344 C269.592347,457.627309 251.665471,456.494346 245.585131,468.912636 C256.085131,468.840636 266.765131,469.991636 277.357131,472.244636 C278.942131,467.471636 281.543131,462.673636 284.753131,458.464636 Z M352.756631,405.706436 C350.861631,402.090436 357.889631,406.054436 359.522631,405.498436 C362.555631,405.684436 365.294631,406.307436 367.010631,409.035436 C369.759631,413.410436 364.418631,418.100436 360.211631,415.834436 C356.151631,413.591436 357.127631,407.740436 352.756631,405.706436 Z M591.283931,385.470036 L591.542895,385.444377 C595.738856,384.976948 613.71689,380.88484 613.670115,385.331036 L613.325974,385.814323 C607.67181,393.871316 600.301171,409.730656 588.797931,404.077036 C581.407931,399.868036 582.890931,387.292036 591.283931,385.470036 Z M466.070931,384.813436 C469.389931,378.696436 476.500931,392.899436 478.615931,395.426436 C481.625931,402.166436 472.941931,407.422436 468.658931,401.246436 C465.999931,396.429436 464.816931,390.221436 466.070931,384.813436 Z M154.663231,370.778236 C159.431231,368.363236 171.489231,368.146236 168.188231,376.297236 C161.756231,384.826236 149.958231,380.698236 142.753231,375.235236 C139.069231,370.996236 152.373231,372.720236 154.663231,370.778236 Z M270.574631,339.135236 C270.142631,333.027236 276.955631,330.843236 281.548631,332.838236 C289.744631,336.399236 296.096631,349.498236 293.502631,357.970236 C291.414631,366.374236 278.694631,368.234236 274.652631,360.434236 C272.328631,353.232236 272.015631,346.356236 270.574631,339.135236 Z M692.746931,350.537036 C702.160931,348.544036 712.031931,342.235036 721.700931,344.012036 C724.714931,345.145036 725.809931,348.573036 723.560931,351.062036 C722.289931,356.803036 687.449931,355.525036 692.746931,350.537036 Z M420.578731,328.623836 C424.584731,321.354836 433.791731,313.642836 442.626731,314.273836 C448.045731,314.093836 450.162731,321.886836 445.388731,324.473836 L445.230255,324.541119 C442.233047,325.736579 419.502691,331.569716 420.578731,328.623836 Z M545.692831,316.907036 C532.134831,314.963036 532.214831,282.354036 540.288831,288.722036 C543.040831,296.719036 550.028831,301.484036 554.024831,308.575036 C556.044831,313.438036 550.209831,318.283036 545.692831,316.907036 Z M134.051831,309.689836 C139.812831,310.571836 169.728831,292.377836 164.246831,306.939836 C160.679831,311.021836 156.163831,311.119836 151.101831,311.496836 L150.963582,311.483489 C148.367867,311.315813 129.497771,313.555936 134.051831,309.689836 Z M340.959631,280.075736 C334.973631,279.381736 313.200631,233.891736 323.849631,236.756736 L325.474759,237.821504 C337.274016,245.610697 350.283631,255.56728 355.548631,268.860736 C357.622631,276.785736 348.366631,285.148736 340.959631,280.075736 Z M474.885331,261.362536 C475.747331,260.971536 476.508331,262.197536 475.642331,262.658536 C471.944331,264.621536 467.928331,268.777536 465.604331,272.284536 C457.646331,282.237536 448.232331,264.649536 460.463331,263.327536 C464.925331,263.648536 470.791331,263.217536 474.885331,261.362536 Z M220.928531,206.297236 C231.970531,203.453236 237.309531,218.013236 228.405531,224.033236 C223.952531,227.851236 182.117531,239.803236 179.612531,235.006236 C184.860531,226.473236 211.082531,209.291236 220.928531,206.297236 Z M635.700931,208.336236 C666.269931,205.834236 667.090931,200.240236 645.499931,225.168236 C632.752931,236.356236 619.835931,213.436236 635.700931,208.336236 Z M492.620131,133.824636 C482.018131,134.724636 471.372131,134.994636 460.743131,134.650636 C462.381131,138.157636 460.961131,143.260636 456.309131,142.552636 C454.121131,156.749636 453.126131,171.174636 450.364131,185.275636 C449.639131,188.572636 448.612131,191.774636 447.630131,194.990636 C467.870131,196.484636 488.412131,195.646636 508.139131,190.638636 C500.811131,172.278636 497.631131,152.847636 492.620131,133.824636 Z M407.112131,127.770636 C407.016131,129.254636 406.595131,130.722636 405.900131,131.962636 C396.744131,147.823636 388.706131,164.373636 379.028131,179.898636 C399.914131,187.635636 421.862131,192.680636 444.007131,194.674636 C440.661131,174.476636 443.630131,153.877636 442.937131,133.509636 C430.892131,132.353636 418.920131,130.429636 407.112131,127.770636 Z M541.232131,125.429636 C530.637131,128.280636 519.857131,130.419636 508.995131,131.949636 C509.038131,133.657636 508.055131,135.251636 506.536131,135.888636 C508.916131,153.619636 513.606131,171.064636 513.674131,189.138636 C536.314131,183.591636 554.212131,168.184636 569.061131,150.808636 L565.686431,148.348769 C556.662057,141.74292 547.555687,134.693636 541.232131,125.429636 Z M332.549131,85.3496358 C319.416131,77.2906358 301.235131,80.7236358 290.599131,91.2186358 C285.886131,95.4216358 281.795131,101.103636 276.428131,104.405636 C275.759131,104.816636 275.073131,105.096636 274.384131,105.272636 C278.081131,112.262636 283.731131,118.963636 288.507131,124.728636 C314.117131,147.090636 342.947131,165.870636 374.633131,178.226636 C375.930131,159.216636 382.508131,140.754636 390.026131,123.288636 C383.018131,121.176636 376.109131,118.745636 369.324131,115.994636 C368.460131,120.565636 364.175131,124.095636 361.465131,127.643636 C355.316131,134.844636 351.218131,143.649636 345.363131,150.975636 C338.841131,157.810636 327.760131,149.093636 332.447131,141.010636 C340.000131,129.982636 349.761131,119.999636 361.101131,112.490636 C353.626131,109.136636 346.498131,105.189636 339.604131,100.773636 C339.312131,101.077636 339.011131,101.367636 338.706131,101.647636 C338.245131,98.8016358 334.328131,99.5506358 332.245131,100.016636 C330.761131,98.7596358 328.747131,100.342636 327.094131,100.754636 C326.852131,100.314636 326.649131,99.8496358 326.505131,99.3616358 C318.016131,107.746636 311.631131,121.025636 300.678131,126.032636 C296.166131,127.277636 290.934131,122.797636 292.654131,118.009636 C295.551131,110.657636 319.055131,95.0546358 326.819131,90.9316358 C325.120131,88.4596358 326.479131,87.2386358 329.233131,87.6056358 C329.706131,87.0136358 330.431131,86.8306358 331.186131,87.3326358 C331.665131,86.6886358 332.114131,86.0226358 332.549131,85.3496358 Z M162.283631,159.207236 C167.606631,159.233236 173.891631,157.014236 178.670631,160.088236 C185.698631,168.132236 168.281631,170.897236 161.455631,161.208236 C160.791631,160.473236 161.227631,159.202236 162.283631,159.207236 Z M555.011131,109.651636 C556.532131,111.444636 557.048131,114.060636 556.493131,116.410636 C563.153131,126.579636 566.812131,138.091636 570.159131,149.527636 L571.096045,148.364536 C586.269818,129.401457 594.874551,112.207416 561.526131,110.334636 C559.358131,110.027636 557.184131,109.799636 555.011131,109.651636 Z M237.227331,136.335236 C209.679331,116.215236 268.955331,127.207236 251.878331,139.506236 C246.623331,141.414236 241.585331,139.291236 237.227331,136.335236 Z" id="ðŸ–-Ink" fill="#191919"></path>
            </g>
            <g id="HEAD" transform="translate(84.231773, 0.000000)">
                <path d="M452.450939,188.718121 C386.819695,135.262121 281.645051,117.905121 211.390581,171.836121 C156.80199,222.449121 134.211749,366.275121 143.872325,438.547121 C146.558646,484.902121 181.898931,537.443121 233.776254,522.782121 C242.585629,521.913121 251.139545,518.529121 260.029749,517.820121 C270.664266,516.593121 281.379612,516.572121 291.993174,518.075121 C315.120279,521.353121 335.621935,533.658121 358.068479,539.411121 C399.719422,550.085121 446.192171,542.905121 482.044374,518.861121 C600.520895,440.803121 546.854355,264.268121 452.450939,188.718121 L452.450939,188.718121 Z" id="âœ‹-Skin" fill="#FFDBB4"></path>
                <path d="M443.710518,540.695721 C444.928942,540.274721 446.14537,539.835721 447.352818,539.385721 C447.432649,539.665721 447.562375,539.934721 447.713056,540.195721 C447.882697,540.615721 448.052339,541.024721 448.24094,541.434721 C446.725145,541.445721 445.207353,541.174721 443.710518,540.695721 M441.276664,22.6747205 C440.737803,21.4657205 440.118113,20.3057205 439.41959,19.1847205 C441.116003,19.7357205 442.813415,20.4957205 444.350166,21.4757205 C443.31236,21.8257205 442.293514,22.2257205 441.276664,22.6747205 M182.034744,180.835721 C181.964891,180.823721 181.896037,180.813721 181.827183,180.801721 C182.717301,178.426721 184.302948,176.184721 186.054246,174.565721 C186.368581,174.274721 186.708862,174.005721 187.038166,173.727721 C185.179096,175.946721 183.492661,178.313721 182.034744,180.835721 M656.380898,429.184721 C655.502754,420.844721 654.385117,412.535721 652.938176,404.274721 C651.551109,396.365721 650.383577,387.905721 646.362079,380.885721 C642.370518,373.895721 638.368978,367.104721 633.620018,360.955721 C634.297586,357.815721 635.196685,354.865721 635.974041,352.485721 C640.464548,338.785721 644.886199,321.385721 635.554927,308.655721 C633.389505,305.705721 630.746094,303.445721 627.721489,301.405721 C626.43421,300.535721 624.299723,299.745721 623.310813,298.545721 C622.61229,297.695721 622.852782,298.155721 622.821847,297.735721 C622.652206,295.475721 627.941024,290.705721 629.178408,288.915721 C631.494512,285.604721 633.219864,281.875721 634.537079,278.065721 C639.746067,262.985721 636.203556,246.375721 633.071178,231.264721 C631.41468,223.255721 629.588541,215.225721 628.988809,207.045721 C628.429991,199.365721 629.477775,191.865721 630.096467,184.225721 C630.696199,176.684721 630.536537,168.905721 627.312353,161.924721 C625.735687,158.524721 623.351727,155.524721 620.446868,153.184721 C617.613858,150.895721 614.080328,149.565721 611.31717,147.285721 C608.561995,145.014721 609.350328,141.945721 610.069807,138.805721 C611.056721,134.545721 612.304083,130.315721 612.42383,125.915721 C612.643366,118.245721 609.51997,110.774721 604.641284,104.975721 C599.610919,98.9857205 592.426109,94.9347205 584.662522,94.0247205 C581.110033,93.6047205 577.617417,94.3157205 574.084885,94.0657205 C570.592269,93.8257205 569.83487,92.0757205 569.175265,88.8757205 C567.65947,81.5457205 568.277164,74.3057205 564.675778,67.4657205 C561.482529,61.3857205 555.803535,57.2647205 549.526805,54.8357205 C538.022128,50.3757205 524.640419,51.2957205 512.505075,53.9247205 C505.341221,32.8057205 482.978499,18.9557205 460.975018,18.7857205 C457.541278,12.9457205 451.723577,8.58572052 445.088605,6.02472052 C434.111811,1.77472052 422.485391,4.25572052 411.050567,4.25572052 L411.000672,4.25572052 C409.8521,4.18472052 408.704526,4.15572052 407.557951,4.16572052 C406.479231,4.10472052 405.40151,4.01472052 404.323788,3.89572052 C391.311299,2.35472052 378.438514,-2.98527948 365.545771,2.24572052 C359.797923,4.57572052 355.227586,8.16572052 352.334702,12.7457205 C347.973921,13.9347205 343.672016,15.2957205 339.451938,16.8757205 C321.159611,17.3547205 303.037923,27.1847205 293.788478,43.1157205 C280.76601,41.6357205 266.635883,44.1457205 258.023092,54.8057205 C255.779834,57.5797205 254.042507,60.8387205 252.890942,64.2987205 C244.109507,67.1447205 235.983687,72.2157205 230.665929,79.8537205 C225.813189,86.8237205 224.881159,95.8357205 228.163221,103.317721 C220.323794,109.008721 214.197746,117.155721 211.246984,126.775721 C209.453775,132.620721 209.187339,138.659721 210.3409,144.412721 C202.314868,146.196721 194.638098,149.503721 187.836478,154.466721 C180.708548,159.665721 171.806368,167.940721 171.33736,177.464721 C171.302434,178.163721 171.329377,178.862721 171.385259,179.559721 C155.693434,178.454721 139.693261,181.118721 129.086685,193.725721 C121.122522,203.184721 117.660841,215.365721 119.786347,226.455721 C101.11582,230.255721 83.4621425,240.035721 71.1481763,254.495721 C62.1980982,265.005721 54.2449126,278.365721 54.722902,292.674721 C54.8725856,296.985721 55.8814526,301.325721 57.6277607,305.335721 L57.6277607,305.344721 C56.8793429,306.755721 56.1099695,308.325721 55.3715307,309.995721 C43.8059822,318.104721 35.4037459,330.815721 30.6737459,344.825721 C26.8528239,356.174721 24.4479083,370.915721 28.5282818,382.465721 C29.1479716,384.225721 29.936305,385.885721 30.854364,387.424721 C30.0849906,388.245721 29.3575286,389.065721 28.6490265,389.895721 C20.8545054,399.024721 12.9611931,410.524721 13.5010518,423.094721 C13.7205877,428.155721 15.5956235,433.245721 18.6601446,437.424721 C7.88193154,448.375721 -0.798716138,462.195721 0.0584716261,477.625721 C0.796910445,491.055721 8.15235981,504.695721 19.6769948,511.145721 C17.7520645,521.495721 20.3266214,532.415721 28.3686193,540.495721 C32.3811362,544.535721 37.1101383,547.195721 42.1205455,548.615721 C43.2381826,560.805721 54.0343577,570.615721 65.5001172,573.434721 C67.6366003,573.965721 69.7720856,574.285721 71.896594,574.434721 C82.2147796,579.505721 94.518767,578.924721 105.04651,574.274721 C108.149948,578.225721 112.191404,581.445721 116.901446,583.755721 C118.807417,584.695721 120.824153,585.475721 122.928704,586.104721 C137.797269,590.514721 153.046031,584.535721 166.047543,577.555721 C166.466657,577.335721 167.235033,577.055721 167.913598,576.745721 C169.709801,578.755721 172.982881,580.745721 174.689273,581.725721 C180.478035,585.055721 187.553077,586.604721 194.199026,586.165721 C201.99255,585.645721 208.867016,583.065721 215.233556,579.395721 C216.162592,579.555721 217.099611,579.645721 218.038626,579.695721 C224.025967,580.014721 229.363683,578.115721 234.164533,575.115721 C237.336826,575.535721 240.589948,575.495721 243.882986,574.915721 C251.138647,576.764721 258.20371,573.825721 263.880708,569.155721 C266.396389,567.085721 268.520898,564.655721 270.797086,562.335721 C273.161088,559.924721 274.958288,559.365721 277.721446,557.745721 C284.258626,553.915721 285.045961,544.205721 282.211953,537.184721 C282.750813,535.955721 283.061157,534.585721 283.061157,533.065721 C283.040202,519.805721 276.94409,507.645721 269.459913,497.035721 C266.115982,492.305721 262.484659,487.674721 258.502079,483.475721 C255.298851,480.104721 250.799364,474.635721 246.059385,473.264721 C245.769997,473.055721 245.469632,472.844721 245.170265,472.645721 C246.089322,469.424721 246.627185,466.145721 246.398668,462.795721 C246.158176,459.354721 245.050518,456.094721 243.275271,453.315721 C249.231678,441.745721 251.74736,429.055721 250.549891,415.815721 C255.39864,408.924721 259.071875,401.315721 260.966868,392.975721 C262.1344,387.815721 262.803984,382.385721 262.713176,377.094721 C262.673261,374.555721 261.745223,371.344721 261.726263,368.715721 C261.865967,369.545721 262.943689,366.445721 263.362803,365.674721 C268.171636,356.725721 274.348577,349.745721 275.377402,339.195721 C275.975138,333.024721 274.518218,326.205721 270.826024,321.145721 C273.191024,311.805721 273.161088,301.774721 269.438957,292.865721 C268.441067,290.485721 267.294491,288.155721 265.977275,285.945721 C266.584991,284.085721 267.144807,282.205721 267.86229,280.514721 C268.142697,279.844721 268.421109,279.165721 268.700518,278.485721 C271.404801,276.094721 273.920482,273.485721 276.03601,270.924721 C280.725096,265.255721 284.30852,258.755721 284.757571,251.264721 C284.977107,247.514721 284.098963,243.924721 283.011263,240.365721 C282.531278,238.755721 282.241889,236.965721 281.673092,235.395721 C281.354765,234.524721 280.585391,233.635721 280.316959,232.815721 C280.256088,232.635721 280.206193,232.485721 280.166278,232.365721 C280.206193,232.245721 280.237128,231.995721 280.237128,231.524721 C280.246109,227.934721 280.715117,224.424721 280.736073,220.965721 C284.019132,224.285721 287.970778,226.764721 292.461284,228.215721 C301.511151,231.125721 310.952191,229.805721 318.964252,225.315721 C327.587022,231.235721 337.275539,236.594721 347.43506,238.745721 C353.471299,240.024721 359.519512,239.495721 365.575708,240.285721 C371.592986,241.075721 377.411685,243.705721 383.078704,245.755721 C395.693035,250.325721 408.275434,255.014721 420.928683,259.465721 C431.147079,263.055721 442.203704,265.905721 452.902086,263.885721 C455.905735,268.524721 459.807486,272.445721 464.806917,275.325721 C468.388345,277.375721 472.320033,278.764721 476.381446,279.455721 C479.973851,280.065721 484.185946,279.825721 487.098788,282.295721 C489.942775,284.695721 491.71902,288.274721 494.273619,290.975721 C497.118605,293.995721 500.63018,296.615721 504.312396,298.495721 C507.266151,300.005721 510.280778,301.094721 513.343303,301.805721 C513.07487,308.635721 512.814421,315.455721 512.73459,322.295721 C512.585904,337.155721 512.64478,352.014721 512.446199,366.875721 C512.246621,381.684721 511.777613,396.495721 510.999259,411.285721 C510.259822,425.165721 509.222016,439.094721 505.918999,452.635721 C494.962164,497.565721 453.918936,529.735721 407.976067,531.375721 C394.335904,531.865721 380.833451,529.945721 367.791024,525.924721 C354.280588,521.755721 342.215096,513.174721 328.364379,510.535721 C324.742037,509.854721 321.329252,513.505721 323.404864,517.014721 C326.978309,523.045721 331.318134,526.725721 337.255581,530.354721 C343.473436,534.145721 350.397797,536.955721 357.233345,539.415721 C369.806763,543.934721 383.109638,546.555721 396.451432,547.285721 C406.628915,547.844721 416.847311,547.145721 426.816235,545.225721 C427.515756,547.375721 428.75314,549.465721 429.690159,551.455721 C429.829864,551.745721 430.29987,551.545721 430.21006,551.245721 C430.059379,550.745721 429.960588,550.305721 429.920672,549.945721 C433.272586,554.325721 438.451636,557.354721 443.771389,558.825721 C447.522459,559.865721 451.505039,560.184721 455.366875,559.745721 C456.614237,559.604721 457.800729,559.395721 458.979237,559.135721 C462.909927,562.585721 467.939294,564.885721 472.988619,566.035721 C472.121453,571.315721 474.724948,577.075721 480.763183,578.575721 C483.296826,579.205721 485.731678,579.215721 488.167529,578.985721 C490.133372,579.905721 492.2489,580.625721 494.494153,581.115721 C497.416974,581.755721 500.90959,580.934721 503.114927,578.815721 C504.322375,579.665721 505.449991,580.255721 506.567628,581.604721 C511.1689,587.165721 521.086932,582.735721 521.526003,576.305721 C522.982923,576.305721 524.449822,576.325721 525.917718,576.375721 C526.265982,576.535721 526.615244,576.695721 526.974484,576.865721 C533.390919,579.854721 540.036868,582.465721 547.132866,580.115721 C548.439105,579.684721 549.636573,579.135721 550.724273,578.495721 C555.723704,578.945721 560.653282,578.955721 565.723562,577.315721 C568.717233,576.344721 571.530286,574.805721 573.875328,572.785721 C581.698788,575.085721 589.952339,576.125721 597.735883,573.274721 C603.562564,571.145721 608.253647,567.785721 611.555666,563.354721 C616.605989,563.535721 621.734147,562.315721 626.354379,559.905721 C634.25767,555.805721 639.795961,548.014721 643.657797,540.205721 C652.16082,522.975721 657.190187,504.465721 659.165012,485.375721 C661.110898,466.575721 658.336763,447.875721 656.380898,429.184721" id="ðŸ–-Ink" fill="#191919"></path>
            </g>
            <g id="FACE" transform="translate(407.000039, 283.059455)" fill="#000000">
                <path d="M117.04171,185.099636 C109.675086,187.233267 101.767889,187.424039 94.2588671,185.22055 C87.448061,183.22175 80.4548887,178.823169 75.4422865,173.002783 C70.9893643,167.83227 68.1054557,161.548817 68.2187267,154.841683 C68.2316116,154.075673 68.5055099,153.436288 68.9268496,152.939999 C69.3804391,152.405724 70.0139684,152.03885 70.6926431,151.879613 C71.3906122,151.715848 72.1284742,151.773907 72.756774,152.059304 C73.3255562,152.317667 73.8128648,152.756502 74.1175788,153.397891 C74.8879263,154.409853 75.6552818,155.406827 76.4256493,156.37615 C82.6196133,164.024452 88.617984,169.740192 97.9318823,171.790268 C102.985329,172.902803 108.032419,172.409465 112.663304,170.712059 C117.620444,168.895067 122.101545,165.700366 125.613053,161.612184 C127.199965,159.76462 129.073496,159.010509 130.905487,158.997834 C132.981532,158.98347 135.03352,159.948144 136.579401,161.489982 C138.098941,163.005549 139.116395,165.065059 139.208611,167.219461 C139.289545,169.110298 138.672714,171.085413 137.031714,172.847522 C131.626496,178.652013 124.621294,182.904324 117.04171,185.099636 Z M116.814265,89.3079203 C124.365643,93.897966 135.871625,104.601057 127.74808,115.980339 C118.18589,126.013828 104.418496,114.509748 97.6341625,109.3069 C91.3434107,105.274664 84.2753985,115.645273 90.1119616,120.353589 C139.135697,156.648825 159.030567,90.5081533 120.633647,83.9111519 C116.406008,83.1841908 114.835852,87.8879394 116.814265,89.3079203 Z M46.1749191,69.1108515 C43.7478561,67.5586912 40.8928475,67.0259108 37.7286692,68.4654614 C35.2559899,69.5899015 30.9191894,73.3384561 27.9010639,78.2661596 C25.836262,81.6373684 24.3720823,85.5922375 24.6769046,89.7117131 C24.7476961,90.6684146 24.3941867,91.3738196 23.8365923,91.8953896 C23.3962169,92.3073138 22.7601088,92.6100399 22.0129609,92.7046742 C21.3786356,92.7850184 20.6686274,92.7125378 20.0913167,92.5323532 C18.99312,92.1895948 18.411902,91.4772294 18.1929102,90.8956487 C16.0797005,85.2835576 16.9900935,79.020809 19.3584685,73.3707097 C22.5547338,65.7455591 28.3592395,59.3585457 32.1621757,57.2992922 C38.6697942,53.7742403 46.3469563,53.6120015 52.86389,57.2031448 C58.4114282,60.2596184 61.8801787,65.1941797 65.3300972,70.2241658 C66.063471,71.2934263 66.7913524,72.3548467 67.5436336,73.3975966 C69.0512816,75.4870411 69.201347,77.5593252 68.6174929,79.3363232 C67.9706883,81.3049154 66.3214716,82.9662769 64.2591604,83.8357229 C62.3530292,84.6393253 60.1407177,84.7524463 58.1830798,83.9267612 C56.5293425,83.229254 55.0116613,81.8695462 54.0513453,79.5624672 C52.4339817,75.6770647 49.7392997,71.3903514 46.1749191,69.1108515 L46.1749191,69.1108515 Z M169.440736,77.7551346 C167.778524,78.6212342 166.478106,78.882368 164.634222,78.3299251 C163.614557,78.0236523 162.606784,77.4366644 161.817785,76.6476652 C161.035844,75.8657236 160.471674,74.8933175 160.25238,73.8145686 C159.713034,71.1522429 158.256373,68.6601336 156.180571,67.0355224 C154.406345,65.646938 152.166871,64.9109553 149.682872,65.3261681 C147.002446,65.7736214 144.44869,67.492699 142.68983,69.5194525 C142.101968,70.1976411 141.641166,70.9678712 141.177903,71.7329022 C140.311295,73.1635953 139.468985,74.4934596 138.273804,75.5441415 C137.820751,75.9438943 137.138068,76.2207653 136.476862,76.2207653 C136.20813,76.2207653 135.935406,76.1770371 135.675525,76.0960421 C133.00764,73.4183456 132.494584,71.3870384 132.580597,69.3722512 C132.670793,67.2594495 133.50377,65.1202585 134.849867,63.1243303 C138.007477,58.4423735 144.002722,54.6036052 148.04836,53.7341062 C153.588834,52.5434741 159.091186,53.9727488 163.502719,57.0672326 C168.041927,60.2512746 171.405469,65.1948005 172.454122,70.7659101 C172.706392,72.1076647 172.599192,73.5559371 172.088199,74.8116518 C171.588883,76.0386747 170.718742,77.0895964 169.440736,77.7551346 Z M58.3942188,19.1934144 C55.0692655,22.4329102 51.1338921,22.9346976 47.1526165,23.3810043 C44.9405206,23.631318 43.1746066,23.8331058 41.4368706,24.2252089 C36.6605261,25.3033767 31.9392711,26.9272135 27.631899,29.2658505 C23.129235,31.7106205 18.2223544,34.659007 14.6922211,38.4361171 C13.8527954,39.3349336 13.0615032,40.2780512 12.2691056,41.2232335 C11.5465494,42.0851219 10.8505027,42.9148663 10.1169378,43.7149077 C9.27448962,44.6338582 8.47449323,45.5969812 7.67874967,46.5575879 C7.18670002,47.3681447 7.08950159,47.5675008 6.99041349,47.7750311 C6.84130373,48.0868745 6.66785665,48.4358643 6.46975578,48.8102602 C6.19845008,49.3230078 5.88066395,49.884296 5.54784088,50.3931874 C4.99409897,51.3233514 4.69697151,51.5795649 4.44022123,51.6941663 C4.01418541,51.8839074 3.6101504,51.977377 3.21817112,51.926761 C2.85063607,51.8793016 2.50437779,51.7027785 2.16244304,51.4138056 C0.455387407,49.9715224 -0.0480658373,47.6045536 0.00353523279,45.0920103 C0.0818393431,41.279251 1.4881303,37.0578318 2.78451754,34.4628211 C5.79887569,28.4331226 9.97938341,22.1648624 15.0061958,17.6646029 C20.7422433,12.5276385 27.0176699,8.63869282 34.2256426,5.95894428 C38.7049753,4.29304455 43.8912558,2.76391207 48.7713173,2.95706302 C52.283982,3.09609294 55.6373211,4.14026136 58.4066491,6.74782114 C60.1071784,8.34852811 60.9234783,10.6253696 60.9234783,12.9005987 C60.9234783,15.2211485 60.0756589,17.5554013 58.3942188,19.1934144 Z M176.202944,48.8583469 C175.991496,49.2049023 175.69883,49.4437257 175.37318,49.587161 C175.0318,49.7375245 174.65069,49.7808334 174.28496,49.7192089 C173.92085,49.6578572 173.57474,49.4928038 173.300194,49.2405589 C173.037045,48.9987866 172.836663,48.6781415 172.747065,48.2853243 C170.539556,38.5897994 166.253126,31.3761844 157.104271,26.7244164 C152.603813,24.436053 147.428712,22.9821142 142.529643,21.8229001 C141.105999,21.4860036 139.601704,21.2677184 138.086787,21.0465238 C133.338926,20.3532843 128.556808,19.5593609 125.461606,15.7215932 C123.596592,13.4098602 122.813872,10.4534029 123.256419,7.74959596 C123.673101,5.20381395 125.16073,2.86951201 127.864992,1.47063974 C134.597478,-2.01031222 142.963904,1.40541263 149.762629,4.31514124 C150.266955,4.53098311 150.762019,4.74286636 151.246415,4.94730967 C157.895039,7.75373783 163.958935,11.45816 168.943569,16.7559028 C172.898641,20.9587895 176.56307,27.1719905 178.03891,33.5636558 C179.266756,38.8812905 178.978049,44.3098649 176.202944,48.8583469 Z" id="ðŸ–-Ink"></path>
            </g>
        </g>
    </g>
</svg>