<?xml version="1.0" encoding="UTF-8"?>
<svg width="2011px" height="1833px" viewBox="0 0 2011 1833" version="1.1" xmlns="http://www.w3.org/2000/svg" xmlns:xlink="http://www.w3.org/1999/xlink">
    <title>Gabriel</title>
    <g id="Gabriel" stroke="none" stroke-width="1" fill="none" fill-rule="evenodd">
        <g id="a-person/bust" transform="translate(714.000000, 404.999936)">
            <g id="BODY" transform="translate(0.000000, 352.000064)">
                <path d="M349.475701,65.649702 L337.241405,95.8956502 L343.982187,191.765818 L348.998303,192.547543 C401.973002,200.758968 437.970296,204.907007 456.990184,204.99166 L457.579029,204.992983 C476.732771,204.992983 499.684265,200.714559 526.433512,192.157712 L527.652002,191.765818 L530.739382,119.980682 L523.457331,119.980682 L510.284764,89.0979896 L510.296966,89.0878343 C510.441992,89.3351512 510.592951,89.5751989 510.750114,89.8076447 C516.242114,97.9306447 519.424933,91.3704374 532.327533,94.2435072 C547.775947,97.6834631 554.63339,113.29628 568.233705,124.964512 C574.548567,130.382274 587.801936,132.935779 594.144329,136.660294 L600.806553,140.574829 C621.681753,152.887713 645.675374,167.84455 658.273331,187.3288 C673.041331,210.1708 683.221331,231.8478 692.621331,257.2578 C712.883331,312.0268 726.947331,367.9158 736.996331,425.3918 C747.182331,483.6448 753.303331,542.6208 757.978331,601.5508 C760.143869,628.860031 761.980508,656.191415 763.504765,683.542594 L763.879331,690.3808 C764.680331,705.2628 763.984331,719.8248 750.453331,728.9888 C740.758599,735.553443 727.892247,736.553282 716.518224,737.227326 L715.899331,737.2638 C631.805998,742.1958 547.709998,747.090911 463.615183,751.99743 L337.474331,759.3718 C316.485664,760.602467 295.496998,761.822467 274.508035,763.036244 L223.275235,765.99517 C199.128816,767.36932 174.953117,768.558443 150.774331,768.4178 C120.354045,768.240029 90.0630427,765.993725 59.9233246,761.939235 L57.2643309,761.5768 C38.3023309,758.9588 10.8083309,752.3348 7.40233088,729.5938 C6.91333088,726.3288 9.78733088,724.2888 12.2003309,724.7578 C11.4063309,721.0568 10.9133309,717.3488 10.4423309,714.1298 C8.42133088,700.3698 7.15233088,686.5218 6.52533088,672.6298 C5.26733088,644.8318 6.32733088,616.9048 9.10633088,589.2288 C13.7037792,543.440524 20.148432,497.731996 26.8076389,452.183114 L28.2903309,442.0638 C35.3733309,393.8058 43.8063309,345.6288 57.0023309,298.6218 C69.1923309,255.1978 88.2091476,210.023917 114.37596,182.565507 C140.542773,155.107096 177.851015,131.251238 216.186015,116.638238 C219.506015,115.372238 285.465846,100.930892 289.909846,103.033892 L290.707931,102.408351 C303.858512,92.0264513 322.618404,73.7896024 341.933331,79.5328 L341.977712,79.4604573 C342.433147,78.6227176 344.217379,73.0198774 346.682162,65.649702 L349.475701,65.649702 Z" id="ðŸ‘•-Top" fill="#32436B"></path>
                <path d="M363.425752,25.393897 C379.401752,5.13989699 396.241923,-1.29889438 421.125923,0.210105619 C438.000923,-0.392894381 454.830923,3.98710562 469.119923,13.6631056 C482.211923,20.5041056 493.821923,29.9211056 502.108923,42.0431056 C509.196193,52.4071375 503.811555,78.0168647 510.284764,89.0979896 C510.221645,90.3036665 510.189496,91.403271 510.189496,92.396056 C510.189496,101.984881 516.862692,112.685416 530.209085,124.497661 L530.739382,124.964512 L530.739382,194.6441 C508.301128,201.543355 480.520611,204.992983 447.397831,204.992983 C414.76942,204.992983 380.83188,199.51459 345.58521,188.557804 L343.982187,188.055995 L337.241405,112.326726 L343.982187,91.3704374 L343.981301,73.8182494 L346.585954,65.9673611 C351.198415,52.1638797 358.258883,31.9451659 363.425752,25.393897 Z" id="âœ‹-Skin" fill="#FFDBB4"></path>
                <path d="M343.982187,188.055995 C383.47883,199.557153 416.708711,205.307732 443.671831,205.307732 C470.63495,205.307732 498.628341,199.557153 527.652002,188.055995 L520.589331,755.967698 L406.915331,757.3569 L343.982187,188.055995 Z" id="ðŸ‘•-Top" fill="#EEEEEE"></path>
                <path d="M148.955631,436.0248 C148.517631,435.2048 149.533631,434.4678 150.207631,435.0588 C165.520631,448.4968 173.537631,470.0778 175.218631,490.0258 C176.999631,511.1788 174.474631,533.0798 173.509631,554.2238 C172.435631,577.7758 171.470631,601.3368 170.159631,624.8778 C168.828631,648.7618 167.394631,672.6378 166.165631,696.5268 L163.400631,750.2648 L163.400631,750.2648 C163.106631,755.9918 163.743631,763.0348 161.545631,768.3798 C158.139652,776.665735 148.022365,775.38282 145.896114,768.457617 L145.829631,768.2298 L145.635631,768.3798 C143.759631,762.1388 145.163631,754.7268 145.481631,748.2738 L148.378631,689.5608 L148.378631,689.5608 C150.425231,648.0609 152.250701,606.56019 154.449176,565.068147 L155.196631,551.2378 C156.224431,532.6195 157.012471,514.04818 157.645315,495.435631 L157.850631,489.2298 C158.451631,470.5418 157.974631,452.8988 148.955631,436.0248 Z M520.165431,91.5109 C528.696431,90.7009 535.138431,93.5299 542.883431,96.5099 C546.257431,97.8069 549.452431,99.3059 552.689431,100.8579 C556.741795,102.80093 559.347826,106.236368 561.843446,109.868608 L563.177431,111.8259 C573.568431,127.0499 580.558431,144.6139 588.445431,161.1889 C597.671431,180.5779 606.989431,199.9249 616.018431,219.4059 L620.474283,229.003789 C622.701727,233.802956 624.922588,238.605122 627.110491,243.422289 L630.890867,251.806347 C634.688407,260.309181 638.093085,269.304332 632.680431,278.0759 C627.647431,286.2339 618.724431,292.5459 611.659431,298.8519 C605.765431,304.1139 599.870431,309.3749 593.973431,314.6349 C606.162431,326.8409 614.345431,342.2099 619.155431,358.6919 C625.989431,355.8449 634.330431,355.2989 641.396431,354.0669 C651.287431,352.3429 652.499431,367.3169 643.164431,367.1339 C636.270431,366.9989 628.182431,367.7029 621.110431,366.2509 C622.339431,371.6669 623.231431,377.1649 623.798431,382.6779 C626.770018,411.573247 620.276353,440.636279 613.50354,468.593558 L612.946431,470.8889 C605.591431,501.1489 598.617431,531.4879 592.378431,561.9989 C586.125431,592.5749 580.500431,623.2799 575.507431,654.0869 C570.425431,685.4439 566.829431,716.9739 562.964431,748.4969 C562.379431,753.2679 559.377431,757.3569 554.105431,757.3569 C549.713431,757.3569 544.693431,753.2579 545.245431,748.4969 C549.233431,714.1689 554.889431,680.0209 560.508431,645.9279 C570.186739,587.214977 582.3676,529.012818 596.381291,471.192843 L598.829244,461.123796 C605.134066,435.009152 610.853734,408.100926 607.691431,381.1639 C605.115451,359.22946 595.944378,335.842512 577.818445,322.218742 L577.266431,321.8089 C573.032431,318.7039 571.403431,312.7659 575.573431,308.6769 C578.227098,306.074567 580.883875,303.475344 583.542209,300.877752 L599.498431,285.2999 L602.715341,282.153638 C605.397615,279.534716 608.092717,276.931757 610.868431,274.4089 C612.548431,272.8829 617.103431,269.9729 617.436431,267.4629 C617.652777,265.824438 615.713058,262.947072 614.927008,261.438226 L611.325431,254.1689 L611.325431,254.1689 C609.280431,250.0239 607.298431,245.8489 605.301431,241.6799 C601.163431,233.0439 596.965431,224.4339 592.917431,215.7549 L568.596431,163.6429 L568.596431,163.6429 C561.735431,148.9409 555.623431,133.4199 546.653431,119.8279 L544.884819,117.178888 C543.408514,114.947943 542.104542,112.800456 541.171431,110.0719 C540.274431,107.4469 539.148431,104.5649 537.490431,102.3249 C533.605431,97.0679 526.179431,94.0859 519.966431,92.9849 C519.068431,92.8249 519.394431,91.5849 520.165431,91.5109 Z M333.111931,77.8235654 C333.651931,77.8235654 333.733931,78.5946 333.235931,78.7446 C325.739931,80.9986 318.576931,84.6356 312.732931,89.8856 C309.936931,92.3976 307.121931,95.2486 305.395931,98.6306 C304.735331,99.9248 304.369571,101.2919 304.101821,102.709301 L304.015931,103.1836 C303.570668,105.744337 302.933338,107.169727 301.632042,109.21983 L301.408931,109.5676 C293.981931,121.0366 288.776931,133.7756 284.017931,146.5306 L273.654056,174.3421 L273.654056,174.3421 L263.296931,202.1566 C259.959931,211.1186 256.620931,220.0816 253.282931,229.0436 C251.438931,233.9916 249.542931,238.9186 247.647931,243.8466 C246.827931,245.9816 245.945931,248.1006 245.195931,250.2616 C245.092931,250.5566 244.764931,252.3356 244.518931,252.7676 L244.602931,252.9146 L244.602931,252.9146 C246.691931,256.4286 252.262931,259.3646 255.420931,261.9176 L266.294931,270.7086 L266.294931,270.7086 C274.047931,276.9776 281.999931,283.0706 289.519931,289.6196 C294.243931,293.7316 291.304931,301.0956 286.036931,302.8126 C277.208931,305.6886 268.559931,309.1306 259.863931,312.3846 C256.351231,313.6986 252.693541,314.8425 249.221827,316.291608 L247.108455,317.204939 C246.282988,317.576092 246.67984,317.57263 246.712931,319.0956 C246.745931,320.6936 247.198931,322.3586 247.458931,323.9286 C250.387931,341.6386 253.492931,359.3186 256.769931,376.9676 C268.361931,439.3786 282.210931,501.3336 298.005931,562.8126 C305.983931,593.8596 314.539931,624.7536 322.692931,655.7546 C330.825931,686.6726 341.526931,717.1476 351.744931,747.4286 C354.627931,755.967698 341.086931,759.6446 338.274931,751.1416 C326.498931,715.5276 315.725931,679.6026 304.600931,643.7866 C284.834931,580.1466 269.258931,515.1246 255.482931,449.9456 C248.654931,417.6416 242.409931,385.2136 236.753931,352.6836 C235.682931,346.52535 234.632743,340.363163 233.604212,334.197459 L232.105112,325.128265 C231.077479,318.663967 230.492357,311.930403 235.516931,306.8146 C240.423264,301.821386 248.845975,300.051994 255.302119,297.710039 L255.770931,297.5376 C259.878931,296.0046 264.016931,294.5276 268.138931,293.0046 C262.066931,288.2246 256.069931,283.3386 250.012931,278.5616 C245.126931,274.7076 240.163931,270.9316 235.347931,266.9896 C231.376931,263.7376 228.138931,259.5626 227.724931,254.2746 C227.302556,248.869944 229.618655,243.854755 231.486662,238.898104 L231.665931,238.4186 C233.499931,233.4696 235.338931,228.5236 237.224931,223.5936 L248.894931,193.0746 L248.894931,193.0746 C256.310931,173.6816 263.413931,154.1316 271.213931,134.8896 C274.299931,127.2746 277.662931,119.7796 281.636931,112.5816 C283.552931,109.1106 285.607931,105.7136 287.840931,102.4376 C290.342931,98.7636 292.613931,96.9726 296.490931,94.9456 C302.689931,91.7046 307.554931,86.2706 313.779931,82.9296 C319.889931,79.6496 326.175931,77.8996 333.111931,77.8235654 Z M353.236331,43.2251 C353.473331,42.8181 354.101331,42.9990743 354.109331,43.4621 C354.271331,53.1001 351.981331,62.9491 350.572331,72.4791 C349.157331,82.0431 348.703331,92.1381 346.656331,101.6001 C346.613931,102.0409 346.528651,102.4753 346.408171,102.901764 L346.310331,103.2261 L346.310331,103.2261 C345.446331,105.8771 343.199331,108.1241 340.442331,108.8261 C341.309331,113.6301 342.126331,118.4421 342.813331,123.2801 C343.993331,131.595814 345.07027,139.923773 346.129424,148.254502 L347.397331,158.2521 C348.594331,167.6741 349.758331,177.1001 350.909331,186.5271 C353.836331,187.7511 356.823331,188.7611 359.882331,189.6361 C366.927331,191.6521 374.143331,192.4721 381.413331,193.1851 C396.218798,194.637367 411.137509,195.309989 425.995474,196.134707 L429.178331,196.3141 C445.882331,197.2711 462.677331,197.4411 479.339331,195.7271 C487.601331,194.8771 495.798331,193.4511 503.855331,191.4301 C507.949331,190.4031 511.928331,188.8691 516.014331,187.8651 C517.369331,187.5321 518.580331,186.7641 519.938331,185.9441 C520.541331,185.1821 521.387331,184.6051 522.489331,184.3821 L522.787831,184.3301 L522.787831,184.3301 L523.083331,184.2871 L523.185331,184.2411 L523.177331,184.2731 C524.013331,184.1601 524.807331,184.1611 525.556331,184.2631 C525.854331,176.9131 526.177331,169.5631 526.582331,162.2151 C527.669331,142.4791 530.670331,121.8911 526.664331,102.3271 C526.530331,101.6691 527.425331,101.4371 527.658331,102.0531 C535.519331,122.7641 534.636331,145.4111 535.032331,167.2091 C535.419331,188.5261 535.185331,209.8581 535.079331,231.1801 C536.606331,231.8301 537.968331,232.7111 539.047331,233.9471 C541.202331,236.4171 541.822331,240.7111 539.047331,243.0951 C537.817331,244.1521 536.456331,244.8861 535.012331,245.3951 C534.935331,263.9181 534.804331,282.4431 534.618331,300.9671 C538.141331,303.6881 538.470331,310.1491 534.485331,312.8341 C533.822331,372.8221 532.732331,432.8121 531.828331,492.7911 L529.934331,618.6291 L529.934331,618.6291 C529.682331,635.3951 529.264331,652.1601 529.114331,668.9241 L529.233331,668.9711 L529.233331,668.9711 L529.652521,669.165439 C530.358374,669.496768 531.408581,670.032663 531.626331,670.5811 C531.683331,670.7251 531.698331,670.8231 531.691331,670.8971 C532.847331,671.0591 533.992331,671.6051 534.983331,672.5451 C537.429331,674.8691 536.932331,678.3721 534.983331,680.7391 L534.462331,681.3721 L534.462331,681.3721 C533.247331,682.8471 530.940331,683.4151 529.056331,683.1151 C529.075331,693.5781 529.142331,704.0431 529.109331,714.5061 C529.098531,717.7017 529.050291,720.89766 528.995067,724.093548 L528.863283,731.756637 C528.775777,736.129447 528.388422,741.686555 523.909331,743.6511 C518.856331,745.8681 514.325331,744.0521 512.279331,738.9201 C511.725331,737.5301 511.844331,736.2351 512.046331,734.8611 C511.983331,732.7961 511.660331,730.4031 511.700331,728.4871 L511.867331,720.4981 L511.867331,720.4981 C511.893331,719.2661 511.943331,718.0351 511.978331,716.8031 L511.832331,716.8181 L511.832331,716.8181 C493.877805,717.689679 475.797627,717.26436 457.813719,717.253737 L449.815463,717.265367 C443.141942,717.271095 436.454141,717.23547 429.790141,716.98039 L427.292331,716.8741 C422.303331,716.6401 417.056331,716.5651 411.884331,716.1191 C412.543331,721.4281 413.159331,726.7411 413.708331,732.0591 C414.228331,737.1021 409.023331,741.3871 404.380331,741.3871 C398.866331,741.3871 395.712331,737.0531 395.052331,732.0591 C391.936331,708.5031 390.661331,684.7271 387.684331,661.1561 C385.017631,640.0439 382.705711,618.88391 380.35564,597.731534 L379.570331,590.6811 C370.970023,513.704792 362.620224,436.699514 354.633408,359.6574 L350.914699,323.642296 C347.15894,287.342424 343.381198,251.0403 340.195331,214.6871 C338.373331,193.9031 336.694331,173.1151 335.114331,152.3111 C333.955331,137.0271 333.227331,121.8281 332.753331,106.5741 C330.884331,104.6511 329.947331,101.8431 330.775331,98.9431 C331.259331,97.2511 331.822331,95.5681 332.416331,93.8881 C332.379331,92.2371 332.340331,90.5871 332.308331,88.9341 C332.278331,87.3701 333.866331,86.5651 335.137331,86.8241 C337.447331,81.2311 339.991331,75.6861 342.114331,70.1471 C345.550331,61.1811 348.382331,51.5201 353.236331,43.2251 Z M161.341231,140.1264 C197.260231,117.6164 240.016231,101.4184 282.839231,103.1624 C283.813231,103.2024 284.087231,104.6864 283.076231,104.9114 C260.234231,110.0114 237.141231,116.2234 215.516231,125.2644 C193.828231,134.3324 173.206231,146.5424 154.839231,161.2154 C120.951231,188.2874 94.6112309,223.5004 77.2672309,263.1934 C67.1082309,286.4454 59.9872309,310.9934 53.7692309,335.5504 C47.1892309,361.5394 41.7662309,387.8084 37.2572309,414.2354 C28.3512309,466.4364 23.1662309,519.2124 20.4072309,572.0794 C17.6002309,625.8574 18.7572309,679.6734 16.7552309,733.4594 C16.4092309,742.7784 3.08923088,742.5964 2.41223088,733.4594 C-2.12376912,672.3084 0.38923088,610.1814 4.58423088,549.0734 C8.35623088,494.1394 14.9432309,439.3204 25.5502309,385.2704 L26.4741576,380.58605 C36.3900215,330.579465 48.3503521,279.361188 72.3222309,234.0744 C92.7882309,195.4114 124.384231,163.2884 161.341231,140.1264 Z M660.130531,379.1236 C660.317531,378.5876 661.025531,378.5946 661.214531,379.1236 C665.309531,390.5857 665.456585,403.519368 666.544877,415.601893 L666.630531,416.5296 C667.674086,427.550044 668.460062,438.583921 669.190728,449.627016 L669.462531,453.7686 C672.395531,498.8186 676.061531,543.8186 681.586531,588.6316 C687.091531,633.2756 694.534531,677.6086 702.583531,721.8536 C703.480531,726.7796 701.298531,731.7976 696.132531,733.2166 C691.578531,734.4676 685.732531,731.6626 684.769531,726.7656 C679.772531,701.3696 675.731531,675.9396 672.126531,650.3236 C665.780531,605.2166 661.044531,559.9016 657.999531,514.4516 C656.471531,491.6246 655.530531,468.8066 655.156531,445.9306 C654.983817,435.317029 655.25947,424.67759 655.82496,414.074735 L655.960531,411.6286 C656.584531,400.7916 656.520531,389.4586 660.130531,379.1236 Z M272.003531,666.0661 C272.483531,665.8061 273.077531,666.3401 272.773531,666.8361 C265.818531,678.1391 256.409531,687.8851 247.315531,697.4911 C237.808531,707.5321 228.536531,717.8761 218.837531,727.7201 C211.829531,734.8311 200.556531,723.3601 207.952531,716.8351 C218.351531,707.6631 229.220531,698.9471 239.804531,689.9791 L244.43318,686.055711 C253.111167,678.724568 262.046561,671.45907 272.003531,666.0661 Z M602.344831,660.4052 C601.825831,659.4162 603.011831,658.6142 603.817831,659.2692 C609.427831,663.8312 614.455831,669.2732 619.872831,674.0872 C625.237831,678.8562 630.802831,683.3042 636.519831,687.6422 C642.260831,691.9982 648.126831,696.1802 654.150831,700.1372 C659.147831,703.4192 664.297831,706.0482 669.530831,708.7732 C671.953831,709.0852 674.197831,710.2742 675.993831,712.5292 C678.833831,716.0952 679.135831,722.8192 675.196831,725.9152 L674.489831,726.4702 L674.489831,726.4702 C669.892831,730.0832 664.435831,730.5232 659.910831,726.4702 C654.858104,721.945655 650.082236,716.966564 645.23011,712.185069 L643.771831,710.7572 C638.557831,705.6892 633.470831,700.4572 628.674831,694.9902 L624.333085,690.051342 C616.278511,680.866307 607.894754,670.966892 602.344831,660.4052 Z M576.502531,130.8713 C575.569531,130.2533 576.144531,128.5893 577.296531,128.9863 L579.409529,129.716599 C588.237228,132.784163 597.323716,136.186152 605.338531,140.9093 C613.951531,145.9843 621.904531,152.0303 629.502531,158.5163 C645.229531,171.9413 658.609531,188.4503 669.980531,205.6573 C692.796531,240.1863 706.906531,279.7303 718.298531,319.2973 C730.445531,361.4853 739.797531,404.5813 747.433531,447.7993 C755.192531,491.7203 761.178531,536.0373 765.112531,580.4663 C767.050531,602.3523 768.351531,624.2513 769.005531,646.2133 C769.342531,657.5113 769.331531,668.8013 769.237531,680.1033 C769.213531,683.0098 769.232781,685.9148 769.265781,688.8198 L769.376531,697.5363 C769.435531,703.0473 770.095531,708.8383 768.785531,714.2223 C766.677531,722.8893 752.347531,721.2723 752.818531,712.4143 C752.386531,709.4673 752.369531,706.4213 752.481531,703.3693 C752.413531,702.9753 752.339531,702.5753 752.257531,702.1663 C752.022531,700.9953 752.222531,699.9113 752.682531,698.9793 C752.756531,697.5153 752.823531,696.0603 752.847531,694.6303 C752.941531,688.8113 752.935531,683.0153 752.774531,677.1983 C752.435531,664.9323 751.947531,652.6663 751.454531,640.4063 C750.469531,615.9063 749.099531,591.3953 747.113531,566.9553 C740.203531,481.8853 725.612531,396.3303 701.103531,314.4873 C689.720531,276.4813 674.027531,239.1723 651.522531,206.3303 C641.532531,191.7503 630.261531,178.2833 617.766531,165.7843 C605.192531,153.2073 591.336531,140.6953 576.502531,130.8713 Z M406.915331,679.2711 L408.613587,691.555836 C409.462491,697.69926 410.303331,703.8447 411.101331,709.9941 C416.522331,709.2521 422.068331,708.9411 427.292331,708.4781 C436.437331,707.6681 445.645331,707.2761 454.817331,706.8971 C473.784331,706.1151 492.846331,704.7581 511.832331,704.8531 C512.027331,704.8541 512.211331,704.8671 512.395331,704.8821 L513.337331,680.6431 L513.337331,680.6431 L499.997331,680.6221 L499.997331,680.6221 C488.695331,680.6041 477.395331,680.5081 466.093331,680.4111 C455.914456,680.3236 445.731753,680.3096 435.5546,680.097782 L431.193331,679.9941 C423.475331,679.7861 414.953331,680.2151 406.915331,679.2711 Z M514.456331,644.0881 C513.912331,644.1521 513.358331,644.2061 512.769331,644.2311 C510.127331,644.3421 507.464331,644.2651 504.820331,644.2871 C499.190331,644.3361 493.561331,644.3741 487.930331,644.3731 C476.670331,644.3721 465.411331,644.4401 454.153331,644.5761 C442.563331,644.7161 430.981331,644.9171 419.390331,644.9401 C413.774331,644.9501 408.176331,644.8011 402.562331,644.6441 C403.470331,652.6221 404.419331,660.5941 405.467331,668.5471 C414.185289,667.369308 423.561742,667.963116 432.081976,667.881744 L433.188331,667.8671 C444.817331,667.6681 456.456331,667.8151 468.088331,667.8291 C480.054331,667.8431 492.019331,667.8821 503.986331,667.9801 L513.817331,668.0611 L513.817331,668.0611 L513.836331,667.5661 L513.836331,667.5661 C514.124331,659.7481 514.310331,651.9201 514.456331,644.0881 Z M398.237331,605.9221 C399.327331,615.3391 400.350331,624.7721 401.393331,634.2021 C402.086331,634.0951 402.788331,634.0031 403.503331,633.9281 C409.127331,633.3401 414.739331,632.8361 420.383331,632.4861 C431.634331,631.7891 442.884331,631.4211 454.153331,631.1191 C465.741331,630.8081 477.331331,630.5701 488.923331,630.4061 C494.555331,630.3271 500.182331,630.3351 505.814331,630.3741 C508.456331,630.3921 511.125331,630.3091 513.762331,630.4861 C514.076331,630.5071 514.377331,630.5401 514.675331,630.5741 L514.873331,616.416026 C514.907442,614.056767 514.942998,611.697767 514.981331,609.3391 C506.276902,609.875814 497.427617,609.670998 488.729716,609.673428 L486.725331,609.6781 C475.796331,609.7281 464.863331,609.5781 453.936331,609.3511 C442.663331,609.1161 431.413331,608.7481 420.160331,608.0261 C415.601188,607.734671 411.075106,607.346263 406.541153,606.846392 L404.273331,606.5871 C402.300331,606.3541 400.268331,606.1661 398.237331,605.9221 Z M515.879331,565.9681 C494.916474,567.63191 474.065181,568.327012 453.046434,568.5337 L449.892331,568.5611 C431.318331,568.7021 412.591331,569.4681 393.973331,568.9761 C395.086331,578.6271 396.196331,588.2781 397.315331,597.9271 C399.981331,597.8031 402.660331,597.8021 405.266331,597.7081 C410.567331,597.5171 415.850331,597.4691 421.154331,597.4571 C432.081331,597.4321 443.008331,597.5271 453.936331,597.5051 C465.198331,597.4811 476.458331,597.2911 487.718331,597.0791 C496.847331,596.9081 506.073331,596.2211 515.227331,596.2461 L515.879331,565.9681 L515.879331,565.9681 Z M516.766331,524.7941 C514.337154,525.600688 511.4695,525.652564 508.325108,525.796772 L500.209979,526.200956 C496.448771,526.3853 492.687131,526.5587 488.923331,526.6961 C476.382331,527.1551 463.841331,527.5841 451.298331,527.9831 C438.445331,528.3911 425.530331,528.6281 412.675331,528.2231 C406.378331,528.0241 400.134331,527.6941 393.856331,527.1691 C392.304331,527.0391 390.722331,526.9541 389.137331,526.8421 C390.598331,539.6291 392.065331,552.4141 393.537331,565.1991 C412.066331,562.9251 430.738331,561.5091 449.244331,559.1571 L465.977675,557.020381 C482.703143,554.886163 499.414831,552.7916 516.201331,551.0261 L516.766331,524.7941 L516.766331,524.7941 Z M517.659331,483.1651 C514.095096,484.0451 510.033033,484.001197 506.61032,484.217254 L505.976331,484.2611 C499.491331,484.7531 492.989331,484.9991 486.489331,485.1591 C473.749331,485.4731 461.001331,485.6301 448.257331,485.7081 L440.593899,485.75574 C430.377771,485.81558 420.167531,485.8415 409.948331,485.6031 C403.393331,485.4511 396.853331,485.1301 390.303331,484.8021 C388.341331,484.7031 386.335331,484.6381 384.323331,484.5371 C385.692331,496.6431 387.075331,508.7461 388.455331,520.8501 C390.607331,520.5081 392.769331,520.2481 394.830331,519.9001 C400.109331,519.0081 405.378331,518.2961 410.695331,517.6591 C422.211331,516.2791 433.787331,515.2861 445.357331,514.4481 C457.235331,513.5871 469.123331,512.8591 481.003331,512.0261 L489.417081,511.432975 C492.221581,511.23835 495.026331,511.0501 497.832331,510.8781 C502.624331,510.5841 508.194331,510.9161 512.947331,509.8731 C514.234331,509.3371 515.663331,509.2141 517.094331,509.5201 L517.659331,483.1651 L517.659331,483.1651 Z M518.738331,434.4381 C517.505331,436.0041 515.663331,436.8251 513.467331,437.1091 C502.02822,438.592822 490.294757,438.831347 478.758916,439.530577 L476.725331,439.6591 C464.814331,440.4441 452.896331,441.0601 440.976331,441.6931 C428.731331,442.3431 416.488331,442.8731 404.233331,443.3001 C399.030581,443.481225 393.8018,443.502334 388.591202,443.43578 L386.359331,443.4021 C384.219331,443.3661 381.978331,443.3711 379.732331,443.2981 C380.975331,454.6181 382.230331,465.9371 383.503331,477.2531 C385.793331,477.0041 388.082331,476.8141 390.303331,476.5791 C396.849331,475.8871 403.387331,475.2031 409.948331,474.6861 C422.380331,473.7061 434.821331,473.1171 447.276331,472.5011 C460.019331,471.8701 472.769331,471.4501 485.514331,470.8551 C491.693331,470.5661 497.870331,470.2071 504.031331,469.6391 C508.349331,469.2421 513.478331,467.7721 517.983331,468.3121 C518.229331,457.0201 518.485331,445.7291 518.738331,434.4381 Z M519.743331,390.7881 C519.548331,391.0901 519.320331,391.3821 519.043331,391.6541 C514.007111,396.62956 507.800163,396.245988 501.1265,396.767958 L500.717331,396.8011 C494.176331,397.3511 487.632331,397.8741 481.084331,398.3461 C467.995331,399.2911 454.880331,399.9521 441.772331,400.5411 C428.357331,401.1441 414.856331,401.5591 401.428331,401.2851 C392.829331,401.1091 383.823331,401.1401 375.052331,400.3021 C376.399331,412.7691 377.754331,425.2351 379.119331,437.7001 C381.585331,437.2351 384.067331,436.8791 386.418331,436.5091 C392.343331,435.5771 398.274331,434.6401 404.233331,433.9541 C416.141331,432.5831 428.052331,431.3011 439.983331,430.1441 C450.186664,429.154933 460.386525,428.150489 470.597382,427.246507 L476.725331,426.7171 C488.908331,425.6921 501.245331,424.0021 513.467331,423.7521 C515.481331,423.7111 517.759331,424.8071 518.913331,426.5371 C519.183331,414.6201 519.463331,402.7041 519.743331,390.7881 Z M520.589331,355.4511 C517.478331,355.8291 514.126331,355.6141 511.255331,355.7081 C503.996331,355.9451 496.736331,356.1651 489.476331,356.3791 L445.915331,357.6651 L445.915331,357.6651 C431.084331,358.1021 416.201331,358.4301 401.364331,358.2201 C394.837531,358.1283 388.282381,358.1175 381.75793,357.762693 L379.584331,357.6311 C376.899331,357.4521 373.604331,357.4271 370.386331,357.1001 L374.185331,392.2871 L374.185331,392.2871 C382.913864,391.026167 391.908958,390.55446 400.563272,389.815032 L402.412331,389.6521 C415.176331,388.4891 428.001331,387.7201 440.788331,386.8541 C453.905331,385.9661 467.003331,384.8881 480.102331,383.7851 C486.649331,383.2351 493.195331,382.6861 499.737331,382.0841 L500.545484,382.00453 C506.725275,381.359249 512.536289,379.986517 518.009331,383.6301 C518.810331,384.1621 519.437331,384.8741 519.866331,385.6711 C520.105331,375.5981 520.339331,365.5241 520.589331,355.4511 Z M521.604331,314.3861 C495.075331,315.4541 468.542331,316.2641 441.993331,316.6201 C427.049331,316.8201 412.124331,316.6791 397.182331,316.3671 C390.70322,316.2311 384.17038,315.921273 377.696185,315.424977 L375.271331,315.2301 C372.193331,314.9711 368.959331,314.7831 365.739331,314.4731 C367.070331,326.5711 368.390331,338.6711 369.700331,350.7731 C372.867688,350.184386 376.178178,349.912978 378.953645,349.557747 L379.584331,349.4741 C386.481331,348.5251 393.443331,347.9721 400.374331,347.3621 C413.870331,346.1731 427.433331,345.4071 440.965331,344.7561 C454.822331,344.0891 468.686331,343.5241 482.545331,342.9081 L496.405553,342.287656 C498.715442,342.185433 501.025331,342.084767 503.335331,341.9871 C506.636331,341.8481 509.936331,341.7151 513.236331,341.5781 C514.864331,341.5111 516.556331,341.2901 518.186331,341.3741 L518.650187,341.31178 C518.864051,341.28454 519.052931,341.2627 519.226331,341.2441 C519.669664,340.9066 520.147025,340.626739 520.652627,340.414355 L520.959331,340.2951 L521.604331,314.3861 Z M361.389331,275.4701 C362.621331,286.3611 363.839331,297.2551 365.041331,308.1501 C368.825331,307.7181 372.654331,307.4791 376.267331,307.1541 C383.552331,306.5011 390.871331,305.9291 398.178331,305.5931 L412.781998,304.914915 C422.516886,304.464767 432.251331,304.029433 441.993331,303.6741 C468.655331,302.7011 495.316331,301.5861 521.962331,300.2251 C522.150331,292.8361 522.344331,285.4471 522.542331,278.0581 C521.263331,279.4281 519.415331,280.3291 516.987331,280.3231 C489.013331,280.2481 461.017331,280.4101 433.046331,279.9501 C419.045331,279.7191 405.060331,279.3801 391.075331,278.6621 C384.232331,278.3111 377.351331,277.5951 370.560331,276.6541 C367.664331,276.2531 364.495331,275.9671 361.389331,275.4701 Z M356.912331,236.6611 C358.227331,247.8171 359.517331,258.9771 360.786331,270.1391 C364.260331,269.5191 367.849331,269.1891 371.090331,268.7481 C378.054331,267.8011 385.061331,267.0471 392.075331,266.6511 C405.723331,265.8791 419.379331,265.4901 433.046331,265.2001 C461.015331,264.6061 489.012331,264.6101 516.987331,264.3891 C519.615331,264.3681 521.566331,265.4081 522.847331,266.9601 C523.041331,259.9931 523.246331,253.0261 523.457331,246.0581 C520.755331,245.7731 518.076331,245.3691 515.597331,245.1961 C507.978331,244.6641 500.356331,244.1781 492.731331,243.7411 C476.819331,242.8281 460.892331,242.0491 444.969331,241.3561 C429.042331,240.6631 413.110331,239.9861 397.178331,239.3961 L390.210534,239.141645 C379.131161,238.72955 367.863766,238.209187 356.912331,236.6611 Z M351.902331,194.6441 C353.271331,205.9431 354.619331,217.2441 355.964331,228.5471 L356.373331,232.0451 L356.373331,232.0451 C369.698331,229.4551 383.741331,228.6961 397.178331,228.1251 C413.113331,227.4471 429.020331,227.0981 444.969331,227.1471 C460.902331,227.1951 476.811331,227.5721 492.731331,228.2301 C500.686331,228.5581 508.640331,228.9381 516.590331,229.3701 C518.776331,229.4881 521.339331,229.4251 523.977331,229.4631 C524.034331,227.6871 524.083331,225.9111 524.144331,224.1361 C524.386331,216.9421 524.623331,209.7481 524.870331,202.5551 C519.493146,205.316878 512.501535,206.430848 507.09763,207.607908 L506.481331,207.7441 C497.558331,209.7481 488.447331,211.0471 479.339331,211.8411 C461.453331,213.4011 443.381331,212.8181 425.512331,211.3071 L422.382185,211.03931 C406.690647,209.678756 390.423206,207.954225 375.211331,204.0711 C367.965331,202.2221 360.474331,199.6341 353.981331,195.8831 C353.306331,195.4931 352.609331,195.0801 351.902331,194.6441 Z M502.989731,60.3683 C503.144731,59.7573 504.059731,59.6183 504.360731,60.1893 C506.473731,64.2033 507.259731,69.0213 508.726731,73.3223 C510.305731,77.9463 511.778731,82.6043 513.520731,87.1723 C517.159731,96.7163 521.452731,105.8873 526.570731,114.7283 C531.639731,123.4823 517.446731,129.7313 513.716731,120.1473 C509.865731,110.2573 506.700731,100.0313 504.785731,89.5803 C503.850731,84.4813 503.017731,79.3123 502.747731,74.1313 C502.514731,69.6813 501.888731,64.7093 502.989731,60.3683 Z" id="ðŸ–-Ink" fill="#191919"></path>
            </g>
            <g id="HEAD" transform="translate(232.905271, 0.000000)">
                <path d="M359.503143,160.318564 C370.857139,152.146564 353.926932,125.259564 348.175093,117.259564 C343.171671,106.823564 338.168249,96.386564 333.163829,85.949564 C333.772542,77.390564 325.432175,69.775564 317.190599,72.379564 C310.020757,67.226564 298.012146,69.693564 294.36785,77.761564 C215.08846,43.159564 77.9124725,57.554564 70.8184704,164.326564 C55.4828923,194.726564 40.2830274,225.386564 26.6767932,256.607564 C7.79870458,257.623564 -1.35194943,280.606564 9.88728897,295.459564 C11.3831265,319.578564 26.641867,321.487564 47.0127995,320.414564 C55.1935042,322.573564 63.6735759,323.743564 69.8086054,330.074564 C74.4717468,334.849564 77.6410464,340.904564 80.6995801,346.779564 C94.8147383,373.885564 112.747825,397.333564 137.056432,416.084564 C174.85951,444.435564 226.033321,464.790564 273.171662,450.989564 C374.514407,411.107564 394.416331,251.721564 359.503143,160.318564 L359.503143,160.318564 Z" id="âœ‹-Skin" fill="#FFDBB4"></path>
                <path d="M148.006582,4.99306405 C214.216603,-10.416936 288.599346,10.263064 334.552194,61.213064 C337.785358,64.793064 337.436097,69.453064 334.592109,72.473064 C335.919304,73.553064 337.216561,74.663064 338.533776,75.773064 C339.910865,76.943064 339.711287,79.293064 338.533776,80.483064 C337.366244,81.653064 334.941371,81.893064 333.833713,80.483064 L332.194139,78.415064 C331.377705,77.381864 330.570612,76.345064 329.792257,75.283064 C328.844261,75.633064 327.916223,76.003064 326.988185,76.363064 C341.028502,85.713064 352.733755,98.133064 360.756793,113.083064 C369.438439,129.253064 374.97673,146.513064 378.579114,164.473064 C385.000625,196.510959 385.93199,229.369291 385.073184,261.948047 L385.025485,263.693064 C383.917827,302.963064 380.095907,342.883064 363.570844,378.993064 C350.31886,407.933064 326.76865,434.543064 297.241076,447.213064 C280.237025,454.503064 261.955675,457.613064 243.484725,456.313064 C233.745316,455.633064 224.035844,454.093064 214.555886,451.743064 L212.278681,451.175986 C203.642669,449.008659 194.686002,446.496037 187.313481,441.543064 C179.749472,436.453064 184.848692,426.343064 193.191055,427.573064 C203.23981,429.063064 212.809578,433.263064 222.778502,435.443064 C232.52789,437.583064 242.397025,438.703064 252.385907,438.413064 C270.058544,437.913064 286.154514,432.473064 300.763628,422.593064 C356.615548,384.803064 363.401202,308.823064 364.858122,247.423064 C365.566624,217.423064 364.468945,187.033064 357.583502,157.723064 C350.967489,129.543064 339.581561,101.793064 323.465633,77.723064 C319.913143,79.053064 316.360654,80.163064 312.57865,80.513064 C305.837124,84.5741752 297.819975,84.6816221 290.024744,84.683151 L288.938628,84.683064 C280.82578,84.673064 272.712932,84.193064 264.64,83.463064 C236.070401,80.923064 206.672552,74.483064 177.95327,78.583064 L176.780488,78.7548649 C164.955141,80.5370911 150.30173,84.2772576 141.620084,92.803064 C132.239915,102.003064 138.526624,119.413064 145.950928,124.943064 C150.75078,128.523064 152.247616,136.583064 145.950928,139.833064 C133.517215,146.263064 103.420844,142.693064 100.037996,146.253064 C95.9770159,150.508499 96.2611741,156.99373 96.1446579,162.51635 L96.1362445,162.883064 C95.7171305,178.603064 96.1063077,194.273064 97.4335018,209.953064 C98.7108014,225.113064 101.614662,240.303064 102.263291,255.503064 C102.482827,260.513064 96.4455904,262.033064 93.1425736,259.283064 C92.4939449,258.743064 91.8253584,258.233064 91.1567719,257.773064 C85.1594512,253.513064 78.3438605,251.713064 71.0293246,250.573064 C70.6451369,250.511814 70.3449902,250.320408 70.1288845,250.065837 L70.0414132,249.953064 L69.2630588,250.593064 C70.779852,252.483064 72.0771094,254.623064 73.1049364,257.023064 C73.3144934,257.503064 72.8654428,258.113064 72.3365609,257.793064 C62.2179533,251.763064 51.2012445,249.203064 39.5558647,251.643064 C29.0780166,253.833064 19.5980588,260.493064 16.5245567,271.153064 C13.7005272,280.963064 15.776139,292.273064 22.1127423,300.343064 C31.4829322,312.303064 46.7007592,311.223064 60.3518985,311.773064 C63.0262445,311.883064 66.0099364,313.183064 67.2572993,315.743064 C68.724198,318.763064 68.624409,320.823064 67.2572993,323.833064 C67.0677001,324.263064 66.8182276,324.653064 66.5288394,325.003064 C67.684729,325.961397 68.7782504,327.010008 69.8440527,328.079453 L73.4084056,331.67665 C75.8466909,334.144289 78.271157,336.633064 80.6090715,339.183064 C87.4745567,346.683064 93.9309069,354.663064 100.008059,362.813064 L100.569561,363.574165 C107.687825,373.332361 115.071597,387.42409 127.410126,390.503064 C131.641181,391.563064 135.572869,393.653064 136.830211,398.243064 C138.087552,402.833064 135.123818,407.283064 131.142236,409.203064 C124.236835,412.533064 115.475358,408.573064 109.777405,404.373064 C97.4894181,395.302202 89.4613254,380.50406 81.913958,367.477022 L79.8472056,363.916755 C75.960306,357.195252 72.1631775,350.394314 68.9237761,343.333064 C67.0776791,339.303064 65.0918774,335.303064 63.3755061,331.213064 C62.8765609,330.023064 62.3776158,328.813064 61.9884385,327.573064 C61.4395989,327.693064 60.8807803,327.773064 60.3518985,327.803064 C43.8767297,328.883064 24.9068352,326.263064 13.0020039,313.733064 C-3.41329141,296.463064 -5.33921968,265.583064 13.3113499,249.103064 C15.2771938,247.363064 17.4925103,245.833064 19.887447,244.523064 C16.5544934,238.873064 14.3491558,232.323064 12.7225947,226.173064 C10.3476158,217.193064 9.02042167,208.043064 8.36181407,198.783064 C7.03461998,179.893064 9.23995753,160.663064 13.7703795,142.313064 C30.1956537,75.803064 80.6290293,20.673064 148.006582,4.99306405 Z M28.6889392,280.982764 C25.4288316,262.034164 63.2656403,276.046327 71.5169727,277.366685 L71.7578843,277.402764 C81.2220755,278.719464 75.9473202,295.355127 66.6328025,290.399579 L66.3493189,290.242764 C61.3106382,287.349431 55.7677789,285.274942 50.4833836,282.824133 L49.3552472,282.292764 C45.1541291,280.272764 31.273475,271.202764 29.7666607,280.982764 C29.6868295,281.522764 28.7787493,281.512764 28.6889392,280.982764 Z" id="ðŸ–-Ink" fill="#191919"></path>
            </g>
            <g id="FACE" transform="translate(398.999833, 184.000177)" fill="#000000">
                <path d="M138.581004,156.822489 C135.281145,161.137157 129.305919,164.441522 122.614395,166.021847 C116.237827,167.527789 109.190584,167.46634 103.108781,165.148959 L102.586706,164.941064 C98.0395538,163.05256 93.6747837,159.239259 92.0173437,155.25974 C91.3583596,153.677517 91.1354099,152.069471 91.5864045,150.568795 C91.9920887,149.218888 92.9431784,147.97647 94.5273405,146.909094 C95.0246835,146.574022 95.6918119,146.549632 96.3273825,146.6617 C97.1160004,146.800755 97.8932983,147.169728 98.3622633,147.668003 C100.964262,150.434816 104.739146,153.132237 109.207251,153.086341 C112.654674,153.050991 115.470038,151.689714 118.20017,150.151324 L120.118607,149.052605 C121.969628,147.996453 123.846823,147.004052 125.970715,146.550851 C129.772593,145.738984 134.38389,147.2222 137.193995,149.669754 C138.419298,150.736974 139.309488,151.991449 139.551403,153.342501 C139.754581,154.477215 139.469249,155.661349 138.581004,156.822489 Z M118.81447,81.3670419 C126.365849,85.9570876 137.871831,96.6601785 129.748285,108.039461 C120.186096,118.07295 106.418701,106.568869 99.6343679,101.366022 C93.3436161,97.3337856 86.2756039,107.704395 92.112167,112.41271 C141.135902,148.707947 161.030772,82.5672749 122.633852,75.9702736 C118.406213,75.2433124 116.836058,79.9470611 118.81447,81.3670419 Z M33.6231666,10.8210874 L35.7926084,10.2262493 L38.0046667,9.62923878 L39.500492,9.23373896 C49.7753257,6.54435482 61.1082483,4.17755682 71.2971666,5.33308743 C75.0131666,5.75508743 78.0291666,7.84608743 78.5551666,11.7390874 C78.9981666,15.0240874 76.8751666,19.2620874 73.2621666,19.8460874 C61.2951666,21.7820874 49.0441666,21.1540874 37.0221666,23.1500874 C31.0351666,24.1430874 25.0941666,25.3760874 19.1301666,26.4870874 C14.5951666,27.3330874 9.90916663,27.6300874 5.33516663,28.3140874 L6.38616663,28.4600874 C6.75416663,28.5100874 6.66216663,29.1290874 6.29916663,29.1040874 C4.79154163,28.9535874 3.28161976,28.9301812 1.76940101,29.0358784 L1.12116663,29.0890874 C0.13416663,29.2280874 -0.44783337,28.0500874 0.43216663,27.4520874 C6.00516663,23.6710874 10.7341666,19.5730874 16.9741666,16.7860874 C22.3711666,14.3760874 27.9261666,12.3890874 33.6231666,10.8210874 Z M127.162267,5.02228743 C135.062267,-2.96371257 151.862267,0.105287428 161.260267,3.75828743 C166.624267,5.84428743 171.724267,8.48128743 175.972267,12.4262874 L176.386379,12.81438 L177.024302,13.4278444 C179.891748,16.235164 183.089378,20.0981763 182.634267,24.1452874 C182.565267,24.7622874 182.229267,25.4672874 181.532267,25.5912874 C177.768267,26.2582874 174.071267,24.2722874 170.595267,23.0772874 L168.293204,22.287349 C164.83625,21.1098164 161.357267,19.984742 157.793267,19.1722874 C153.361267,18.1642874 148.840267,17.5812874 144.290267,17.6392874 C139.691267,17.6992874 134.751267,18.9972874 130.370267,17.1712874 C125.484267,15.1362874 122.951267,9.28028743 127.162267,5.02228743 Z M49.1162223,69.429882 C47.1005248,71.4882309 44.4385395,72.6495934 41.0316303,71.9587236 C38.3693817,71.4193346 33.3004919,68.7424231 29.2512286,64.6199469 C26.4809905,61.7996212 24.1646856,58.2754839 23.5350149,54.1930201 C23.3887811,53.2449142 22.8856504,52.637111 22.2250195,52.2543403 C21.7032681,51.9520366 21.0153649,51.8001626 20.2660782,51.8760254 C19.6299371,51.9404326 18.9544309,52.1707726 18.4324494,52.4762057 C17.4395033,53.0572198 17.0334292,53.8820729 16.9508773,54.4980102 C16.1542749,60.4416325 18.4501465,66.3390733 22.028816,71.3115925 C26.8584468,78.0223077 33.9509488,82.9398928 38.1196473,84.0908932 C45.2534401,86.0617026 52.7703328,84.4927975 58.3124065,79.5277039 C62.7442775,75.5577679 65.0158962,70.3856315 67.1235844,65.0670686 L67.5300132,64.0361244 C68.0040594,62.8292957 68.4745176,61.6313417 68.9729502,60.4460911 C69.9719344,58.0710518 69.6519912,56.0181229 68.6833637,54.4180078 C67.6102998,52.6453699 65.6296274,51.3975821 63.4245902,51.0143389 C61.3865419,50.660119 59.2054851,51.0475591 57.4837601,52.2924547 C56.0293129,53.3440947 54.8563975,55.0103574 54.4396742,57.4743302 C53.7619919,61.4808864 52.1899049,66.0778842 49.4178354,69.1109889 L49.1162223,69.429882 Z M171.440941,46.2403337 C169.77873,45.374234 168.478312,45.1131003 166.634427,45.6655431 C165.614763,45.971816 164.60699,46.5588039 163.817991,47.347803 C163.036049,48.1297447 162.471879,49.1021507 162.252586,50.1808997 C161.713239,52.8432254 160.256579,55.3353347 158.180776,56.9599459 C156.406551,58.3485303 154.167077,59.084513 151.683077,58.6693001 C149.002652,58.2218468 146.448895,56.5027693 144.690036,54.4760158 C144.200151,53.9108586 143.798502,53.2817837 143.410134,52.6450646 L143.178108,52.2625661 C142.3115,50.831873 141.46919,49.5020086 140.27401,48.4513268 C139.820957,48.0515739 139.138274,47.7747029 138.477067,47.7747029 C138.208336,47.7747029 137.935611,47.8184311 137.67573,47.8994261 C135.007845,50.5771226 134.494789,52.6084299 134.580802,54.6232171 C134.670999,56.7360187 135.503976,58.8752097 136.850072,60.871138 C140.007683,65.5530947 146.002927,69.3918631 150.048565,70.261362 C155.589039,71.4519942 161.091392,70.0227194 165.502924,66.9282357 C170.042132,63.7441936 173.405674,58.8006677 174.454327,53.2295581 C174.706598,51.8878035 174.599397,50.4395311 174.088405,49.1838165 C173.589088,47.9567936 172.718947,46.9058719 171.440941,46.2403337 Z" id="ðŸ–-Ink"></path>
            </g>
            <g id="FACIAL-HAIR" transform="translate(310.999934, 272.999723)" fill="#000000">
                <path d="M117.724748,95.193032 C125.820991,76.2257701 143.491513,62.2858787 163.836481,57.1894344 C178.77663,53.4564466 194.455798,53.5755739 209.685563,55.0571566 C217.664961,55.82798 226.223589,56.4596548 233.743597,59.4228202 C240.165065,61.9545247 245.398112,66.7396365 249.332884,72.3566369 C254.016661,79.0127473 257.202428,86.6308855 259.439456,94.4392268 C259.757034,95.5494127 260.055637,96.6676073 260.334267,97.7918082 C259.36156,103.683102 257.296304,108.697458 251.839554,112.401415 C246.514629,116.018279 240.161071,117.497859 233.827486,118.023421 C233.206311,117.725102 232.606109,117.418775 232.05584,117.104439 C222.185954,111.454403 215.239184,98.1021397 202.781736,99.90907 C191.664507,101.522794 184.34623,115.510737 177.735014,123.713499 C156.513211,126.186141 135.307387,119.809329 118.040329,107.674365 C117.163494,103.520928 117.112562,99.332454 117.724748,95.193032 M274.758103,80.8046615 C273.060358,76.0405723 270.922199,71.4266434 268.387567,67.0800001 C260.0087,52.7056446 247.14579,41.2524095 231.876079,34.7054157 C195.754073,19.2388934 149.016172,30.1415403 119.844931,55.5076378 C109.880171,64.1789009 99.8045583,76.9215133 96.7576067,90.6281556 C95.8478155,90.8083481 94.9889566,91.2818539 94.2818961,91.9485661 C73.2058992,78.6793912 51.5017369,65.9127532 34.5183023,47.519104 C22.1846896,34.1548275 13.6060877,18.338932 8.35306724,0.959366195 C7.92363781,-0.471161978 5.61670297,-0.261938473 5.68661009,1.32075225 C5.70658355,1.69114793 5.72655701,2.06054254 5.74653047,2.43093821 C5.52682239,1.75021102 4.48820238,2.10058531 4.40830853,2.76129112 C1.58206368,23.8738448 -1.95323907,46.2577565 1.30243521,67.4804278 C3.24984774,80.1439557 9.00220475,89.4148595 16.6919876,99.4255535 C24.9310406,110.156016 34.2586473,120.136678 43.7959753,129.707903 C49.8479342,135.783393 56.1695349,142.790879 63.5796892,147.245638 C72.198238,152.421166 81.9752476,156.35637 91.1730268,160.349636 C100.530594,164.423989 110.027975,168.188009 119.705117,171.451496 C139.049415,177.99849 159.04285,182.523323 179.385821,184.505441 C195.674179,186.08713 214.289446,187.809971 229.898706,181.682425 C241.86281,176.98741 251.519978,168.499342 259.179801,158.287433 C267.518721,147.165552 274.110962,134.497019 277.755121,121.137748 C281.542089,107.260924 275.556042,83.0420517 274.758103,80.8046615" id="ðŸ–-Ink"></path>
            </g>
        </g>
    </g>
</svg>