<?xml version="1.0" encoding="utf-8"?>
<!-- Generator: Adobe Illustrator 27.1.1, SVG Export Plug-In . SVG Version: 6.00 Build 0)  -->
<svg version="1.1" id="Layer_1" xmlns="http://www.w3.org/2000/svg" xmlns:xlink="http://www.w3.org/1999/xlink" x="0px" y="0px"
	 viewBox="0 0 2011 1833" style="enable-background:new 0 0 2011 1833;" xml:space="preserve">
<style type="text/css">
	.st0{fill-rule:evenodd;clip-rule:evenodd;fill:#32436B;}
	.st1{fill-rule:evenodd;clip-rule:evenodd;fill:#FFDBB4;}
	.st2{fill-rule:evenodd;clip-rule:evenodd;fill:#EEEEEE;}
	.st3{fill-rule:evenodd;clip-rule:evenodd;fill:#191919;}
	.st4{fill-rule:evenodd;clip-rule:evenodd;}
	@media (prefers-color-scheme: dark) {
		path{
			stroke:#fff;
			stroke-width:2;
		}
	}
</style>
<g id="Gabriel">
	<g id="a-person_x2F_bust" transform="translate(714.000000, 404.999936)">
		<g id="BODY" transform="translate(0.000000, 352.000064)">
			<path id="_xD83D__xDC55_-Top" class="st0" d="M256.2,14.1l-12.2,30.2l6.7,95.9l5,0.8c53,8.2,89,12.4,108,12.4l0.6,0
				c19.2,0,42.1-4.3,68.9-12.8l1.2-0.4l3.1-71.8h-7.3L417,37.5l0,0c0.1,0.2,0.3,0.5,0.5,0.7c5.5,8.1,8.7,1.6,21.6,4.4
				c15.4,3.4,22.3,19.1,35.9,30.7c6.3,5.4,19.6,8,25.9,11.7l6.7,3.9c20.9,12.3,44.9,27.3,57.5,46.8c14.8,22.8,24.9,44.5,34.3,69.9
				c20.3,54.8,34.3,110.7,44.4,168.1c10.2,58.3,16.3,117.2,21,176.2c2.2,27.3,4,54.6,5.5,82l0.4,6.8c0.8,14.9,0.1,29.4-13.4,38.6
				c-9.7,6.6-22.6,7.6-33.9,8.2l-0.6,0c-84.1,4.9-168.2,9.8-252.3,14.7l-126.1,7.4c-21,1.2-42,2.5-63,3.7l-51.2,3
				c-24.1,1.4-48.3,2.6-72.5,2.4c-30.4-0.2-60.7-2.4-90.9-6.5L-36,710c-19-2.6-46.5-9.2-49.9-32c-0.5-3.3,2.4-5.3,4.8-4.8
				c-0.8-3.7-1.3-7.4-1.8-10.6c-2-13.8-3.3-27.6-3.9-41.5c-1.3-27.8-0.2-55.7,2.6-83.4c4.6-45.8,11-91.5,17.7-137l1.5-10.1
				c7.1-48.3,15.5-96.4,28.7-143.4c12.2-43.4,31.2-88.6,57.4-116.1s63.5-51.3,101.8-65.9c3.3-1.3,69.3-15.7,73.7-13.6l0.8-0.6
				c13.2-10.4,31.9-28.6,51.2-22.9l0-0.1c0.5-0.8,2.2-6.4,4.7-13.8H256.2z"/>
			<path id="_x270B_-Skin" class="st1" d="M270.1-26.2c16-20.3,32.8-26.7,57.7-25.2c16.9-0.6,33.7,3.8,48,13.5
				c13.1,6.8,24.7,16.3,33,28.4c7.1,10.4,1.7,36,8.2,47.1c-0.1,1.2-0.1,2.3-0.1,3.3c0,9.6,6.7,20.3,20,32.1l0.5,0.5v69.7
				c-22.4,6.9-50.2,10.3-83.3,10.3c-32.6,0-66.6-5.5-101.8-16.4l-1.6-0.5l-6.7-75.7l6.7-21l0-17.6l2.6-7.9
				C257.9,0.6,265-19.6,270.1-26.2z"/>
			<path id="_xD83D__xDC55_-Top_00000177456544874838886970000000201598394338734761_" class="st2" d="M250.7,136.5
				c39.5,11.5,72.7,17.3,99.7,17.3c27,0,55-5.8,84-17.3l-7.1,567.9l-113.7,1.4L250.7,136.5z"/>
			<path id="_xD83D__xDD8D_-Ink" class="st3" d="M55.7,384.5c-0.4-0.8,0.6-1.6,1.3-1c15.3,13.4,23.3,35,25,55
				c1.8,21.2-0.7,43.1-1.7,64.2c-1.1,23.6-2,47.1-3.3,70.7c-1.3,23.9-2.8,47.8-4,71.6l-2.8,53.7l0,0c-0.3,5.7,0.3,12.8-1.9,18.1
				c-3.4,8.3-13.5,7-15.6,0.1l-0.1-0.2l-0.2,0.2c-1.9-6.2-0.5-13.7-0.2-20.1l2.9-58.7l0,0c2-41.5,3.9-83,6.1-124.5l0.7-13.8
				c1-18.6,1.8-37.2,2.4-55.8l0.2-6.2C65.2,419,64.7,401.3,55.7,384.5z M426.9,39.9c8.5-0.8,15,2,22.7,5c3.4,1.3,6.6,2.8,9.8,4.3
				c4.1,1.9,6.7,5.4,9.2,9l1.3,2c10.4,15.2,17.4,32.8,25.3,49.4c9.2,19.4,18.5,38.7,27.6,58.2l4.5,9.6c2.2,4.8,4.4,9.6,6.6,14.4
				l3.8,8.4c3.8,8.5,7.2,17.5,1.8,26.3c-5,8.2-14,14.5-21,20.8c-5.9,5.3-11.8,10.5-17.7,15.8c12.2,12.2,20.4,27.6,25.2,44.1
				c6.8-2.8,15.2-3.4,22.2-4.6c9.9-1.7,11.1,13.2,1.8,13.1c-6.9-0.1-15,0.6-22.1-0.9c1.2,5.4,2.1,10.9,2.7,16.4
				c3,28.9-3.5,58-10.3,85.9l-0.6,2.3c-7.4,30.3-14.3,60.6-20.6,91.1c-6.3,30.6-11.9,61.3-16.9,92.1c-5.1,31.4-8.7,62.9-12.5,94.4
				c-0.6,4.8-3.6,8.9-8.9,8.9c-4.4,0-9.4-4.1-8.9-8.9c4-34.3,9.6-68.5,15.3-102.6c9.7-58.7,21.9-116.9,35.9-174.7l2.4-10.1
				c6.3-26.1,12-53,8.9-80c-2.6-21.9-11.7-45.3-29.9-58.9l-0.6-0.4c-4.2-3.1-5.9-9-1.7-13.1c2.7-2.6,5.3-5.2,8-7.8l16-15.6l3.2-3.1
				c2.7-2.6,5.4-5.2,8.2-7.7c1.7-1.5,6.2-4.4,6.6-6.9c0.2-1.6-1.7-4.5-2.5-6l-3.6-7.3l0,0c-2-4.1-4-8.3-6-12.5
				c-4.1-8.6-8.3-17.2-12.4-25.9l-24.3-52.1l0,0c-6.9-14.7-13-30.2-21.9-43.8l-1.8-2.6c-1.5-2.2-2.8-4.4-3.7-7.1
				c-0.9-2.6-2-5.5-3.7-7.7c-3.9-5.3-11.3-8.2-17.5-9.3C425.8,41.3,426.1,40,426.9,39.9z M239.8,26.3c0.5,0,0.6,0.8,0.1,0.9
				c-7.5,2.3-14.7,5.9-20.5,11.1c-2.8,2.5-5.6,5.4-7.3,8.7c-0.7,1.3-1,2.7-1.3,4.1l-0.1,0.5c-0.4,2.6-1.1,4-2.4,6l-0.2,0.3
				c-7.4,11.5-12.6,24.2-17.4,37l-10.4,27.8l0,0L170,150.6c-3.3,9-6.7,17.9-10,26.9c-1.8,4.9-3.7,9.9-5.6,14.8
				c-0.8,2.1-1.7,4.3-2.5,6.4c-0.1,0.3-0.4,2.1-0.7,2.5l0.1,0.1l0,0c2.1,3.5,7.7,6.4,10.8,9l10.9,8.8l0,0
				c7.8,6.3,15.7,12.4,23.2,18.9c4.7,4.1,1.8,11.5-3.5,13.2c-8.8,2.9-17.5,6.3-26.2,9.6c-3.5,1.3-7.2,2.5-10.6,3.9l-2.1,0.9
				c-0.8,0.4-0.4,0.4-0.4,1.9c0,1.6,0.5,3.3,0.7,4.8c2.9,17.7,6,35.4,9.3,53c11.6,62.4,25.4,124.4,41.2,185.8
				c8,31,16.5,61.9,24.7,92.9c8.1,30.9,18.8,61.4,29.1,91.7c2.9,8.5-10.7,12.2-13.5,3.7c-11.8-35.6-22.5-71.5-33.7-107.4
				c-19.8-63.6-35.3-128.7-49.1-193.8c-6.8-32.3-13.1-64.7-18.7-97.3c-1.1-6.2-2.1-12.3-3.1-18.5l-1.5-9.1c-1-6.5-1.6-13.2,3.4-18.3
				c4.9-5,13.3-6.8,19.8-9.1l0.5-0.2c4.1-1.5,8.2-3,12.4-4.5c-6.1-4.8-12.1-9.7-18.1-14.4c-4.9-3.9-9.8-7.6-14.7-11.6
				c-4-3.3-7.2-7.4-7.6-12.7c-0.4-5.4,1.9-10.4,3.8-15.4l0.2-0.5c1.8-4.9,3.7-9.9,5.6-14.8l11.7-30.5l0,0
				c7.4-19.4,14.5-38.9,22.3-58.2c3.1-7.6,6.4-15.1,10.4-22.3c1.9-3.5,4-6.9,6.2-10.1c2.5-3.7,4.8-5.5,8.6-7.5
				c6.2-3.2,11.1-8.7,17.3-12C226.6,28.1,232.9,26.3,239.8,26.3z M259.9-8.3c0.2-0.4,0.9-0.2,0.9,0.2c0.2,9.6-2.1,19.5-3.5,29
				c-1.4,9.6-1.9,19.7-3.9,29.1c0,0.4-0.1,0.9-0.2,1.3l-0.1,0.3l0,0c-0.9,2.7-3.1,4.9-5.9,5.6c0.9,4.8,1.7,9.6,2.4,14.5
				c1.2,8.3,2.3,16.6,3.3,25l1.3,10c1.2,9.4,2.4,18.8,3.5,28.3c2.9,1.2,5.9,2.2,9,3.1c7,2,14.3,2.8,21.5,3.5
				c14.8,1.5,29.7,2.1,44.6,2.9l3.2,0.2c16.7,1,33.5,1.1,50.2-0.6c8.3-0.8,16.5-2.3,24.5-4.3c4.1-1,8.1-2.6,12.2-3.6
				c1.4-0.3,2.6-1.1,3.9-1.9c0.6-0.8,1.4-1.3,2.6-1.6l0.3-0.1l0,0l0.3,0l0.1,0l0,0c0.8-0.1,1.6-0.1,2.4,0c0.3-7.4,0.6-14.7,1-22
				c1.1-19.7,4.1-40.3,0.1-59.9c-0.1-0.7,0.8-0.9,1-0.3c7.9,20.7,7,43.4,7.4,65.2c0.4,21.3,0.2,42.6,0,64c1.5,0.6,2.9,1.5,4,2.8
				c2.2,2.5,2.8,6.8,0,9.1c-1.2,1.1-2.6,1.8-4,2.3c-0.1,18.5-0.2,37-0.4,55.6c3.5,2.7,3.9,9.2-0.1,11.9c-0.7,60-1.8,120-2.7,180
				l-1.9,125.8l0,0c-0.3,16.8-0.7,33.5-0.8,50.3l0.1,0l0,0l0.4,0.2c0.7,0.3,1.8,0.9,2,1.4c0.1,0.1,0.1,0.2,0.1,0.3
				c1.2,0.2,2.3,0.7,3.3,1.6c2.4,2.3,1.9,5.8,0,8.2l-0.5,0.6l0,0c-1.2,1.5-3.5,2-5.4,1.7c0,10.5,0.1,20.9,0.1,31.4
				c0,3.2-0.1,6.4-0.1,9.6l-0.1,7.7c-0.1,4.4-0.5,9.9-5,11.9c-5.1,2.2-9.6,0.4-11.6-4.7c-0.6-1.4-0.4-2.7-0.2-4.1
				c-0.1-2.1-0.4-4.5-0.3-6.4l0.2-8l0,0c0-1.2,0.1-2.5,0.1-3.7l-0.1,0l0,0c-18,0.9-36,0.4-54,0.4l-8,0c-6.7,0-13.4,0-20-0.3
				l-2.5-0.1c-5-0.2-10.2-0.3-15.4-0.8c0.7,5.3,1.3,10.6,1.8,15.9c0.5,5-4.7,9.3-9.3,9.3c-5.5,0-8.7-4.3-9.3-9.3
				c-3.1-23.6-4.4-47.3-7.4-70.9c-2.7-21.1-5-42.3-7.3-63.4l-0.8-7.1c-8.6-77-17-154-24.9-231l-3.7-36c-3.8-36.3-7.5-72.6-10.7-109
				c-1.8-20.8-3.5-41.6-5.1-62.4c-1.2-15.3-1.9-30.5-2.4-45.7c-1.9-1.9-2.8-4.7-2-7.6c0.5-1.7,1-3.4,1.6-5.1c0-1.7-0.1-3.3-0.1-5
				c0-1.6,1.6-2.4,2.8-2.1c2.3-5.6,4.9-11.1,7-16.7C252.3,9.6,255.1,0,259.9-8.3z M68,88.6c35.9-22.5,78.7-38.7,121.5-37
				c1,0,1.2,1.5,0.2,1.7c-22.8,5.1-45.9,11.3-67.6,20.4c-21.7,9.1-42.3,21.3-60.7,36c-33.9,27.1-60.2,62.3-77.6,102
				c-10.2,23.3-17.3,47.8-23.5,72.4c-6.6,26-12,52.3-16.5,78.7c-8.9,52.2-14.1,105-16.9,157.8c-2.8,53.8-1.6,107.6-3.7,161.4
				c-0.3,9.3-13.7,9.1-14.3,0c-4.5-61.2-2-123.3,2.2-184.4c3.8-54.9,10.4-109.8,21-163.8l0.9-4.7c9.9-50,21.9-101.2,45.8-146.5
				C-0.5,143.8,31.1,111.7,68,88.6z M566.8,327.6c0.2-0.5,0.9-0.5,1.1,0c4.1,11.5,4.2,24.4,5.3,36.5l0.1,0.9c1,11,1.8,22.1,2.6,33.1
				l0.3,4.1c2.9,45.1,6.6,90.1,12.1,134.9c5.5,44.6,12.9,89,21,133.2c0.9,4.9-1.3,9.9-6.5,11.4c-4.6,1.3-10.4-1.6-11.4-6.5
				c-5-25.4-9-50.8-12.6-76.4c-6.3-45.1-11.1-90.4-14.1-135.9c-1.5-22.8-2.5-45.6-2.8-68.5c-0.2-10.6,0.1-21.3,0.7-31.9l0.1-2.4
				C563.3,349.2,563.2,337.9,566.8,327.6z M178.7,614.5c0.5-0.3,1.1,0.3,0.8,0.8c-7,11.3-16.4,21-25.5,30.7
				c-9.5,10-18.8,20.4-28.5,30.2c-7,7.1-18.3-4.4-10.9-10.9c10.4-9.2,21.3-17.9,31.9-26.9l4.6-3.9
				C159.8,627.2,168.7,619.9,178.7,614.5z M509,608.8c-0.5-1,0.7-1.8,1.5-1.1c5.6,4.6,10.6,10,16.1,14.8c5.4,4.8,10.9,9.2,16.6,13.6
				c5.7,4.4,11.6,8.5,17.6,12.5c5,3.3,10.1,5.9,15.4,8.6c2.4,0.3,4.7,1.5,6.5,3.8c2.8,3.6,3.1,10.3-0.8,13.4l-0.7,0.6l0,0
				c-4.6,3.6-10.1,4.1-14.6,0c-5.1-4.5-9.8-9.5-14.7-14.3l-1.5-1.4c-5.2-5.1-10.3-10.3-15.1-15.8l-4.3-4.9
				C523,629.3,514.6,619.4,509,608.8z M483.2,79.3c-0.9-0.6-0.4-2.3,0.8-1.9l2.1,0.7c8.8,3.1,17.9,6.5,25.9,11.2
				c8.6,5.1,16.6,11.1,24.2,17.6c15.7,13.4,29.1,29.9,40.5,47.1c22.8,34.5,36.9,74.1,48.3,113.6c12.1,42.2,21.5,85.3,29.1,128.5
				c7.8,43.9,13.7,88.2,17.7,132.7c1.9,21.9,3.2,43.8,3.9,65.7c0.3,11.3,0.3,22.6,0.2,33.9c0,2.9,0,5.8,0,8.7l0.1,8.7
				c0.1,5.5,0.7,11.3-0.6,16.7c-2.1,8.7-16.4,7-16-1.8c-0.4-2.9-0.4-6-0.3-9c-0.1-0.4-0.1-0.8-0.2-1.2c-0.2-1.2,0-2.3,0.4-3.2
				c0.1-1.5,0.1-2.9,0.2-4.3c0.1-5.8,0.1-11.6-0.1-17.4c-0.3-12.3-0.8-24.5-1.3-36.8c-1-24.5-2.4-49-4.3-73.5
				c-6.9-85.1-21.5-170.6-46-252.5c-11.4-38-27.1-75.3-49.6-108.2c-10-14.6-21.3-28-33.8-40.5C511.9,101.6,498,89.1,483.2,79.3z
				 M313.6,627.7l1.7,12.3c0.8,6.1,1.7,12.3,2.5,18.4c5.4-0.7,11-1.1,16.2-1.5c9.1-0.8,18.4-1.2,27.5-1.6c19-0.8,38-2.1,57-2
				c0.2,0,0.4,0,0.6,0l0.9-24.2l0,0l-13.3,0l0,0c-11.3,0-22.6-0.1-33.9-0.2c-10.2-0.1-20.4-0.1-30.5-0.3l-4.4-0.1
				C330.2,628.2,321.7,628.6,313.6,627.7z M421.2,592.5c-0.5,0.1-1.1,0.1-1.7,0.1c-2.6,0.1-5.3,0-7.9,0.1c-5.6,0-11.3,0.1-16.9,0.1
				c-11.3,0-22.5,0.1-33.8,0.2c-11.6,0.1-23.2,0.3-34.8,0.4c-5.6,0-11.2-0.1-16.8-0.3c0.9,8,1.9,16,2.9,23.9
				c8.7-1.2,18.1-0.6,26.6-0.7l1.1,0c11.6-0.2,23.3-0.1,34.9,0c12,0,23.9,0.1,35.9,0.2l9.8,0.1l0,0l0-0.5l0,0
				C420.8,608.2,421,600.4,421.2,592.5z M304.9,554.4c1.1,9.4,2.1,18.8,3.2,28.3c0.7-0.1,1.4-0.2,2.1-0.3c5.6-0.6,11.2-1.1,16.9-1.4
				c11.3-0.7,22.5-1.1,33.8-1.4c11.6-0.3,23.2-0.5,34.8-0.7c5.6-0.1,11.3-0.1,16.9,0c2.6,0,5.3-0.1,7.9,0.1c0.3,0,0.6,0.1,0.9,0.1
				l0.2-14.2c0-2.4,0.1-4.7,0.1-7.1c-8.7,0.5-17.6,0.3-26.3,0.3l-2,0c-10.9,0-21.9-0.1-32.8-0.3c-11.3-0.2-22.5-0.6-33.8-1.3
				c-4.6-0.3-9.1-0.7-13.6-1.2L311,555C309,554.8,307,554.6,304.9,554.4z M422.6,514.4c-21,1.7-41.8,2.4-62.8,2.6l-3.2,0
				c-18.6,0.1-37.3,0.9-55.9,0.4c1.1,9.7,2.2,19.3,3.3,29c2.7-0.1,5.3-0.1,8-0.2c5.3-0.2,10.6-0.2,15.9-0.3c10.9,0,21.9,0.1,32.8,0
				c11.3,0,22.5-0.2,33.8-0.4c9.1-0.2,18.4-0.9,27.5-0.8L422.6,514.4L422.6,514.4z M423.5,473.2c-2.4,0.8-5.3,0.9-8.4,1l-8.1,0.4
				c-3.8,0.2-7.5,0.4-11.3,0.5c-12.5,0.5-25.1,0.9-37.6,1.3c-12.9,0.4-25.8,0.6-38.6,0.2c-6.3-0.2-12.5-0.5-18.8-1.1
				c-1.6-0.1-3.1-0.2-4.7-0.3c1.5,12.8,2.9,25.6,4.4,38.4c18.5-2.3,37.2-3.7,55.7-6l16.7-2.1c16.7-2.1,33.4-4.2,50.2-6L423.5,473.2
				L423.5,473.2z M424.4,431.6c-3.6,0.9-7.6,0.8-11,1.1l-0.6,0c-6.5,0.5-13,0.7-19.5,0.9c-12.7,0.3-25.5,0.5-38.2,0.5l-7.7,0
				c-10.2,0.1-20.4,0.1-30.6-0.2c-6.6-0.2-13.1-0.5-19.6-0.8c-2-0.1-4-0.2-6-0.3c1.4,12.1,2.8,24.2,4.1,36.3c2.2-0.3,4.3-0.6,6.4-1
				c5.3-0.9,10.5-1.6,15.9-2.2c11.5-1.4,23.1-2.4,34.7-3.2c11.9-0.9,23.8-1.6,35.6-2.4l8.4-0.6c2.8-0.2,5.6-0.4,8.4-0.6
				c4.8-0.3,10.4,0,15.1-1c1.3-0.5,2.7-0.7,4.1-0.4L424.4,431.6L424.4,431.6z M425.4,382.9c-1.2,1.6-3.1,2.4-5.3,2.7
				c-11.4,1.5-23.2,1.7-34.7,2.4l-2,0.1c-11.9,0.8-23.8,1.4-35.7,2c-12.2,0.6-24.5,1.2-36.7,1.6c-5.2,0.2-10.4,0.2-15.6,0.1l-2.2,0
				c-2.1,0-4.4,0-6.6-0.1c1.2,11.3,2.5,22.6,3.8,34c2.3-0.2,4.6-0.4,6.8-0.7c6.5-0.7,13.1-1.4,19.6-1.9c12.4-1,24.9-1.6,37.3-2.2
				c12.7-0.6,25.5-1.1,38.2-1.6c6.2-0.3,12.4-0.6,18.5-1.2c4.3-0.4,9.4-1.9,14-1.3C424.9,405.5,425.2,394.2,425.4,382.9z
				 M426.4,339.2c-0.2,0.3-0.4,0.6-0.7,0.9c-5,5-11.2,4.6-17.9,5.1l-0.4,0c-6.5,0.6-13.1,1.1-19.6,1.5c-13.1,0.9-26.2,1.6-39.3,2.2
				c-13.4,0.6-26.9,1-40.3,0.7c-8.6-0.2-17.6-0.1-26.4-1c1.3,12.5,2.7,24.9,4.1,37.4c2.5-0.5,4.9-0.8,7.3-1.2
				c5.9-0.9,11.9-1.9,17.8-2.6c11.9-1.4,23.8-2.7,35.8-3.8c10.2-1,20.4-2,30.6-2.9l6.1-0.5c12.2-1,24.5-2.7,36.7-3
				c2,0,4.3,1.1,5.4,2.8C425.9,363.1,426.2,351.1,426.4,339.2z M427.3,303.9c-3.1,0.4-6.5,0.2-9.3,0.3c-7.3,0.2-14.5,0.5-21.8,0.7
				l-43.6,1.3l0,0c-14.8,0.4-29.7,0.8-44.6,0.6c-6.5-0.1-13.1-0.1-19.6-0.5l-2.2-0.1c-2.7-0.2-6-0.2-9.2-0.5l3.8,35.2l0,0
				c8.7-1.3,17.7-1.7,26.4-2.5l1.8-0.2c12.8-1.2,25.6-1.9,38.4-2.8c13.1-0.9,26.2-2,39.3-3.1c6.5-0.5,13.1-1.1,19.6-1.7l0.8-0.1
				c6.2-0.6,12-2,17.5,1.6c0.8,0.5,1.4,1.2,1.9,2C426.8,324,427,314,427.3,303.9z M428.3,262.8c-26.5,1.1-53.1,1.9-79.6,2.2
				c-14.9,0.2-29.9,0.1-44.8-0.3c-6.5-0.1-13-0.4-19.5-0.9l-2.4-0.2c-3.1-0.3-6.3-0.4-9.5-0.8c1.3,12.1,2.7,24.2,4,36.3
				c3.2-0.6,6.5-0.9,9.3-1.2l0.6-0.1c6.9-0.9,13.9-1.5,20.8-2.1c13.5-1.2,27.1-2,40.6-2.6c13.9-0.7,27.7-1.2,41.6-1.8l13.9-0.6
				c2.3-0.1,4.6-0.2,6.9-0.3c3.3-0.1,6.6-0.3,9.9-0.4c1.6-0.1,3.3-0.3,5-0.2l0.5-0.1c0.2,0,0.4,0,0.6-0.1c0.4-0.3,0.9-0.6,1.4-0.8
				l0.3-0.1L428.3,262.8z M268.1,223.9c1.2,10.9,2.4,21.8,3.7,32.7c3.8-0.4,7.6-0.7,11.2-1c7.3-0.7,14.6-1.2,21.9-1.6l14.6-0.7
				c9.7-0.5,19.5-0.9,29.2-1.2c26.7-1,53.3-2.1,80-3.4c0.2-7.4,0.4-14.8,0.6-22.2c-1.3,1.4-3.1,2.3-5.6,2.3c-28-0.1-56,0.1-83.9-0.4
				c-14-0.2-28-0.6-42-1.3c-6.8-0.4-13.7-1.1-20.5-2C274.4,224.7,271.2,224.4,268.1,223.9z M263.6,185.1c1.3,11.2,2.6,22.3,3.9,33.5
				c3.5-0.6,7.1-1,10.3-1.4c7-0.9,14-1.7,21-2.1c13.6-0.8,27.3-1.2,41-1.5c28-0.6,56-0.6,83.9-0.8c2.6,0,4.6,1,5.9,2.6
				c0.2-7,0.4-13.9,0.6-20.9c-2.7-0.3-5.4-0.7-7.9-0.9c-7.6-0.5-15.2-1-22.9-1.5c-15.9-0.9-31.8-1.7-47.8-2.4
				c-15.9-0.7-31.9-1.4-47.8-2l-7-0.3C285.8,187.2,274.6,186.6,263.6,185.1z M258.6,143.1c1.4,11.3,2.7,22.6,4.1,33.9l0.4,3.5l0,0
				c13.3-2.6,27.4-3.3,40.8-3.9c15.9-0.7,31.8-1,47.8-1c15.9,0,31.8,0.4,47.8,1.1c8,0.3,15.9,0.7,23.9,1.1c2.2,0.1,4.7,0.1,7.4,0.1
				c0.1-1.8,0.1-3.6,0.2-5.3c0.2-7.2,0.5-14.4,0.7-21.6c-5.4,2.8-12.4,3.9-17.8,5.1l-0.6,0.1c-8.9,2-18,3.3-27.1,4.1
				c-17.9,1.6-36,1-53.8-0.5l-3.1-0.3c-15.7-1.4-32-3.1-47.2-7c-7.2-1.8-14.7-4.4-21.2-8.2C260,143.9,259.3,143.5,258.6,143.1z
				 M409.7,8.8c0.2-0.6,1.1-0.8,1.4-0.2c2.1,4,2.9,8.8,4.4,13.1c1.6,4.6,3.1,9.3,4.8,13.8c3.6,9.5,7.9,18.7,13,27.6
				c5.1,8.8-9.1,15-12.9,5.4c-3.9-9.9-7-20.1-8.9-30.6c-0.9-5.1-1.8-10.3-2-15.4C409.2,18.1,408.6,13.1,409.7,8.8z"/>
		</g>
		<g id="HEAD" transform="translate(232.905271, 0.000000)">
			<path id="_x270B_-Skin_00000090993187089273752600000008015931573814395817_" class="st1" d="M266.2,108.8
				c11.4-8.2-5.6-35.1-11.3-43.1c-5-10.4-10-20.9-15-31.3c0.6-8.6-7.7-16.2-16-13.6c-7.2-5.2-19.2-2.7-22.8,5.4
				C121.8-8.4-15.4,6-22.5,112.8C-37.8,143.2-53,173.8-66.6,205c-18.9,1-28,24-16.8,38.9c1.5,24.1,16.8,26,37.1,25
				c8.2,2.2,16.7,3.3,22.8,9.7c4.7,4.8,7.8,10.8,10.9,16.7c14.1,27.1,32,50.6,56.4,69.3c37.8,28.4,89,48.7,136.1,34.9
				C281.2,359.5,301.1,200.2,266.2,108.8L266.2,108.8z"/>
			<path id="_xD83D__xDD8D_-Ink_00000058579047910946332400000014014276093527264417_" class="st3" d="M54.7-46.6
				C120.9-62,195.3-41.3,241.3,9.6c3.2,3.6,2.9,8.2,0,11.3c1.3,1.1,2.6,2.2,3.9,3.3c1.4,1.2,1.2,3.5,0,4.7c-1.2,1.2-3.6,1.4-4.7,0
				l-1.6-2.1c-0.8-1-1.6-2.1-2.4-3.1c-0.9,0.3-1.9,0.7-2.8,1.1c14,9.3,25.7,21.8,33.8,36.7c8.7,16.2,14.2,33.4,17.8,51.4
				c6.4,32,7.4,64.9,6.5,97.5l0,1.7c-1.1,39.3-4.9,79.2-21.5,115.3c-13.3,28.9-36.8,55.5-66.3,68.2c-17,7.3-35.3,10.4-53.8,9.1
				c-9.7-0.7-19.4-2.2-28.9-4.6l-2.3-0.6c-8.6-2.2-17.6-4.7-25-9.6c-7.6-5.1-2.5-15.2,5.9-14c10,1.5,19.6,5.7,29.6,7.9
				c9.7,2.1,19.6,3.3,29.6,3c17.7-0.5,33.8-5.9,48.4-15.8c55.9-37.8,62.6-113.8,64.1-175.2c0.7-30-0.4-60.4-7.3-89.7
				c-6.6-28.2-18-55.9-34.1-80c-3.6,1.3-7.1,2.4-10.9,2.8c-6.7,4.1-14.8,4.2-22.6,4.2l-1.1,0c-8.1,0-16.2-0.5-24.3-1.2
				c-28.6-2.5-58-9-86.7-4.9l-1.2,0.2C71.7,29,57,32.7,48.3,41.2c-9.4,9.2-3.1,26.6,4.3,32.1c4.8,3.6,6.3,11.6,0,14.9
				c-12.4,6.4-42.5,2.9-45.9,6.4C2.7,98.9,3,105.4,2.8,111l0,0.4c-0.4,15.7,0,31.4,1.3,47.1c1.3,15.2,4.2,30.4,4.8,45.6
				c0.2,5-5.8,6.5-9.1,3.8c-0.6-0.5-1.3-1-2-1.5c-6-4.3-12.8-6.1-20.1-7.2c-0.4-0.1-0.7-0.3-0.9-0.5l-0.1-0.1L-24,199
				c1.5,1.9,2.8,4,3.8,6.4c0.2,0.5-0.2,1.1-0.8,0.8c-10.1-6-21.1-8.6-32.8-6.1c-10.5,2.2-20,8.9-23,19.5c-2.8,9.8-0.7,21.1,5.6,29.2
				c9.4,12,24.6,10.9,38.2,11.4c2.7,0.1,5.7,1.4,6.9,4c1.5,3,1.4,5.1,0,8.1c-0.2,0.4-0.4,0.8-0.7,1.2c1.2,1,2.2,2,3.3,3.1l3.6,3.6
				c2.4,2.5,4.9,5,7.2,7.5c6.9,7.5,13.3,15.5,19.4,23.6l0.6,0.8c7.1,9.8,14.5,23.8,26.8,26.9c4.2,1.1,8.2,3.2,9.4,7.7s-1.7,9-5.7,11
				c-6.9,3.3-15.7-0.6-21.4-4.8c-12.3-9.1-20.3-23.9-27.9-36.9l-2.1-3.6c-3.9-6.7-7.7-13.5-10.9-20.6c-1.8-4-3.8-8-5.5-12.1
				c-0.5-1.2-1-2.4-1.4-3.6c-0.5,0.1-1.1,0.2-1.6,0.2c-16.5,1.1-35.4-1.5-47.3-14.1c-16.4-17.3-18.3-48.2,0.3-64.6
				c2-1.7,4.2-3.3,6.6-4.6c-3.3-5.7-5.5-12.2-7.2-18.4c-2.4-9-3.7-18.1-4.4-27.4c-1.3-18.9,0.9-38.1,5.4-56.5
				C-63.1,24.2-12.7-30.9,54.7-46.6z M-64.6,229.4c-3.3-18.9,34.6-4.9,42.8-3.6l0.2,0c9.5,1.3,4.2,18-5.1,13l-0.3-0.2
				c-5-2.9-10.6-5-15.9-7.4l-1.1-0.5c-4.2-2-18.1-11.1-19.6-1.3C-63.6,230-64.5,229.9-64.6,229.4z"/>
		</g>
		<g id="FACE" transform="translate(398.999833, 184.000177)">
			<path id="_xD83D__xDD8D_-Ink_00000168814256812846101660000001033383042952644540_" class="st4" d="M45.3,105.3
				c-3.3,4.3-9.3,7.6-16,9.2c-6.4,1.5-13.4,1.4-19.5-0.9l-0.5-0.2c-4.5-1.9-8.9-5.7-10.6-9.7c-0.7-1.6-0.9-3.2-0.4-4.7
				c0.4-1.3,1.4-2.6,2.9-3.7C1.7,95,2.4,95,3,95.1c0.8,0.1,1.6,0.5,2,1c2.6,2.8,6.4,5.5,10.8,5.4c3.4,0,6.3-1.4,9-2.9l1.9-1.1
				c1.9-1.1,3.7-2,5.9-2.5c3.8-0.8,8.4,0.7,11.2,3.1c1.2,1.1,2.1,2.3,2.4,3.7C46.5,102.9,46.2,104.1,45.3,105.3z M25.5,29.8
				c7.6,4.6,19.1,15.3,10.9,26.7c-9.6,10-23.3-1.5-30.1-6.7c-6.3-4-13.4,6.3-7.5,11c49,36.3,68.9-29.8,30.5-36.4
				C25.1,23.7,23.5,28.4,25.5,29.8z M-59.7-40.7l2.2-0.6l2.2-0.6l1.5-0.4c10.3-2.7,21.6-5.1,31.8-3.9c3.7,0.4,6.7,2.5,7.3,6.4
				c0.4,3.3-1.7,7.5-5.3,8.1c-12,1.9-24.2,1.3-36.2,3.3c-6,1-11.9,2.2-17.9,3.3c-4.5,0.8-9.2,1.1-13.8,1.8l1.1,0.1
				c0.4,0.1,0.3,0.7-0.1,0.6c-1.5-0.2-3-0.2-4.5-0.1l-0.6,0.1c-1,0.1-1.6-1-0.7-1.6c5.6-3.8,10.3-7.9,16.5-10.7
				C-70.9-37.2-65.4-39.2-59.7-40.7z M33.9-46.5c7.9-8,24.7-4.9,34.1-1.3c5.4,2.1,10.5,4.7,14.7,8.7l0.4,0.4l0.6,0.6
				c2.9,2.8,6.1,6.7,5.6,10.7c-0.1,0.6-0.4,1.3-1.1,1.4c-3.8,0.7-7.5-1.3-10.9-2.5L75-29.3c-3.5-1.2-6.9-2.3-10.5-3.1
				c-4.4-1-9-1.6-13.5-1.5c-4.6,0.1-9.5,1.4-13.9-0.5C32.2-36.4,29.7-42.3,33.9-46.5z M-44.2,17.9c-2,2.1-4.7,3.2-8.1,2.5
				c-2.7-0.5-7.7-3.2-11.8-7.3c-2.8-2.8-5.1-6.3-5.7-10.4c-0.1-0.9-0.6-1.6-1.3-1.9c-0.5-0.3-1.2-0.5-2-0.4
				c-0.6,0.1-1.3,0.3-1.8,0.6c-1,0.6-1.4,1.4-1.5,2c-0.8,5.9,1.5,11.8,5.1,16.8c4.8,6.7,11.9,11.6,16.1,12.8
				c7.1,2,14.7,0.4,20.2-4.6c4.4-4,6.7-9.1,8.8-14.5l0.4-1c0.5-1.2,0.9-2.4,1.4-3.6c1-2.4,0.7-4.4-0.3-6c-1.1-1.8-3.1-3-5.3-3.4
				c-2-0.4-4.2,0-5.9,1.3c-1.5,1.1-2.6,2.7-3,5.2c-0.7,4-2.2,8.6-5,11.6L-44.2,17.9z M78.1-5.3c-1.7-0.9-3-1.1-4.8-0.6
				c-1,0.3-2,0.9-2.8,1.7c-0.8,0.8-1.3,1.8-1.6,2.8c-0.5,2.7-2,5.2-4.1,6.8c-1.8,1.4-4,2.1-6.5,1.7c-2.7-0.4-5.2-2.2-7-4.2
				c-0.5-0.6-0.9-1.2-1.3-1.8l-0.2-0.4C49-0.7,48.2-2.1,47-3.1c-0.5-0.4-1.1-0.7-1.8-0.7c-0.3,0-0.5,0-0.8,0.1
				C41.7-1,41.2,1,41.3,3.1c0.1,2.1,0.9,4.3,2.3,6.2c3.2,4.7,9.2,8.5,13.2,9.4c5.5,1.2,11-0.2,15.5-3.3c4.5-3.2,7.9-8.1,9-13.7
				c0.3-1.3,0.1-2.8-0.4-4C80.3-3.6,79.4-4.7,78.1-5.3z"/>
		</g>
		<g id="FACIAL-HAIR" transform="translate(310.999934, 272.999723)">
			<path id="_xD83D__xDD8D_-Ink_00000095319738622088999460000018278859317405284519_" class="st4" d="M24.4,43.6
				c8.1-19,25.8-32.9,46.1-38c14.9-3.7,30.6-3.6,45.8-2.1c8,0.8,16.5,1.4,24.1,4.4c6.4,2.5,11.7,7.3,15.6,12.9
				c4.7,6.7,7.9,14.3,10.1,22.1c0.3,1.1,0.6,2.2,0.9,3.4c-1,5.9-3,10.9-8.5,14.6c-5.3,3.6-11.7,5.1-18,5.6c-0.6-0.3-1.2-0.6-1.8-0.9
				c-9.9-5.7-16.8-19-29.3-17.2C98.4,50,91,63.9,84.4,72.1c-21.2,2.5-42.4-3.9-59.7-16C23.9,52,23.8,47.8,24.4,43.6 M181.5,29.2
				c-1.7-4.8-3.8-9.4-6.4-13.7c-8.4-14.4-21.2-25.8-36.5-32.4c-36.1-15.5-82.9-4.6-112,20.8c-10,8.7-20,21.4-23.1,35.1
				c-0.9,0.2-1.8,0.7-2.5,1.3C-20.1,27.1-41.8,14.3-58.8-4c-12.3-13.4-20.9-29.2-26.2-46.6c-0.4-1.4-2.7-1.2-2.7,0.4
				c0,0.4,0,0.7,0.1,1.1c-0.2-0.7-1.3-0.3-1.3,0.3c-2.8,21.1-6.4,43.5-3.1,64.7c1.9,12.7,7.7,21.9,15.4,31.9
				c8.2,10.7,17.6,20.7,27.1,30.3c6.1,6.1,12.4,13.1,19.8,17.5c8.6,5.2,18.4,9.1,27.6,13.1c9.4,4.1,18.9,7.8,28.5,11.1
				c19.3,6.5,39.3,11.1,59.7,13.1c16.3,1.6,34.9,3.3,50.5-2.8c12-4.7,21.6-13.2,29.3-23.4c8.3-11.1,14.9-23.8,18.6-37.1
				C188.2,55.7,182.3,31.5,181.5,29.2"/>
		</g>
	</g>
</g>
</svg>
