<?xml version="1.0" encoding="utf-8"?>
<!-- Generator: Adobe Illustrator 27.1.1, SVG Export Plug-In . SVG Version: 6.00 Build 0)  -->
<svg version="1.1" id="Layer_1" xmlns="http://www.w3.org/2000/svg" xmlns:xlink="http://www.w3.org/1999/xlink" x="0px" y="0px"
	 viewBox="0 0 2011 1833" style="enable-background:new 0 0 2011 1833;" xml:space="preserve">
<style type="text/css">
	.st0{fill-rule:evenodd;clip-rule:evenodd;fill:#EDB98A;}
	.st1{fill-rule:evenodd;clip-rule:evenodd;fill:#100B01;}
	.st2{fill-rule:evenodd;clip-rule:evenodd;fill:#D1D1D1;}
	.st3{fill-rule:evenodd;clip-rule:evenodd;fill:#191919;}
	.st4{fill-rule:evenodd;clip-rule:evenodd;}
	@media (prefers-color-scheme: dark) {
		path{
			stroke:#fff;
			stroke-width:2;
		}
	}
</style>
<g id="Giulio">
	<g id="a-person_x2F_bust" transform="translate(696.000000, 394.999532)">
		<g id="BODY" transform="translate(0.000000, 380.000468)">
			<path id="_x270B_-Skin" class="st0" d="M786.3,197.7c-14.3,1.4-28.6,2.8-42.8,4.2c-68.4,5.2-136.7,16.1-204.6,22.7
				c-1.7-2.8-5-2.3-7-0.4c-6.8-0.6-14.4-5.8-20.5-0.4c-0.2,0-0.4-0.1-0.6-0.1c-10.9-21-18.5-43.3-25.8-65.7
				c-4.7-13.8-11-27.1-22.6-36.3c-19.8-13.8-65.3-41.7-88.6-40.5c-0.4-4.2-2.3-8.5-5.5-11.2c7-12-21.1-19.8-23.1-18.4
				c1.3-40.1-17.6-74.9-59.2-82.9c-37.3-7.8-90.2-9.1-110.3,29.9c-2.2-0.2-24.7-0.4-26.9-0.1c-3.4-4.3-40.6,36.4-25.3,50.5
				C-12.8,109.1-90.3,101.9-128,271.4c-5.1,15.9-5.5,33.3-10.9,48.9c-19.2,44.7-34.7,92.4-38.6,141c-9.3,2.4-10.4,18.9,0.5,21.2
				c4.1,0.9,7.6,2.2,10.6,4.5c-2.4,39.9,7.3,131,13.4,130.7c12.4,39.4,67.7,50.6,106.8,36.7c-6.7,12.7,0,20.7,0,27.5
				c140.8,5.3,294.8,2.3,435.6,9.6c18-0.3,37,4.4,54.7,1.7c10.8-2.6,10.9-19.6-0.1-21.7l48-10.4c-1.1-0.4,19.8-14.3,35.6-40.2
				c14.7-29,4.7-64,11.3-95.6c51.9-4.2,104.7-6.1,156.1-14.9c7,21,37.3-4.1,47-14.2l0,0c4.7-1.3,8.4-5.6,8.5-10.8
				c3.3-4.7,4-11.3,0.8-15.8c14.4-83,36.3-167.7,44.2-251.4c2.8-0.6,5.4-1.8,7.7-3.7l-0.2-0.2c3.8-4.2,4.5-11.5-1.8-15.1
				C796.1,196.2,791.8,197.1,786.3,197.7z"/>
			<path id="_xD83D__xDC55_-Top" class="st1" d="M243.2,508.2l11,7l90,29l55,7l45-7v77l9,72c-4,7.3-42,7.3-114,0
				c-45.9-4.7-213.6-6.9-251.8-7.9l-2.2-0.1c-44.9-1.3-89.2-1.3-133,0v-27l125-62l112-63L243.2,508.2z M179.4-7.9l8.3,6.2l-18,29.7
				l87.9,71.1v56.8l27.8,26.3l15.9-26.3l22.4-29.8l15.9-48.3l-5.4-31.9l10.9-1c0.1,2.2,0,4.4,0,6.6c2-1.4,30.1,6.4,23.1,18.4
				c3.2,2.8,5.1,7.1,5.5,11.2c23.3-1.2,68.8,26.8,88.6,40.5c11.6,9.2,17.9,22.6,22.6,36.3l1.1,3.4l1.1,3.4l1.1,3.4
				c6.3,18.9,13.2,37.7,22.4,55.5c0.2,0,0.4,0.1,0.6,0.1c6.1-5.4,13.7-0.2,20.5,0.4c2-1.9,5.2-2.3,6.9,0.2l0.1,0.2l-84.2,16.7
				l-55.7,195.2l-48.5-39.3l-26,3.9l-68.7,24.8l-79.9,20.8L-6.7,496.9h-23.2l-135.3-32.8l-12.2-4c4-48.3,19.5-95.5,38.5-139.8
				c5.4-15.6,5.8-33,10.9-48.9C-90.3,101.9-12.8,109.1,123.5,48.8C108.3,34.7,145.4-6,148.8-1.7h0.2h0.5h0.6
				c5.3-0.2,23.6,0,25.6,0.2C176.8-3.8,178.1-5.9,179.4-7.9z"/>
			<path id="_xD83D__xDCBB_-Computer" class="st2" d="M799.8,203.6l-2.5,14c-0.6,0.2-1.2,0.4-1.8,0.5c-0.8,8.3-1.7,16.7-2.8,25.1
				L777.1,330c-2.7,15.4-5.2,30.8-7.8,46.2l-3.4,16.5l-2.1,10.3c-4.5,22.3-8.8,44.5-12.7,66.5c0.6,0.8,1,1.7,1.4,2.7l-0.3,1.2
				l-0.2,0.8l-0.2,0.8c-3,11.6-8.3,22.9-20.6,26.3c-9.3,2.6-19.6,2.8-29.2,3.8l-1.1,0.1l-168.7,19c-20.4,2.3-40.7,4.7-61.1,7
				l-17.7,2.1c-24.6,2.8-49.4,5.1-73.6,10.3c-0.9,0.2-1.6,0.5-2.2,1c4.9-18.5,9.6-36.9,13.8-55.6c4.8-21,9.3-42.1,14.4-63
				c10.3-42.2,21.8-84.1,34.4-125.6c2.6-8.7,5.4-17.4,8.1-26.1l1.9-6.1l1.5-4.8c2.3-7.4,5.2-15,12-19c7.9-4.8,18.8-5.5,27.8-7.2
				l6.1-1.1c9.1-1.7,18.2-3.3,27.4-4.9c43.8-7.5,87.8-13.6,131.9-18.1c46-4.7,92.1-7.8,138.3-9.3L799.8,203.6z M381.1,493.1h0.4
				l-6.3,50.4c-1-0.7-2.3-1.1-3.8-1.1c-20.7,0.1-40.5-6.5-59.6-13.8l-2.9-1.1l-8.1-3.1c-8.3-3.2-16.6-6.3-25-8.8l-3.4-1l-1.7-0.5
				c-6.4-1.9-13.2-3.6-19.8-4H250l1.9-1c0.3-0.1,0.5-0.3,0.8-0.5c3.7,0.3,7.3,0.2,11.2-0.5c7.3-1.3,14.4-3.8,20.9-7.4l2.9-1.6
				l1.2-0.6l0.8-0.4l0.8-0.4c5.6-2.8,10.9-4.5,18-3c8,1.7,15,6,22.2,9.6l1.3,0.6l0.9,0.4l0.9,0.4l0.9,0.4c9.8,4.4,25.3,9.1,29-4.1
				c1.5-5.3,0.3-10.3-2.3-14.7C366,486.8,374.6,492.5,381.1,493.1z"/>
			<path id="_xD83D__xDD8D_-Ink" class="st3" d="M178.3-10.6c4.2-10.7,18.6-6.5,17,4.7c-1,6.7-4.6,13.8-7.9,19.7
				c-2.7,4.8-5.8,9.5-9.9,13c7.4,6.9,15.1,13.6,23,19.9c8.6,6.9,17.6,13.2,27,19.1c8.2,5.1,16.8,9.7,24.5,15.5
				c7.2,5.4,13.7,12,17,20.5c3.5,9.1,2,18.5-0.6,27.5l-0.3,1c-2.7,9-7.3,19.8-0.9,28.3c3.3,4.3,8,7.4,12.1,10.8
				c3.6,3.1,7,6.4,10.2,10c6.8,7.8,12.4,16.6,15.9,26.4l0.3,0.9c3,8.7,5.2,19.3,1.1,27.8c-1.2,2.4-4.9,1.6-5.6-0.7
				c-1.5-5.4-1.4-11-2.6-16.5c-1.3-5.7-3.4-11.1-6.2-16.1c-5.4-9.9-12.7-18.3-21.4-25.4l-2.6-2.1c-6.8-5.5-13-11.4-14.3-20.6
				c-1.5-9.8,2.5-19.2,5-28.4c1.8-6.5,2.3-12.7,0.4-18.5c-2.3,3.8-5.5,7.4-8,10.6c-5,6.4-10,12.8-15.1,19.1
				c-5.2,6.5-10.2,13.2-15,20c-2.1,3-4.3,6.1-6.4,9.2c-1.6,2.3-3.8,4.6-5.5,7c0.4,1.3,0.4,2.7-0.4,3.7c-9.2,12.4-22.3-13.5-25.7-20
				c-6.9-13.3-12.1-27.5-19.1-40.8c-7.2-13.8-15.4-27.2-24.6-39.9c-5.5-7.6-11.7-14.8-16.8-22.7C111,63.2,95.3,70.5,80.8,77.1
				c-15.9,7.2-32.3,13.1-48.6,19.4l-4.8,1.9c-28,10.9-56.7,22.9-80,42.3c-27.4,22.8-43.5,54.6-55.6,87.5
				c-13.9,37.9-25.3,76.8-36,115.7c-5.5,19.9-10.7,39.9-15.5,60c-4.3,17.7-7.9,35.5-12.8,53c10.1-0.4,21.6,3.6,30.2,4.7
				c39.3,5.1,78.1,13.3,115.2,27.5c4.6,1.8,5.9,6.3,4.9,10c2.6-0.7,5.3-1.5,7.9-2.2c-2.9-4.4-1.5-12.4-1.3-17.3v-0.3
				c0.2-6.6,0.9-13.1,1.4-19.7c0.9-12.5,2-24.8,3.5-37.2l0.4-3.1c1.7-13.5,3-27.1,4.9-40.5l0.2-1.5c-0.9-3.4-1.9-6.8-3.1-10.2
				c-2.9-9-7.1-17.5-10.7-26.3c-0.4-1,1-1.6,1.7-1c6.1,5.5,11,12.5,14.9,19.9c0.1-0.3,0.1-0.7,0.2-1l0.4-2.2
				c1.1-5.4,2.4-11,5.7-15.4c0.4-0.5,1-0.6,1.4,0c3.2,5.3,3.5,12.1,4,18.2c0.5,6.9,0.6,13.8,0.5,20.7c-0.2,13.5-1.1,27-1.9,40.4
				c-0.7,13.2-2.2,26.2-4.1,39.3l-0.4,2.5c-0.9,6.2-1.7,12.5-2.9,18.7l-0.3,1.7c-0.6,3.1-1,7.4-2.3,11c33.1-9.2,66.3-18.3,99.6-27.1
				c24-6.4,48.1-12.7,72.1-19.1c1.3-2.3,2.8-4.4,4.8-6.3c6.5-6.3,15.1-9.1,23-4.3c0.6,0.4,0.7,1.4,0,1.8c-1.5,0.8-3,1.7-4.5,2.6
				l14.4-3.9c10.8-2.9,21.7-6.6,32.8-8.6c20.3-10,42.2-17.3,63.7-24.5l2.5-0.9c11-3.7,22.3-7.9,33.7-10c8.3-1.5,18,0.3,21.4,8.8
				c4.2,2.8,8.2,6.1,12,9.3c2.8,2.3,5.4,4.8,8.1,7.2l0.5,0.4c2.2,1.9,4,3.2,4.5,6.3c0.3,1.6-0.7,3.7-2.7,3.5
				c-6-0.6-10.8-7.5-14.8-11.7c-3.1-3.2-6.3-6.5-9.1-10c-1.7,0.9-3.9,0.7-5-1.3c-5.5-10.4-20.5-3.2-28.8-0.7l-11.9,3.5
				c-5.9,1.8-11.9,3.5-17.8,5.3c-16.3,5-32.5,10.5-49,15c1.5,1.6,1.3,4.5-1.5,5.6c-12.9,5.1-27,7.7-40.4,11.1
				c-8.4,2.2-16.9,4.4-25.3,6.6c-1.4,2.3-2.5,5-2.9,8.1c-1.6,11.4,1.5,24.4,4.5,35.4l0.5,1.6c2.5,8.8,6.1,19.6,13.8,25.2
				c1.9,1.4,4.2,2.3,6.6,2.5c14.9-7.7,29.8-15.3,44.7-23c2.8-1.4,5.3,0.5,5.9,2.8c5.3-0.9,10.5-2.2,15.3-3.8
				c8-2.7,14.3-7.9,21.8-11.5c14.6-7,29.4,1.6,42.5,8.1l3,1.5c5.8,2.8,18,8.3,20.8,0.5c2.7-7.5-5.9-15.5-11.4-18.9
				c-6.6-4-14.3-6.2-21.8-8c-4.3-1-8.6-1.9-12.9-2.5c-4.9-0.7-10-0.6-14.8-2.2c-2.4-0.8-2.7-4.5,0-5.2c7.3-1.7,16,0.2,23.6,2l4,1
				c7.7,1.9,15.4,4.2,22.4,8c5.1,2.7,10.4,6.9,14,12c3-2.8,6.8-2.7,10.8-1.7l2.1,0.6c3.5,1,6.4,1.7,9.8,1c0.5-2.5,0.9-5,1.4-7.5
				c4.9-24.6,10.3-49.1,16.2-73.5c10.2-42.1,22.1-83.7,35.4-124.9l1.3-4.1c3.1-9.4,5.6-19.7,10.5-28.3c4.7-8.2,12.2-12.9,21.2-15.4
				c10.1-2.8,20.8-4.3,31.1-6.2c2.3-0.4,4.6-0.8,6.9-1.2c-2-3.5-3.4-7.5-4.7-10.6l-0.2-0.5c-2.8-6.4-5.4-13-7.8-19.6L492,189
				c-4.4-11.9-9-23.6-15.2-34.8c-6.5-11.7-15.2-21.3-26-29.2c-22-16.2-48.6-24.4-70-41.7c-0.9-0.7,0.2-1.9,1.1-1.5
				c14.4,7.3,30,12.2,45,18.1l3,1.2c11.9,4.7,23.9,9.8,34.2,17.4c11.5,8.5,20.5,19,27.2,31.6c6.7,12.4,11,26.2,15.7,39.4l1.3,3.5
				c1.9,5.3,3.9,10.5,6.1,15.7c1.8,4.1,5.1,8.7,6.6,13.4c4.1-0.7,8.3-1.4,12.4-2.1c89.9-15,180.7-23.8,271.8-26.4
				c3.6-0.1,5.4,3.3,4.9,6.4c-8.7,51.7-16.5,103.5-25,155.3c-3.7,22.6-7.5,45.1-11.4,67.7c-2,11.4-4.2,22.8-6.1,34.2
				c-1.5,9.2-2.6,18.5-5.2,27.6c-2.3,8.1-5.9,15.9-11.7,22.1c-6.3,6.7-15.1,9.9-23.9,11.4c-22.4,3.9-45.5,5.4-68.1,8L538.3,540
				c1.8,16,1.9,31.7,1.1,47.9l-0.5,8.8c-0.4,7.1-0.8,14.2-1.8,21.3c-1.3,8.8-5.3,16.3-11.3,22.9c-5.5,6.1-12.1,11.2-18.5,16.2
				c-6.7,5.1-13.6,10.1-21.5,13.3l-1,0.4c-6.9,2.7-19.9,6.9-29.3,5.3c1.2,6.2,3.6,12.8,1.5,18.9c-1,2.8-4.7,4.3-7,1.8
				c-4.5-4.8-4.9-11.1-5.9-17.4c-1.1-6.5-2.1-13-2.9-19.6c-1.6-12.7-2.9-25.4-3.3-38.2c-0.4-13.1-0.2-26.2,0.5-39.3
				c0.4-6.7,0.8-13.4,1.7-20.1c0.4-2.8,0.7-5.7,1.2-8.5c0.2-1,0.3-2.1,0.5-3.1l-10.8,1.2c-16.6,1.9-33.2,3.5-49.9,3.8
				c-2,0-3.5-0.9-4.5-2.2c-1.1,1.7-2.9,3-5.5,2.9c-23.3-0.1-45-7.7-66.2-16.7c-10.7-4.5-21.2-9.4-31.9-13.9
				c-10-4.2-20.7-7.2-30.4-11.9L217,527.2c-0.2,0.7-0.4,1.3-0.7,1.8c-1.7,3.4-5,5.3-8.3,6.6c-3.2,1.3-6.6,1.8-9.8,1.4
				c-19.4,10.2-38.9,20.4-58.3,30.5l-19.5,10.1C81.6,597.8,43,618.3,4,638l-2.9,1.4c-13.5,6.8-27.9,13.6-42.9,18.7
				c-0.3,3.8-0.1,7.5,0.2,11.5l0.1,0.9c0.4,4.7,1.4,10.7-2.4,14c-2,1.8-5.5,1.8-6.8-0.9c-2.4-4.8-0.2-12.3,0.5-17.5
				c0.3-1.9,0.6-3.8,1.1-5.6c-17.1,5.1-34.8,7.6-52.2,4.7c-17-2.8-30.1-13.5-40.7-26.6c-11.2-13.8-19.1-29.9-23.4-47.1
				c-4.9-19.6-5.2-39.9-5.1-60c0.1-21.4,0.9-42.9,3.5-64.2c-2.9-0.7-6-1.3-8.9-1.1c-1.4,2.3-4.2,3.2-6.7,3
				c-5.4,6,8.4,12.1,12.8,13.7c1.5,0.5,1.4,3-0.4,2.9l-1.1-0.1c-6.8-0.4-13.9-1.5-17.9-7.9c-3.2-5.1-2.2-11.1,1.6-15.2
				c2.5-23.9,8.6-47.2,14.2-70.5c5.5-22.9,11.7-45.6,18.2-68.3l2.9-10.1c10.2-35.5,21-71.3,35.1-105.3c7.1-17,15.2-33.7,26.2-48.6
				c10.3-13.8,22.4-25.7,36.3-35.8c26-18.8,56.5-30.2,86.5-41.1l1.3-0.5c15.5-5.6,31-11.3,46.4-17.4c13.6-5.4,26.6-12.2,40.1-17.7
				c-0.4-0.8-0.9-1.6-1.3-2.4l-0.2,0.2l-0.1,0.1c-1.4,0.9-3.4,0.5-4.5-0.6c-3.2-3-2.1-6.3,0-9.4l0.3-0.4c2.6-3.6,4.9-7.4,7.3-11.2
				l1.5-2.3c4-6.3,8.2-12.6,13.5-17.7c2.5-2.4,5.2-4.2,8-5.5c-0.2-0.5,1.9-1.6,2.5-1c9.1-3.3,19.5-2.6,29.4-1.7 M533,540.3
				l-12.6,1.4c-13.9,1.6-27.8,3.1-41.7,4.6l-30.2,3.3c-0.1,1.7-0.3,3.4-0.3,4.7c-0.2,6.7-0.3,13.4-0.5,20.1
				c-0.3,13.4,0,26.9,0.9,40.3c0.9,13,2,26,3.7,38.9l0.4,2.6l0.2,1.4c1.4,0.1,2.8,0.8,4,2.2c2.6,3,11.8,0.1,15.4-1.2
				c5.9-2.1,11.5-5.7,16.7-9.3c5-3.5,9.6-7.6,13.9-11.9l3.6-3.5c3.5-3.5,7.1-7.3,9.3-11.7c2.9-6,3.3-13.4,4.2-19.9
				c1.1-8.1,2.3-16.1,3.7-24.1 M166.7,455.8l-1.3,0.3c-47.6,12.6-95,25.6-142.7,37.7c-23.6,6-47.3,11.5-71,17.4l-3.8,1
				c-18.6,4.7-37.5,10.4-51.8,23.9c-0.5,0.5-1.3-0.3-0.8-0.8c15.4-16.4,37.3-23.3,58.3-29.3c3.9-1.1,7.8-2.2,11.7-3.3
				c-28.6-10.2-57.6-19.1-87.3-25.4c-7.6-1.6-15.4-2.8-23-4.5c-5.3-1.1-10.5-2.8-15.8-4.2l-4.1-1l-0.1,13.1
				c-0.1,18.6,0,37.1,0.9,55.7l0.2,3.4c1.1,20.7,2.8,41.7,10.2,61.2c6,15.8,15.5,30.7,27.9,42.3c6.3,5.8,13,10.4,21.4,12.6
				c7.8,2.1,15.9,2.3,23.8,1.8c38.2-2.7,72.3-23.4,105.5-40.6c54.3-28.1,108.6-56.2,163-84.2c-1.5-1-2.9-2.2-4.1-3.5
				c-7.3-7.5-11.1-17.8-13.7-27.8c-2.7-10.6-4.3-22-4.5-33 M235.8,543.7c0.5-0.3,1,0.1,1.1,0.6c0.2,4.2-2.1,8.2-3.8,12l-0.2,0.4
				c-2.1,4.6-4.4,9.2-6.7,13.7c-4.7,9-9.6,17.9-14.7,26.7c-10.3,17.6-21.7,34.5-35.2,49.9c-3.1,3.5-8.1-1-6.1-4.7
				c9.4-18,20.4-35,31.8-51.9c5.7-8.4,11.3-16.9,17.1-25.3c2.4-3.5,4.8-7,7.3-10.4l1.5-2.1 M799.8,203.6
				c-47.7,1.4-95.4,4.6-142.9,9.4c-44.2,4.5-88.2,10.6-131.9,18.1c-9.1,1.6-18.3,3.2-27.4,4.9l-5.5,1c-9.1,1.7-20.3,2.4-28.4,7.3
				c-8.6,5.1-10.9,15.9-13.7,24.7c-3.3,10.4-6.6,20.8-9.8,31.3c-12.6,41.5-24.1,83.4-34.4,125.6c-5.1,20.9-9.6,42-14.4,63
				c-4.2,18.7-8.9,37.1-13.8,55.6c0.6-0.5,1.3-0.8,2.2-1c24.2-5.2,49-7.4,73.6-10.3l2.4-0.3c25.5-3,50.9-6,76.4-8.8l168.7-19
				c9.9-1.1,20.6-1.3,30.3-3.9c16.5-4.5,20.3-22.9,23.1-37.6l0.1-0.4c8.3-44.3,15-88.9,22.7-133.3 M381.6,493.2
				c-6.5-0.4-15.5-6.4-20.5-6c2.6,4.4,3.8,9.4,2.3,14.7c-4.2,14.8-23.1,7.2-32.2,2.6c-7.5-3.7-14.7-8.3-23-10
				c-9.4-2-15.7,1.8-23.6,6.1c-6.5,3.5-13.6,6.1-20.9,7.4c-3.9,0.7-7.6,0.8-11.2,0.5c-0.2,0.2-0.5,0.3-0.8,0.5l-1.9,1
				c8.8,0.4,17.7,3.1,25.9,5.6c8.5,2.6,16.8,5.7,25,8.8l8.1,3.1c20.1,7.7,40.8,15,62.6,14.9c1.6,0,2.8,0.4,3.8,1.1 M345,446.8
				c6.5-0.8,12.4,0.1,17.6,4.3c6.2,5.1,10.4,13.5,19.4,14.1c2.6,0.2,3.2,3.8,0.6,4.6c-6.7,2-12.1-1.6-16.6-6.3l-3.1-3.2
				c-4.5-4.7-8.6-8.2-16.3-8c-8.2,0.3-16.3,2.2-24.4,3.1c-9.2,1.1-18.4,2-27.6,2.8c-0.4,0-0.5-0.6-0.1-0.7l10.3-2.6 M338.7,420.3
				l1.1-0.1c9.4-0.9,18-0.9,26.4,4.1l1.6,1c7.6,4.6,15.8,10,20.5,17.5c0.8,1.2-0.5,2.7-1.8,2.3c-9.1-2.2-15.7-8.9-23.4-13.8
				c-8.6-5.6-17.4-4.7-27.2-3.8c-9.5,0.8-18.9,2-28.3,3.6c-8.8,1.5-17.7,3.8-26.6,4.6l0,0c-1,0-1.6-1.5-0.6-2
				c9-4.5,19.5-6.6,29.3-8.7 M17.1,164.9c0-0.7,1-1,1.4-0.4c6.1,10.8,9.3,23.9,12.6,35.8c3.4,12.4,6.2,24.9,8.6,37.6
				c5,25.6,7.7,51,7.9,77.1c0,3.7-6,4.7-6.6,0.9c-3.9-25.4-7.7-50.7-11.7-76.1c-2-12.7-4.3-25.4-6.5-38.2 M77.6,183.6
				c-0.5-1.5,1.7-2,2.3-0.6c12.3,30.1,16.4,64.2,8.5,96c-1.2,4.9-8.3,2.8-7.4-2 M235.8,156.9c-0.1-1.1,1.4-1.3,1.9-0.5
				c5.8,8.2,8.2,19.2,18.4,23.4c5.1,2.1,10.8,1.7,15.3,5.3c3,2.4,5.3,6.2,3.1,9.8c-0.7,1.2-2.8,1.8-3.8,0.5
				c-1.4-1.8-2.2-4.1-4.2-5.4c-2.8-2-6.5-2.1-9.7-3c-4.1-1.2-7.7-3.3-10.7-6.4 M332.9,20.3c0.6-0.3,1.2-0.1,1.6,0.4
				c0.5,0.7,0.5,1.5-0.2,2c0.9,1.8,2,6.4,2.1,7.1c0.6,2.7,1.3,5.4,1.9,8.1c1.4,5.4,2.6,10.9,4,16.3c1.5,5.7,3.2,11.4,5.1,17
				c0.1,0.4,0.3,0.7,0.4,1.1l0.2,0.6l0.1-0.1c0.4-0.6,1.2-0.2,1.1,0.5c-0.1,0.6-0.2,1.2-0.3,1.8l0.2,0.5c1.3,3.4,2.1,7-0.2,10
				c-0.9,1.1-1.8,1.8-3,2c-1.9,6.3-4.3,12.5-6.9,18.4l-0.8,1.7c-3.8,8.7-7.8,17.2-13.8,24.6c-6.6,8-15.6,13.5-21.3,22.3
				c-2.7,4.1-4.5,8.4-6,13l-0.6,1.8c-1.1,3.3-2.3,6.4-5.4,8.4c-1,0.6-2.4,0.4-3.2-0.4c-6.3-6.7,0.3-19.1,4.1-25.5
				c5.3-9,12.9-14.7,20.6-21.5c8.2-7.3,13.5-17,18.6-26.7c3.1-5.9,6.1-11.9,9.3-17.8c-3.3-2.9-4.4-8.7-5.5-12.8l-0.1-0.4
				c-1.9-6.5-3.3-13.1-4.3-19.8c-0.9-6.4-1.3-12.7-1-19.2l0.1-1.6 M345.2,50.8c-0.7-1,0.5-2.1,1.5-1.9c6.1,1.3,12.1,5,17.5,7.9
				l0.6,0.3c4.4,2.4,8.8,5.2,11.1,9.8c2.5,5,2.3,10.7,1.9,16.1v0.5c-0.4,6.5-0.5,13.2-1.9,19.6c-0.7,3.3-3.7,4.2-6.2,3.4
				c-3,9.5-11.4,16.5-17.6,23.9c-7.9,9.5-6.4,22.4-5.6,33.9c0.3,4.6-5.5,6-8.4,3.5l-6.9-5.7c-1.1-1-2.3-1.9-3.4-2.9
				c-1-0.8-1.9-1.6-2.9-2.5l-1.4-1.3c-0.6-0.6-3.4-3.7-4.3-3.8c-2-0.3-6.7,4.9-8.3,6.6l-0.2,0.2c-3,3-5.8,6.2-8.3,9.6
				c-0.5,0.6-1.4,0.1-1.1-0.6c2.3-4.9,5-9.6,8.1-14l0.6-0.9c2.1-2.8,4.9-7.8,8.6-8.7c4.5-1,9.1,3.5,12.4,6l0.2,0.2
				c1.6,1.2,3.1,2.4,4.7,3.6c-0.2-8.6,0.9-17.2,5.3-24.6c3.1-5.2,7.8-9,11.8-13.5c4.4-5,6.8-11.1,10.8-16.3c0.5-0.7,1.2-1,2-1.1
				c0.2-4.2,0.8-8.4,1.2-12.5l0.1-1.2c0.5-4.5,1.6-9.9-0.6-14.1c-2.1-4-6.8-6.8-10.3-9.4l-2.9-2.2 M147.3,3.4
				c-1.8,1.1-3.6,2.4-5.1,4c-4.9,5.2-8.4,11.7-11.8,17.9c-1.8,3.4-3.6,6.7-5.5,10.1c-0.8,1.5-1.6,2.9-2.5,4.3
				c-0.4,0.7-1.5,2-2.1,2.8c0.6,0.9,1.3,1.8,2,2.6c0.3,0.3,17.8,19.5,24,27c9.4,11.5,17.8,23.6,24.9,36.6
				c7,12.7,12.4,26.2,18.9,39.1c3.3,6.5,6.9,12.9,11.5,18.5c0.2,0.2,0.4,0.4,0.6,0.6c1.8-4.8,6.3-9.9,8.5-12.8l0.2-0.3
				c5-6.8,10.4-13.4,15.8-19.9c5-5.9,10.1-11.7,15.3-17.4l2-2.1c3.6-3.9,8.3-9.8,13.6-12.6c-0.6-1-1.2-2-2-3
				c-5-6.5-12.1-11.3-19-15.5l-4.5-2.7c-17-10.4-33.8-21.2-48.6-34.7c-7.8-7.1-15.5-14.6-22.1-22.9l-2.3-2.9 M175.7-1.7
				c-8,0.7-16.6,0.5-24,3.1c6.6,6.2,12.8,12.9,19.2,19.2c0.6-4.3,1.7-8.5,2.7-12.6"/>
		</g>
		<g id="HEAD" transform="translate(255.894748, 0.000000)">
			<path id="_x270B_-Skin_00000095337758495114285370000000363481037169705367_" class="st0" d="M0.8-15.5c56.7,0,115.3,44,136,72.1
				c17.5,23.6,26.9,130.4,26.9,202.5c0,15.1,8.3,43.5,5.9,58c-8.9,52.9-47.6,97.3-124.2,97.3s-131.6-30.5-188.6-112.2
				c-27.6,0-41-21.2-41.2-54.8c-0.1-22.3,8.8-37.6,26.7-45.7c-6.4-88.2-1.5-143.8,14.5-166.7C-119,0.5-55.8-15.5,0.8-15.5z"/>
			<path id="_xD83D__xDD8D_-Ink_00000081619668527823760580000002121234933241908354_" class="st3" d="M-23-34.2
				c35.8-3.6,70.8-0.6,106.1,5.7c2.7,0.5,4.2,2.3,4.8,4.4c16.6,0.8,33.2,2,49.8,2.9c6,0.3,9.4,6.3,6.7,11.7
				c-0.5,1.1-1.1,2.1-1.7,3.1l0.7-0.2c5-1.6,10.4-2.4,15.2,0.2c6.2,3.2,8.6,10.4,7.2,17c-0.4,1.7-0.9,3.3-1.6,4.9
				c1.4-0.1,2.7-0.1,4.1,0.1c7.2,1,12.6,6.5,13,13.9c0.6,11.2-6.6,22.5-15.1,30.5c1.2,2.5,1.7,5.5,1.2,8.5c-1,6-5.4,9.5-10.5,11.9
				c2.1,6.8,3.1,13.8,2.5,21c-0.2,2.4-2.3,4.4-4.5,4.9c8.3,22.8,12.5,47.3,15.5,71.2c2.1,17,3.2,34.1,3.3,51.2
				c0.1,7.7-0.1,15.5-0.4,23.2l-0.1,2.9c-0.4,8.4-0.4,17.1-1.9,25.4c5.1,8.7,7.2,19.5,8,29.3c1.1,12.1-0.6,24.5-4.4,36
				c-14.3,43.4-57.7,70.8-101.2,77.9c-40.3,6.6-86.9-2.3-110.4-38.9c-0.4-0.6,0.4-1.1,0.9-0.7c16.8,13.7,36.4,19.8,57.6,22.8
				c36.7,5.1,77.9-3.6,107.4-26.7c14.1-11.1,24.3-27.3,28.8-44.7c2.3-8.9,3.1-18.2,2.2-27.3c-0.9-9.3-5-17.2-7.6-26
				c-0.9-3,0-5.7,1.9-7.7c0.5-7.1,1.7-14.3,2.2-21.4c0.5-8.1,0.8-16.1,0.9-24.2c0.2-16.8-0.5-33.6-1.9-50.2
				c-2.6-30.6-9.4-60.4-13.4-90.7c-1.5,1.3-3.6,1.9-5.8,0.7l-0.2-0.1l-1.2-0.7c-0.1,0-0.1,0-0.2,0c-8.3,0.8-17-0.3-25-2.8
				c-8.4-2.6-16.1-6.6-23-11.9C85.6,79.6,85,86.3,85,93.2c0,4.3-4.5,6.5-8.1,4.7c-15.8-8.1-31-17.4-45.3-27.8
				c-1.7,8.6-3.4,17.2-5,25.8c-0.6,3.3-4.9,4.7-7.6,3.1C8.2,92.7-1,84.5-8.6,74.8c-1.5,2.9-3,5.8-4.5,8.7l-2.3,4.3
				c-2.3,4.2-5.3,9-10.3,10.3c-5.2,1.4-9.6-2-11.4-6.7c-0.5-1.5-1-3-1.5-4.5c-4.5,10.2-9.5,20.2-15.2,29.8
				c-8.6,14.3-18.8,27.1-29.1,40.1c-3.1,4-8.4,0.2-8.9-3.7c-0.2-2.3-0.5-4.6-0.6-6.8c-6,12.1-12.2,24-19,35.7l1,3.8l0,0
				c2.8,11.3,5.1,22.6,7.7,34c0.8,3.7-1.1,8.9-5.4,9.5c-5.1,0.7-9.9,3.4-15.1,1.6c-5.7-2-6.8-6.9-9.5-11.6c-0.5-0.9-1.2-1.8-1.8-2.6
				l-0.2,0.2l0,0c-0.4,0.6-1.4,0-1.2-0.7l0.3-0.7l0,0c-2.3-2.5-5.1-4.5-7.6-6.7c-6-1-12.8,0.1-17,2.6c-9.5,5.6-13.8,17.1-13.9,27.7
				c-0.1,12.4,3.7,26.4,10.2,37c2.9,4.7,6.8,8.9,11.9,11c5.1,2.1,10.7,1.4,15.9,3.4c3.5,1.3,5.6,5.1,3.5,8.6
				c-0.1,0.2-0.3,0.5-0.5,0.7l1.6,2.1c1.1,1.4,2.2,3,3.2,4.6c2.7,3.1,5.4,6,8.2,9c5,5.5,9.8,11.2,14.8,16.9
				c4.6,5.3,9.6,10.3,14.6,15.2c4.8,4.7,10.7,8.6,15.1,13.5c4.3,4.8,5.4,13.3-1.6,16.1c-7.8,3.1-14.7-4.2-19.9-9l-0.2-0.2
				c-9.6-8.8-18.3-19-25.1-30.1c-6.8,4.6-16.7,5.1-23.5,0.4c-3.6-2.4-6.3-6.6-7.6-11c-1.3,0.3-2.5,0.4-3.7,0.4
				c-0.6,0.4-1.3,0.7-1.9,1.1c-5.1,2.6-11.3,1.5-13.6-4.2c-2.1-5.1,0.1-10.9,2-15.8l0.4-1c1.1-2.8,2.3-5.8,3.7-8.7
				c-4.1-3.1-7.6-7-10.6-11.3c-10-14.8-15-36.3-12.8-53.9c1.3-10.6,6.3-21.6,14.5-28.8l-0.3-0.8l0,0c-2.3-5.8-4.4-11.6-5.7-17.8
				c-1.6-7.2-2.3-14.6-3-21.9c-1.5-15.4-1.1-31.2,0.9-46.6c3.7-29,13.1-57.4,29.7-81.5c-4.7-5.7-8.4-12.3-6.5-20
				c0.9-3.5,2.9-6.8,6-8.9c1.7-1.1,3.7-1.3,5.4-2.2l0.5-0.3c0.7-0.4,0.2-0.4-0.3-2.4c-1.7-8-0.3-15.8,8.5-18.5
				c8.3-2.5,16.2,2.8,21.1,9.2c12.9-9.2,29.8-13.9,44.8-18C-57.9-29.6-40.5-32.5-23-34.2z M-162.1,235.5c-0.1-6.5,6.1-10.6,12.2-9.5
				c4.1,0.7,7.5,3.2,10.7,5.7l1.6,1.2c3.9,3.1,8.4,6.4,10.7,10.7c3.4,6.4-3.8,15.1-10.5,10.6c-4.6-3.1-7.6-8.1-10.6-12.7l-0.3-0.5
				c-1.4-2.1-2.6-4.3-4.5-5.9l-0.4-0.4c-0.6-0.5-1.3-1-2.1-1.2c-1.5-0.4-4.4,0.2-5.1,2l-0.1,0.2C-160.6,236.6-162,236.4-162.1,235.5
				z"/>
		</g>
		<g id="FACE" transform="translate(418.000051, 183.000739)">
			<path id="_xD83D__xDD8D_-Ink_00000067199904591174564240000002333625248792132508_" class="st4" d="M-97.2,153.1
				c-6.7-2.7-12.7-7.3-17.1-13.2c-1.5-2-1.9-4.2-1.6-6.1c0.4-2.2,1.7-4.2,3.4-5.5c1.8-1.3,4-2,6.2-1.7c1.9,0.3,3.7,1.3,5.2,3.5
				l0.3,0.4c2.6,3.5,6,6.4,9.9,8.3c3.7,1.8,7.9,2.6,12.2,2.1c8.2-0.9,13.9-5.4,19.9-11.4c0.7-0.8,1.5-1.5,2.2-2.3
				c0.5-0.7,1.1-1.2,1.9-1.4c0.8-0.3,1.7-0.3,2.6,0c0.8,0.3,1.5,0.8,2,1.5c0.5,0.7,0.7,1.5,0.6,2.5c-0.6,6.3-3.8,11.8-8.5,16.2
				c-5.2,4.9-12,8.2-18.4,9.4C-83.4,156.7-90.7,155.8-97.2,153.1L-97.2,153.1z M-73,56.6c7.6,4.6,19.1,15.3,10.9,26.7
				c-9.6,10-23.3-1.5-30.1-6.7c-6.3-4-13.4,6.3-7.5,11c49,36.3,68.9-29.8,30.5-36.4C-73.4,50.4-75,55.1-73,56.6z M-160.8,14.3
				c0.8-10.4,16.6-12.7,18.2-2.5c1.4,9.2-0.2,17.6-4.4,25.9c-4,7.9-13.9,4.2-14.6-3C-162.7,25.1-161.4,20.8-160.8,14.3z M-40.8,9.8
				c2.2-2.9,5.4-4.8,9.2-3.7c11.9,3.5,8.4,20.3,4.2,28.6c-2.3,4.5-9.6,5.6-12.9,1.7c-5.4-6.4-8-19.2-1.1-25.5
				C-41.2,10.4-41,10.1-40.8,9.8z M-147.2-31l1.9-0.3c5.8-1,13-2,17.1,2.7c2.2,2.5,2.9,7.1,0,9.4c-5.2,4.2-10.8,2.6-17,2.9
				c-5.1,0.3-10,1.1-14.9,2.5c-10.8,3.2-19.5,8.8-28.7,14.9c-1.2,0.8-2.4-0.7-1.9-1.9c5.3-10.3,15.6-18.8,25.9-24
				C-159.3-27.6-153.3-29.9-147.2-31z M-51.6-35.6l1.4,0.3c15.6,3.3,36,9.8,43.4,25.2c0.3,2.2,0,2.6-0.3,2.9l-0.1,0.1
				c-0.2,0.3-0.4,0.6-1.3,0.9C-8.8-6.3-9-6.3-9.3-6.4c-3.4-0.9-6.1-2.1-8.7-3.4l-2.8-1.4c-3.3-1.6-6.6-3.1-10.1-4.3
				c-7.5-2.4-15.1-4.1-22.9-5.1c-1.7-0.2-3.3-0.8-4.6-1.7c-1.2-0.9-2.1-2.2-2.6-3.9c-0.5-2.2-0.4-3.9,0.8-5.9
				c0.9-1.5,2.2-2.5,3.6-3.1C-55-35.8-53.3-36-51.6-35.6z"/>
		</g>
		<g id="FACIAL-HAIR" transform="translate(328.999934, 283.000126)">
			<path id="_xD83D__xDD8D_-Ink_00000183241579875523735870000018021602339811128969_" class="st4" d="M-73.1,59.4
				c8.1-19,25.8-32.9,46.1-38c14.9-3.7,30.6-3.6,45.8-2.1c8,0.8,16.5,1.4,24.1,4.4c6.4,2.5,11.7,7.3,15.6,12.9
				c4.7,6.7,7.9,14.3,10.1,22.1c0.3,1.1,0.6,2.2,0.9,3.4c-1,5.9-3,10.9-8.5,14.6c-5.3,3.6-11.7,5.1-18,5.6c-0.6-0.3-1.2-0.6-1.8-0.9
				c-9.9-5.7-16.8-19-29.3-17.2C0.8,65.8-6.5,79.8-13.1,88c-21.2,2.5-42.4-3.9-59.7-16C-73.6,67.7-73.7,63.5-73.1,59.4 M84,45
				c-1.7-4.8-3.8-9.4-6.4-13.7C69.2,16.9,56.4,5.5,41.1-1.1C5-16.6-41.8-5.7-70.9,19.7c-10,8.7-20,21.4-23.1,35.1
				c-0.9,0.2-1.8,0.7-2.5,1.3c-21.1-13.3-42.8-26-59.8-44.4c-12.3-13.3-20.9-29.2-26.1-46.5c-0.5-1.5-2.8-1.3-2.7,0.3
				c0,0.4,0,0.7,0.1,1.1c-0.3-0.6-1.3-0.3-1.4,0.4c-2.8,21.1-6.4,43.5-3.1,64.7c1.9,12.6,7.7,21.9,15.4,31.9
				c8.2,10.7,17.6,20.7,27.1,30.3c6.1,6.1,12.4,13.1,19.8,17.5c8.6,5.2,18.4,9.1,27.6,13.1c9.4,4.1,18.9,7.8,28.5,11.1
				c19.3,6.5,39.3,11.1,59.7,13.1c16.3,1.6,34.9,3.3,50.5-2.8c12-4.7,21.6-13.2,29.3-23.4c8.3-11.1,14.9-23.8,18.6-37.1
				C90.7,71.5,84.8,47.2,84,45"/>
		</g>
		<g id="ACCESORIES" transform="translate(254.000312, 204.000449)">
			<path id="_xD83D__xDD8D_-Ink_00000165218945452917269880000012882743128496366517_" class="st4" d="M161.2,52.6
				c-15,7.2-35.9-3.4-46-14.6c-3.7-4.1-6.5-15.7-5.1-23.1c3.8-20,18.2-32,33.4-36.1c21-5.7,42.2,8.7,39.8,25.7
				C180.9,20.6,177.3,44,161.2,52.6 M59,14.2C57.8,36,40.3,55,19.4,60.7c-33.7,9.4-50.3-14.3-57.9-39.8C-39.2,18.4-41,10.6-36.3,4
				c18.6-26.1,63.8-21.6,86.4-14.5C56.8-4.1,59.5,5,59,14.2 M177.5-23.3L177.5-23.3c-0.1,0-0.2-0.1-0.3-0.1
				C177.3-23.4,177.4-23.4,177.5-23.3 M205.7-20.8c-2-22.2-71.5-13.7-79.7-11.9c-22.2,6.5-41.4,24.3-66.2,16.5
				C34.1-44.9-52.5-36.7-70.6-22.1c-3.4-1.3-7.6-0.6-12,0.6c-22.7-0.8-126.5,7-105.3,36c3.2,2.2,6.4,0,6.5-4.6
				C-70.7-30-81.5,7.4-68.3,3c2,0.6,4.1,0.9,5.9,1.3C-52.2,7.6-48.8,6.6-47.5,18c9.2,88.1,126.4,57.7,116.8-14.6
				c9.5-0.5,17.9-4.6,27.9-0.6c7,68,61.7,70.8,78.2,47.2c12.4-16.4,7.5-41.1,24.6-54C206.8,1.8,207.2-17.3,205.7-20.8"/>
		</g>
	</g>
</g>
</svg>
