<svg version="1.1" id="Layer_1" xmlns="http://www.w3.org/2000/svg" x="0" y="0" viewBox="0 0 384 383.4" xml:space="preserve">
    <style>
		path{
			stroke:#000;
			fill:#000;
		}
        @media (prefers-color-scheme:dark){
			path{
				stroke:#fff;
				fill:#fff;
			}
		}
    </style>
    <path d="M384 253.8v119.8c-3 7.5-8.7 10.4-16.6 9.8-2.7-.2-5.5-.1-8.2 0-4.1.1-7.5-1.4-10.4-4.3-32.7-32.7-65.3-65.3-98-97.9-2.9-2.9-4.3-6.3-4.2-10.4 0-1.3-.5-3-1.3-3.9-3.6-3.8-7.3-7.5-11.2-11.1-6.3-5.7-13.9-9.1-22.4-9.2-14.7-.2-27.4-4.9-38-15.1-.5.3-1 .5-1.4.8-8.8 8.7-17.6 17.3-26.4 26-.6.6-.8 1.8-.7 2.6.4 4.4-1.1 8-4.2 11.1-35.8 35.7-71.6 71.4-107.3 107.1-2.8 2.8-6.1 4.2-10.1 4.1-2.4-.1-4.8-.2-7.1 0C8.7 384 3 381 0 373.5V252.2c1.4-2 2.5-4.3 4.2-6 18.4-18.5 36.8-37 55.4-55.2 2.1-2 5.4-4 8.1-3.9 4.5.1 7-2.1 9.7-4.9 7.6-7.9 15.3-15.6 23.3-23.8-7.2-6.6-13.8-13-13.1-23.3.7-10.4 6.5-16.8 15.9-20.5-3.1-6.9-3.2-13.5 0-20.1 3.3-6.7 9-10.4 16.1-11.9-1.7-15.9 4.6-23.8 22-27.7 2.7-16.4 9.8-22.2 27.2-22.3 1.6-7.2 6.6-11.6 12.8-15.1C186 15 190 11.7 194.3 9c4.9-3.1 9.9-6 14.9-9h7.5c7.6 1.7 12.8 6.8 18 12.1 1.3 1.3 3.2 2.4 5 2.7 9.2 1.4 15.2 6.5 18.2 15.2.7 2.1.9 4.4 1.4 6.5 17.8 4.6 20.6 8.2 22.1 27.7 16.7 3.8 23.8 22.2 12.8 37.3 6.4 2.7 11.2 7.1 13.2 13.9 3 10.2-.2 18.5-7.8 25.6-8.2 7.8-7.8 7.9-5.1 18.7 3.7 14.8 13.2 25.4 24 35.4.5.4 1.4.8 2 .7 5.7-1 9.7 1.9 13.5 5.7 14.3 14.3 28.7 28.5 42.9 42.9 2.6 2.8 4.7 6.2 7.1 9.4zM83.3 194.3l54.2 54.2c.7-.7 1.6-1.5 2.5-2.3 6.9-6.9 13.7-13.8 20.7-20.6 9.5-9.3 21-14.2 34.3-14.5 11.2-.2 20.6-4.2 28.5-12.1l67.8-67.8c1.1-1.1 2.3-2.3 3.1-3.7 2-3.5 2-7.2-.3-10.6-2.2-3.2-5.5-4.4-9.2-3.7-2 .4-3.8 1.7-5.6 2.9-3.7 2.4-7.8 1.8-9.7-1.8-1.6-3.1-.9-5.8 1.5-8.1 4.2-4.2 8.6-8.4 12.7-12.7 3.2-3.4 3.8-8.4 1.7-12.1-2-3.4-6.2-5.3-10.3-4.2-1.7.5-3.3 1.7-4.8 2.7-3.2 2.1-6.5 1.9-8.8-.6-2.3-2.5-2.2-6 .2-8.8 1.6-1.8 3.4-3.3 4.8-5.2 2.4-3.1 2.7-6.7 1.1-10.3-1.4-3.3-4.2-5.3-7.6-5.1-2.7.2-5.4 1.5-7.8 2.9-3.2 1.8-6.3 1.9-8.6-.3-2.5-2.4-2.6-5.6-.4-8.8.4-.5.8-1 1.1-1.5 2.3-3.5 2.4-7.1.3-10.6s-5.5-4.9-9.3-4c-2.5.6-5.1 2.1-7 3.9-7.5 7.1-14.7 14.6-22.1 21.9-1.9 1.9-4.2 3.5-6.4 5.3 8.3 7.7 11.4 16 8.1 25.8-3.4 9.9-11.1 14.5-21.2 15.4-1.7 13.8-7.4 19.5-22.6 22.7-.2 1.3-.5 2.6-.7 4-1.7 9.4-9.1 16.8-18.6 17.9-2.7.3-3.7 1.3-4 4-1.4 11-11.6 20.4-22.4 18.6-7.3-1.2-11 1.3-14.7 6.3-1.3 1.8-3.1 3.3-4.6 4.9-5.3 5.4-10.7 10.8-15.9 16zM12.8 370.1c7.1 1.1 12.4 0 17.7-5.3 32.7-33.2 65.8-66 98.8-98.8 1-1 2.5-1.7 3.3-2.3-21.8-21.7-42.8-42.7-63.9-63.8-.7.7-1.7 1.6-2.7 2.6-16.9 16.8-33.7 33.7-50.7 50.5-2 1.9-2.6 3.9-2.6 6.5.1 35.5.1 71.1.1 106.6v4zm247.1-98.2c.1.2.4.6.7.9 32 32 64.1 64 96.2 96 .7.7 1.6 1.5 2.4 1.5 3.9.2 7.9.1 11.9.1.1-1.1.1-1.7.1-2.3 0-36.3 0-72.6-.1-108.8 0-1.6-1.1-3.5-2.2-4.7-11.4-11.5-22.9-23-34.4-34.4-3.9-3.9-7.6-7.8-11.2-11.5-21.3 21.2-42.2 42.1-63.4 63.2zm-73-47.2c6.6 6.2 14.1 8.7 22.5 8.8 14 .2 26 5.2 35.9 15.1 3.1 3.1 5.9 6.4 8.6 9.3 18.6-18.6 36.6-36.5 54.8-54.7-13.2-11.6-23.8-25.3-27.9-44-1.3.9-1.8 2.2-2.8 3.2-15.1 15.2-30.4 30.3-45.5 45.5-10.3 10.3-22.6 15.6-37.2 15.8-2.8.2-5.6.7-8.4 1zM185.7 87c5.3-.4 8.3-2.1 9.9-5.8 1.7-4 .9-7.6-2.1-10.7-7.3-7.5-14.7-14.9-22.2-22.2-4.2-4.1-10.3-3.9-14.1 0-3.6 3.8-3.6 9.3.5 13.4 7.3 7.5 14.7 14.9 22.3 22.1 1.8 1.8 4.4 2.5 5.7 3.2zm-22.9 22.4c5.5-.2 8.5-1.9 10.2-5.5 1.9-4.1.9-7.8-2.2-11-7.3-7.3-14.6-14.7-22-21.9-4.2-4.1-10.3-4.1-14.1-.2-3.7 3.8-3.6 9.5.5 13.7 7.2 7.3 14.4 14.6 21.8 21.6 1.9 1.8 4.6 2.7 5.8 3.3zM140.1 132c5.5-.1 8.5-1.9 10.2-5.5 1.8-3.9 1-7.6-1.9-10.7-5.8-6-11.7-11.9-17.7-17.7-4.3-4.2-10.2-4.1-14-.2-3.7 3.8-3.6 9.5.5 13.7 5.6 5.8 11.3 11.6 17.2 17.1 1.9 1.8 4.6 2.6 5.7 3.3zm51.2-81.7c10.7-10.7 21-21.2 31.4-31.7-5.1-6.1-9.9-7.4-15-3.9-7.8 5.4-15.5 10.8-23.3 16.2-3.7 2.6-4.4 7.3-1.5 10.7 2.6 3 5.6 5.7 8.4 8.7zm-62.7 93.9c-.3-.9-.4-2.9-1.5-4-3.9-4.2-7.8-8.5-12.2-12.1-3.6-3-9-1.8-12.2 1.7-3 3.3-3.4 8.5-.3 12 3.3 3.8 7 7.5 10.8 10.8 3 2.6 6.6 2.8 10.1.9 3.5-1.7 5.1-4.6 5.3-9.3z" />
</svg>
