<?xml version="1.0" encoding="utf-8"?>
<svg version="1.1" id="Layer_1" xmlns="http://www.w3.org/2000/svg" xmlns:xlink="http://www.w3.org/1999/xlink" x="0px" y="0px"
	 viewBox="0 0 1033 988" style="enable-background:new 0 0 1033 988;" xml:space="preserve">
	 <style>
		path{
			stroke:#000;
			fill:#000;
		}
        @media (prefers-color-scheme:dark){
			path{
				stroke:#fff;
				fill:#fff;
			}
		}
    </style>
<g id="Dice">
	<path d="M404.1,68.3c-1.5,9-3.1,17.9-4.5,26.9c-5.7,36.3-11.4,72.6-17.1,108.9c-1,6.6-2.4,13.2-3.1,19.8
		c-2.4,21.2-22.2,38.8-48.5,33.9c-24.7-4.6-49.6-8-74.4-11.9c-1.4-0.2-2.7-0.3-4.7-0.4c0,1.7,0,3.2,0,4.6c0,27.8,0.1,55.6,0,83.4
		c-0.1,19.7-11.5,34.9-29.7,39.3c-3.4,0.8-7,1.1-10.5,1.1c-51.8,0.1-103.7,0.1-155.5,0c-23.6,0-40.4-16.8-40.4-40.3
		c0-51.8,0-103.7,0-155.5c0-23.4,16.7-40.1,40.1-40.2c31-0.1,61.9,0,92.9,0c1.5,0,3,0,5,0c1-6.4,2.1-12.8,3.1-19.1
		c4.4-28.1,9-56.1,13.1-84.2c3.7-25.3,26.8-37.8,46.4-34.1c17.1,3.3,34.4,5.5,51.6,8.3c5.6,0.9,8.2,4.2,7.4,9
		c-0.7,4.5-4.5,6.7-10.1,5.8c-17.5-2.7-34.9-5.4-52.4-8.2c-12.7-2-24.9,5.9-27.2,18.5c-3.3,18.8-6.1,37.6-9.1,56.5
		c-2.3,14.6-4.6,29.2-6.8,43.8c-0.2,1.1-0.2,2.2-0.3,3.7c3.6,0,7,0,10.4,0c11,0,22-0.1,33,0c22.3,0.3,38.6,16.5,39,38.9
		c0.3,16.1,0.1,32.1,0.1,48.2c0,1.5,0,3,0,4.7c11.1,1.8,22,3.5,32.8,5.2c17.2,2.7,34.4,5.3,51.7,8.1c13.3,2.1,25.4-6,27.6-19.3
		c4.5-26.9,8.6-53.9,12.8-80.8c3.9-25.1,7.8-50.2,11.8-75.2c2.1-13.3-5.9-25.3-19.2-27.7c-13.8-2.5-27.7-4.5-41.5-6.7
		c-5.4-0.9-8.5-4.2-7.8-8.7c0.7-4.7,4.8-7.1,10.3-6.2c13.3,2.1,26.7,4.1,40,6.4c17.7,3,29.2,14,33.1,31.5c0.1,0.5,0.4,0.8,0.7,1.3
		C404.1,61.2,404.1,64.8,404.1,68.3z M134,153.2c-25.9,0-51.8,0-77.7,0c-15.8,0-25.5,9.8-25.5,25.6c0,51.4,0,102.9,0,154.3
		c0,16,9.8,25.8,25.7,25.8c51.4,0,102.9,0,154.3,0c16,0,25.8-9.6,25.8-25.6c0-51.4,0-102.9,0-154.3c0-16.1-9.6-25.7-25.7-25.7
		C185.3,153.2,159.7,153.2,134,153.2z"/>
	<path d="M225.6,91c-12.1,0.1-22.2-9.9-22.4-22c-0.2-12.2,10.1-22.5,22.3-22.5c12.1,0,22.2,10.1,22.2,22.2
		C247.7,80.8,237.7,90.9,225.6,91z M232.5,68.7c0-3.7-3.3-7-7-7.1c-3.8,0-7.3,3.5-7.1,7.3c0.1,3.7,3.5,6.9,7.2,6.8
		C229.3,75.7,232.5,72.4,232.5,68.7z"/>
	<path d="M253.1,126.5c-0.1-12.3,10-22.5,22.3-22.5c12.1,0,22.2,10.1,22.2,22.2c0,12.1-10,22.2-22.1,22.3
		C263.4,148.7,253.2,138.6,253.1,126.5z M275.4,133.4c3.7,0,7-3.3,7.1-7c0.1-3.9-3.4-7.3-7.3-7.2c-3.8,0.1-6.9,3.4-6.9,7.1
		C268.3,130.1,271.6,133.4,275.4,133.4z"/>
	<path d="M301.6,190.1c0-12.2,9.8-22.3,22-22.3c12.4-0.1,22.5,9.9,22.4,22.3c-0.1,12.2-10.1,22.2-22.2,22.2
		C311.7,212.2,301.7,202.2,301.6,190.1z M323.8,182.9c-3.8,0-7,3.2-7,7c0,4,3.3,7.3,7.2,7.1c3.8-0.1,6.9-3.4,6.8-7.2
		C330.8,186,327.6,182.9,323.8,182.9z"/>
	<path d="M305.5,21.4c-0.1,4.1-3.4,7.4-7.5,7.4c-4.2,0-7.7-3.6-7.7-7.7c0.1-4.1,3.4-7.4,7.6-7.4C302.2,13.7,305.5,17.1,305.5,21.4z"
		/>
	<path d="M53.6,203.9c-0.1-12.2,9.8-22.3,22-22.4c12.2-0.1,22.3,9.9,22.4,22.1c0.1,12.1-9.9,22.3-22.1,22.4
		C63.8,226.1,53.6,216.1,53.6,203.9z M82.8,203.7c0-3.7-3.2-7-7-7.1c-3.8-0.1-7,3.1-7.1,6.9c-0.1,3.9,3.2,7.3,7.1,7.3
		C79.6,210.7,82.8,207.5,82.8,203.7z"/>
	<path d="M156.1,252.9c0,12.3-9.9,22.2-22.2,22.2c-12.2,0-22.1-10-22.1-22.3c0-12.3,9.9-22.2,22.2-22.1
		C146.3,230.7,156.2,240.6,156.1,252.9z M141,252.8c0-3.9-3.1-6.9-7-6.9c-3.8,0-6.9,3.1-7,6.9c0,4,3.2,7.3,7.2,7.1
		C138.1,259.8,141,256.7,141,252.8z"/>
	<path d="M75.8,330.2c-12.3,0-22.2-9.8-22.2-22.1c0-12.3,9.8-22.2,22.1-22.2c12.3,0,22.2,9.8,22.3,22.1
		C98,320.2,88.1,330.1,75.8,330.2z M82.8,308.1c0-3.9-3-6.9-6.9-7c-3.9-0.1-7,2.9-7.2,6.7c-0.1,4,3,7.2,7,7.2
		C79.7,315,82.8,312,82.8,308.1z"/>
	<path d="M169.6,308.2c0-12.2,10-22.2,22.2-22.2c12.3,0,22.1,9.9,22.1,22.2c0,12.3-10,22.2-22.2,22.2
		C179.5,330.4,169.6,320.5,169.6,308.2z M198.7,308.1c-0.1-3.8-3.2-6.9-7-6.9c-4,0-7.1,3.3-6.9,7.3c0.1,3.8,3.4,6.8,7.2,6.7
		C195.8,315.2,198.8,312,198.7,308.1z"/>
	<path d="M213.9,204c0,12.3-9.9,22.1-22.2,22.1c-12.3,0-22.1-9.9-22.1-22.2c0-12.3,9.9-22.2,22.2-22.1
		C204.1,181.9,213.9,191.7,213.9,204z M198.7,203.9c0-3.9-3.1-6.9-7-6.9c-3.9,0-6.9,3-7,6.9c0,4,3.2,7.2,7.2,7.1
		C195.8,210.8,198.8,207.7,198.7,203.9z"/>
</g>
<g id="Gamepad">
	<path d="M602,238.8c0.8-7.7,1.5-15.5,2.5-23.2c5.2-39.7,13.8-78.4,32.3-114.3c8.3-15.9,18.6-30.4,33.2-41.3
		c13.9-10.4,29.8-15,46.8-13c16.4,2,32.5,5.9,48.8,9c15.3,3,30.5,7,45.9,8.6c9.6,1,19.7-0.9,29.3-2.9c19.6-4,39-9.1,58.6-13.2
		c16.2-3.4,32.4-3.5,48.1,2.9c14,5.7,24.6,15.6,33.7,27.3c16.8,21.5,26,46.5,33.5,72.3c10.1,34.8,15.9,70.3,15.3,106.7
		c-0.3,16-1.7,32-8.9,46.8c-8.6,17.5-23.6,25.2-42.8,22.1c-15.5-2.5-29-9.8-41.5-18.7c-11.8-8.4-23.7-16.9-34-27
		c-19.8-19.4-43.8-27.8-70.6-30.2c-22.9-2-45.3-0.1-67.2,7.4c-11.7,4-21.7,10.5-30.8,18.8c-14.6,13.4-29.8,26-46.8,36.3
		c-10.2,6.1-20.7,11.5-32.6,13.5c-20.9,3.6-37.3-5.6-45.4-25.4c-4.1-10-5.9-20.6-6.6-31.3c-0.1-2-0.5-4.1-0.8-6.1
		C602,255.5,602,247.1,602,238.8z M621.7,254.4c0.3,5.1,0.2,11.5,1.1,17.9c0.8,6.3,2.1,12.6,4,18.7c4.2,13.4,13.6,19,27,15.1
		c8.3-2.4,16.4-6.2,24-10.5c16.5-9.5,30.6-22.3,44.7-34.9c10.1-9,21.5-15.8,34.2-20.3c36.4-12.9,73.1-13.5,110-2.8
		c15.3,4.4,28.9,12,40.9,22.7c12.4,11,25.2,21.5,38.5,31.4c10.4,7.8,21.8,14,34.9,16.2c9.9,1.7,17.1-1.8,21.8-10.8
		c5.2-10.1,6.8-21.2,7.3-32.3c1.6-36.3-4.3-71.6-13.8-106.4c-6.4-23.5-15-46.1-29.7-65.8c-14.1-18.8-32.8-28.7-56.4-25.3
		c-17.4,2.5-34.8,6.3-51.8,10.8c-27.6,7.3-54.8,8-82.4,0.4c-17-4.7-34.3-8.5-51.7-11.3c-18.4-3-35.1,1.8-48.9,14.9
		c-12.3,11.6-20.6,26-27,41.3C630.9,164.8,622.7,208.2,621.7,254.4z"/>
	<path d="M718.8,99.7c14.6,1.2,25.6,10.8,28.5,25c0.5,2.4,1.4,3.2,3.6,3.6c14.5,2.8,25,15.5,25.1,30.2c0.1,14.7-10.2,27.4-24.8,30.4
		c-2.2,0.5-3.4,1-4,3.7c-2.9,14.7-16.1,25.4-30.7,25.2c-14.9-0.2-27.2-10.7-30-25.7c-0.5-2.4-1.8-2.6-3.7-3
		c-19-3.8-30-22.2-23.8-40.5c3.7-11,11.8-17.7,23.1-20.1c2.9-0.6,4.1-1.5,4.6-4.6C689.4,109.4,704.1,98.5,718.8,99.7z M756.8,158.7
		c0-6.3-4.2-10.8-10.5-11.1c-2.2-0.1-4.5,0-6.7-0.1c-7.2-0.1-11.2-4.1-11.4-11.5c-0.1-2.8,0-5.6-0.6-8.3c-1.1-6.1-5.7-9.5-11.6-9
		c-6,0.5-10.1,4.8-10.3,11.1c-0.1,1.9,0,3.9,0,5.8c-0.1,7.5-4,11.6-11.5,11.9c-2.5,0.1-5-0.1-7.5,0.2c-6.1,0.8-9.9,5.2-9.7,11.1
		c0.1,5.7,4.4,10.1,10.4,10.5c2.5,0.2,5,0,7.5,0.1c6.1,0.1,10.2,3.9,10.7,10c0.2,2.5,0,5,0.1,7.5c0.2,6.5,4.4,10.9,10.6,11.1
		c6.5,0.3,11.2-3.8,11.8-10.4c0.2-2.3,0.1-4.7,0.1-7.1c0.2-6.2,3.8-10.1,10.1-10.5c3-0.2,6.1,0,9.2-0.4
		C753.1,168.9,756.8,164.5,756.8,158.7z"/>
	<path d="M908.9,102.3c10.4,0,18.5,8.1,18.5,18.5c0,10.4-8.2,18.5-18.5,18.6c-10.4,0-18.5-8.2-18.5-18.5
		C890.4,110.4,898.5,102.3,908.9,102.3z"/>
	<path d="M871,177.2c-10.2,0-18.7-8.4-18.7-18.5c0-10.2,8.4-18.6,18.6-18.6c10.2,0,18.6,8.4,18.7,18.6
		C889.7,168.9,881.3,177.2,871,177.2z"/>
	<path d="M928.1,158.9c-0.1-10.3,8.2-18.7,18.4-18.8c10.3-0.1,18.6,8.1,18.8,18.4c0.2,10.2-8.1,18.7-18.4,18.8
		C936.7,177.4,928.2,169.1,928.1,158.9z"/>
	<path d="M890.3,196.6c0-10.3,8.2-18.7,18.5-18.7c10.2-0.1,18.6,8.3,18.6,18.6c0,10.3-8.2,18.7-18.5,18.8
		C898.8,215.3,890.4,206.9,890.3,196.6z"/>
</g>
<g id="Comic">
	<path d="M20.1,988c-1.4-0.5-2.8-1.1-4.1-1.6c-9.5-3.9-14.9-10.9-16-21.1c-0.2-2.2-0.2-4.5-0.2-6.8c0-134.8,0-269.5,0-404.3
		c0-3.6,0-7.3,0.9-10.8c2.6-10.8,12.2-18.3,23.4-18.6c0.8,0,1.5,0,2.3,0c113.5,0,227,0,340.6,0c12.8,0,22.4,6.8,25.5,18.2
		c0.8,3,1,6.3,1,9.4c0,136,0,271.9,0,407.9c0,14.8-4.9,21.3-20.3,27.7C255.3,988,137.7,988,20.1,988z M379.7,756.4
		c0-67.7,0-135.4,0-203.1c0-11.3-3.7-14.9-14.9-14.9c-112.2,0-224.3,0-336.5,0c-11.5,0-15.1,3.6-15.1,15.2c0,135.2,0,270.4,0,405.7
		c0,11.6,3.6,15.2,15.1,15.2c112.2,0,224.3,0,336.5,0c1.4,0,2.7,0.1,4.1-0.1c5.7-0.5,9.8-4.3,10.5-10c0.3-2.1,0.2-4.2,0.2-6.3
		C379.7,890.9,379.7,823.6,379.7,756.4z"/>
	<path d="M314.3,613.8c4.1,11.4,8.2,22.9,12.2,34.3c2.9,8.2,0.3,11.7-8.3,11.7c-12.2-0.1-24.3,0-36.4,0c0.5,0.4,1.5,1.3,2.5,2
		c9.2,6.3,18.4,12.6,27.6,18.9c6.5,4.5,6.4,9.3-0.2,13.8c-10,6.9-20.1,13.8-30.8,21.2c1.5,0.2,2.4,0.5,3.3,0.4
		c11.2-0.3,22.3-0.6,33.5-0.9c9.1-0.3,11.8,3.4,8.7,12.1c-4,11.3-8.1,22.6-12.4,34.8c1.6-1,2.6-1.5,3.4-2.1
		c7.7-5.9,15.2-11.8,23-17.6c2.3-1.7,3.2-3.5,3.2-6.4c-0.2-10.7-0.1-21.4-0.1-32.1c0-1.5,0-3,0.2-4.5c0.5-3.7,2.9-5.7,6.4-5.8
		c3.8-0.1,6.2,2.1,6.7,5.9c0.2,1.5,0.2,3,0.2,4.5c0,33.2,0,66.3,0,99.5c0,8.9-1.7,10.6-10.5,10.6c-54.9,0-109.8,0-164.6,0
		c-9.3,0-11.7-3.2-9-12.1c23.5-77.9,47.1-155.9,70.6-233.8c1.8-6,3.4-7.2,9.7-7.2c31.5,0,63,0,94.5,0c7.1,0,9.3,2.1,9.3,9.1
		c0,34.1,0,68.1,0,102.2c0,0.9,0,1.8-0.1,2.7c-0.5,4.1-2.9,6.5-6.7,6.5c-3.8,0-6.5-2.4-6.6-6.5c-0.2-8.3-0.9-16.7,0.1-24.8
		c1.3-11-2.1-18.5-11.8-24c-6.1-3.5-11.3-8.4-16.9-12.8C314.8,613.5,314.5,613.6,314.3,613.8z M297.8,687.6c-1.6-1.2-2.8-2.1-4-2.9
		c-13-9-26.1-17.9-39.2-26.8c-3.3-2.2-5-5-3.7-8.8c1.3-3.7,4.4-4.6,8-4.5c12.4,0.4,24.7,0.8,37.1,1.1c4.9,0.1,9.9,0,15.1,0
		c-0.7-2-1.2-3.8-1.9-5.7c-5.1-14.3-10.1-28.7-15.3-43c-1.3-3.7-1.7-7.2,2-9.7c3.4-2.3,6.5-1,9.5,1.3c11.4,8.9,22.9,17.7,34.4,26.5
		c1,0.7,2.1,1.4,3.4,2.2c0-14.7,0-28.6,0-42.5c-0.8-0.1-1.2-0.3-1.6-0.3c-27.6,0-55.2,0-82.8-0.1c-3.3,0-3.6,2-4.2,4.1
		c-21.9,72.5-43.8,144.9-65.7,217.4c-0.4,1.3-0.7,2.7-1.1,4.2c52.2,0,103.7,0,155.2,0c0-14.3,0-28.3,0-42.8c-1.7,1.2-2.8,2-3.8,2.8
		c-11.4,8.7-22.7,17.5-34.1,26.2c-4.4,3.3-8.6,3.5-10.6-0.2c-1.2-2.2-1.4-5.6-0.6-8c5.1-15.1,10.5-30.1,15.9-45.2
		c0.4-1.2,0.7-2.4,0.7-2.8c-17.3,0-34.3,0-51.3,0c-3.7,0-7.1-0.4-8.4-4.5c-1.4-4.2,0.8-6.8,4.1-9c7.6-5.1,15.2-10.3,22.8-15.5
		C284.3,696.8,290.9,692.3,297.8,687.6z"/>
	<path d="M35.9,687.4c0-38.6,0-77.2,0-115.8c0-9,1.7-10.6,10.5-10.6c54.9,0,109.8,0,164.6,0c9.5,0,11.8,3.1,9,12.4
		c-23.5,77.8-47,155.6-70.5,233.3c-1.9,6.1-3.5,7.3-10.1,7.3c-31.2,0-62.4,0-93.6,0c-7.9,0-9.8-2-9.8-10
		C35.9,765.2,35.9,726.3,35.9,687.4z M205.3,574.9c-0.8-0.2-1.3-0.3-1.7-0.3c-22.2,0-44.3,0-66.5,0c-1,0-2.2,0.1-3,0.6
		c-6.1,4-12.1,8.2-18.4,12.5c1.4,1,2.3,1.8,3.3,2.5c13.9,9.6,27.8,19.1,41.8,28.6c3.2,2.2,5.2,4.8,3.9,8.7c-1.3,3.9-4.5,4.8-8.3,4.7
		c-13.7-0.5-27.4-0.9-41.1-1.2c-4.3-0.1-8.6,0-13.3,0c0.7,2,1.3,3.9,1.9,5.7c5.3,15,10.6,30.1,16,45.1c1.3,3.7,1.9,7.1-1.7,9.8
		c-3.6,2.7-6.7,1.1-9.8-1.3c-9.4-7.3-18.8-14.6-28.3-21.8c-4.7-3.6-9.5-7.3-14.6-11.2c-0.7,1.9-1.2,3.2-1.7,4.6
		c-4.4,14.9-8.8,29.7-13,44.6c-0.7,2.6-1.2,5.3-1.2,8c-0.1,26.8-0.1,53.7-0.1,80.5c0,1.6,0,3.2,0,5.5c2.1,0,3.8,0,5.4,0
		c25.8,0,51.6-0.1,77.3,0.1c3.9,0,5.4-1.2,6.5-4.8c18.8-62.5,37.7-125,56.6-187.6C198.7,597.1,202,586.1,205.3,574.9z M110.3,574.9
		c-20.7,0-40.6,0-60.4,0c0,28.1,0,55.7,0,83.4c1.9-4,3.2-8.2,4.4-12.3c2.3-7.7,6.7-9.3,13-4.4c9.5,7.2,18.9,14.5,28.3,21.7
		c0.9,0.7,1.9,1.2,3.8,2.5c-0.9-2.8-1.4-4.5-1.9-6.1c-3.8-10.8-7.7-21.5-11.5-32.3c-2.3-6.7,0.4-10.6,7.6-10.4
		c12.2,0.2,24.4,0.6,36.6,0.9c1.2,0,2.5-0.1,4.7-0.2c-12-8.2-23.2-15.8-34.3-23.6c-5.4-3.7-5.3-8.6,0-12.4
		C103.6,579.5,106.7,577.5,110.3,574.9z"/>
	<path d="M49.7,850.3c0,29.5,0,58.4,0,87.6c97.8,0,195.5,0,293.5,0c0-29.1,0-58.1,0-87.6c-2.1,0-4.1,0-6,0c-76.3,0-152.6,0-228.9,0
		c-1.8,0-3.7,0.1-5.4-0.3c-3.8-0.8-5.7-3.3-5.4-7.2c0.3-3.6,2.5-5.7,6.2-6c1.3-0.1,2.7-0.1,4.1-0.1c79.6,0,159.2,0,238.8,0
		c8.9,0,10.4,1.5,10.4,10.6c0,31.4,0,62.7,0,94.1c0,8.6-1.8,10.4-10.2,10.4c-100.3,0-200.5,0-300.8,0c-8.3,0-10.2-1.8-10.2-10
		c0-31.8,0-63.6,0-95.4c0-7.8,1.9-9.7,9.5-9.7c10.6,0,21.1,0,31.7,0c5.5,0,8.4,2.3,8.5,6.6c0.1,4.4-3,6.9-8.6,7
		C68.1,850.3,59.2,850.3,49.7,850.3z"/>
	<path d="M196.5,893.7c-6.6-0.3-12.2-2.5-16.7-7.2c-3-3.1-3.1-6.9-0.6-9.7c2.5-2.8,6.4-2.9,9.7-0.3c6.2,4.8,9.1,4.8,15.1,0.1
		c3.4-2.6,7.2-2.6,9.7,0.2c2.6,2.8,2.5,6.6-0.5,9.7C208.7,891.3,202.9,893.5,196.5,893.7z"/>
	<path d="M249.9,877c0,1.6,0.1,3.3,0,4.9c-0.4,3.8-2.7,6.1-6.4,6.3c-3.8,0.2-6.4-2-6.9-5.8c-0.4-3.5-0.4-7.2,0-10.8
		c0.4-3.7,2.9-5.9,6.8-5.8c3.8,0.1,6,2.4,6.5,6.2C250.1,873.7,249.9,875.4,249.9,877z"/>
	<path d="M143.2,876.8c0-1.6-0.2-3.3,0-4.9c0.5-3.6,2.7-5.7,6.3-5.9c3.6-0.2,6.3,1.7,6.8,5.2c0.6,3.8,0.6,7.8,0.1,11.6
		c-0.4,3.5-3.1,5.6-6.6,5.5c-3.7-0.1-6.1-2.3-6.6-6.1C143,880.4,143.1,878.6,143.2,876.8C143.1,876.8,143.1,876.8,143.2,876.8z"/>
</g>
<g id="Cards">
	<path d="M794.6,955.9c-3.6-1.7-7.6-2.9-10.9-5.2c-6.6-4.6-9.8-11.3-10.1-19.4c-0.1-4,0-8.1,0-12.5c-15.4,4.1-30.4,8.1-45.4,12.1
		c-3.8,1-7.6,2.1-11.4,3c-15.7,3.9-28.3-3.5-32.5-19c-7.8-28.8-15.5-57.6-23.2-86.4c-19.3-71.9-38.5-143.9-57.8-215.9
		c-4.4-16.4,2.9-29,19.3-33.4c66-17.7,132-35.4,198-53.1c16-4.3,28.8,3.2,33.1,19.2c3.6,13.4,7.2,26.8,10.8,40.1
		c0.3,1.1,0.7,2.1,1.1,3.3c1.8,0,3.5,0,5.2,0c43.8,0,87.5,0,131.3,0c18.2,0,24.4,4.2,30.9,21c0,42.4,0,84.7,0,127.1
		c-0.5,0.7-0.9,1.4-1.4,2c-2.3,3.2-5.4,4.6-9.1,3.5c-3.9-1.1-6.1-3.9-6.2-8c-0.1-7,0-14-0.1-21c0-32.3,0-64.5,0-96.8
		c0-8.3-2.8-11-11.2-11c-67.7,0-135.5,0-203.2,0c-8.4,0-11.2,2.7-11.2,11c0,103.8,0,207.6,0,311.4c0,8.3,2.8,11,11.2,11
		c67.7,0,135.5,0,203.2,0c8.4,0,11.2-2.7,11.2-11c0-38.7,0-77.4,0-116.1c0-7.3,5.4-12,11.1-9.4c2.2,1,3.8,3.4,5.7,5.2
		c0,42.4,0,84.7,0,127.1c-2.9,11.1-9.9,18.1-21,21C939.4,955.9,867,955.9,794.6,955.9z M847.8,588.8c-3.5-13.2-6.9-25.7-10.3-38.3
		c-2.1-8-5.6-10-13.6-7.9c-65.3,17.5-130.7,35.1-196,52.6c-8.7,2.3-10.6,5.5-8.3,14c26.8,100.1,53.7,200.2,80.5,300.3
		c2.1,7.9,5.5,9.9,13.2,7.8c13.3-3.5,26.5-7,39.8-10.5c6.7-1.8,13.5-3.7,20-5.5c0-39,0-77.7,0-116.6c-1,0.3-1.7,0.6-2.3,0.8
		c-18.1,6.5-36.7,1.8-48.5-12.2c-12-14.2-13.7-33-4.1-49.8c10-17.7,20.3-35.2,30.5-52.8c3.4-5.9,7.7-7,13.7-3.6c3.5,2,7,4,11.1,6.3
		c0-2.1,0-3.4,0-4.8c0-17.3,0-34.5,0-51.8c0-17.9,10.2-28,28.2-28.1C817,588.8,832.1,588.8,847.8,588.8z M760.3,685.2
		c-0.6,0.7-0.9,0.9-1.1,1.3c-9,15.7-18.3,31.2-27,47c-6,10.9-3.2,24.1,6.2,32c9.2,7.7,22.8,8.2,32.3,0.9c1.4-1.1,2.8-3.3,2.8-5
		c0.2-21.9,0.1-43.8,0.1-65.7c0-1.1-0.3-2.8-1.1-3.3C768.5,689.8,764.3,687.6,760.3,685.2z"/>
	<path d="M1032.9,774.9c-0.5,0.8-1.1,1.6-1.6,2.3c-3.2,4.2-8.7,4.7-12.5,1.3c-3.6-3.3-3.6-8.9,0-12.2c3.7-3.5,9.3-2.9,12.5,1.3
		c0.6,0.8,1.1,1.6,1.6,2.3C1032.9,771.5,1032.9,773.2,1032.9,774.9z"/>
	<path d="M885.4,718.1c3.5,0.9,9.2,2.6,15,4c1.7,0.4,3.8,0.7,5.3,0c19.2-8.2,40.4-2.6,52.5,14.1c11.9,16.4,10.9,39.1-3.4,54.2
		c-14.7,15.5-30,30.3-45.1,45.4c-4.4,4.3-8.8,4.2-13.3-0.2c-14.7-14.6-29.6-29.1-44-44.1c-13-13.5-16.2-29.7-8.9-47
		C850.8,727.5,864.6,719.2,885.4,718.1z M903,817.6c13.6-13.3,27.6-26.3,40.7-40.1c8.6-9.1,7.7-23.6-0.4-33.2
		c-8.1-9.5-22.2-12.1-32.8-5.4c-5.2,3.3-9.3,3.3-14.6,0c-10.8-6.7-24.8-4-33,5.8c-8,9.6-8.5,24.1,0.1,33.2
		C876,791.5,889.7,804.5,903,817.6z"/>
	<path d="M840.6,661c-3.5,9.1-6.6,17.2-9.8,25.2c-2.3,5.8-6.6,8.2-11.3,6.3c-4.8-1.9-6.6-6.6-4.4-12.2c5.7-14.9,11.6-29.7,17.3-44.6
		c1.5-3.9,4-6.5,8.3-6.5c4.3,0,6.8,2.7,8.3,6.5c5.7,14.9,11.5,29.8,17.2,44.7c2.2,5.7,0.4,10.3-4.5,12.2c-4.6,1.7-9-0.6-11.2-6.1
		C847.3,678.4,844.2,670.2,840.6,661z"/>
	<path d="M965.8,883.6c3.6-9.3,6.8-17.8,10.2-26.3c1.5-3.7,4.2-6,8.4-5.8c3.9,0.2,6.7,2.4,7.6,6.1c0.4,1.8,0.3,4-0.4,5.7
		c-5.8,15.4-11.8,30.8-17.8,46.2c-1.4,3.6-4,5.8-8,5.8c-3.9,0-6.6-2-8-5.7c-6-15.5-12.1-31-18-46.6c-1.8-4.9,0.3-9.3,4.8-11
		c4.4-1.7,8.8,0.3,10.9,5.1c1.8,4.2,3.4,8.6,5,12.9C962.2,874.3,963.8,878.4,965.8,883.6z"/>
	<path d="M679.6,638.7c-1.1,9.9-2,18.5-2.9,27.1c-0.6,5.8-4.1,9.3-9.1,8.9c-4.7-0.3-8.1-4-7.7-9.2c0.8-9.4,1.9-18.7,2.9-28
		c0.7-6.7,1.5-13.4,2.2-20.1c0.5-5.4,2.4-8.2,6.4-9.3c4.5-1.2,7.5,0.9,10,4.4c9.2,12.7,18.5,25.4,27.8,38.1c3.6,5,3.3,10-0.7,13
		c-4.3,3.2-9.1,2.1-12.9-3.1C690.5,653.5,685.5,646.6,679.6,638.7z"/>
</g>
</svg>
